<?xml version="1.0" encoding="UTF-8"?>
<!DOCTYPE svg PUBLIC "-//W3C//DTD SVG 1.1//EN" "http://www.w3.org/Graphics/SVG/1.1/DTD/svg11.dtd">
<svg xmlns="http://www.w3.org/2000/svg" version="1.1" width="500px" height="500px" style="shape-rendering:geometricPrecision; text-rendering:geometricPrecision; image-rendering:optimizeQuality; fill-rule:evenodd; clip-rule:evenodd" xmlns:xlink="http://www.w3.org/1999/xlink">
<g><path style="opacity:1" fill="#060606" d="M 381.5,214.5 C 381.167,213.5 380.5,212.833 379.5,212.5C 374.496,207.132 371.163,200.799 369.5,193.5C 369.932,190.123 369.265,187.123 367.5,184.5C 366.669,172.007 366.169,159.34 366,146.5C 365.249,138.989 363.749,131.655 361.5,124.5C 361.771,122.62 361.104,121.287 359.5,120.5C 354.633,110.769 348.3,102.102 340.5,94.5C 339.522,91.6752 337.522,90.3419 334.5,90.5C 333.833,90.5 333.5,90.1667 333.5,89.5C 333.027,88.0937 332.027,87.427 330.5,87.5C 326.313,85.2405 321.979,83.2405 317.5,81.5C 315.898,79.9261 313.898,79.2594 311.5,79.5C 287.396,74.7062 265.73,79.8729 246.5,95C 240.467,100.955 234.801,107.122 229.5,113.5C 228.094,113.973 227.427,114.973 227.5,116.5C 218.585,127.133 207.252,133.966 193.5,137C 165.5,137.667 137.5,137.667 109.5,137C 101.89,135.694 95.2233,132.527 89.5,127.5C 89.573,125.973 88.9063,124.973 87.5,124.5C 86.5,124.167 85.8333,123.5 85.5,122.5C 85.4456,120.368 84.4456,119.035 82.5,118.5C 79.9104,112.469 78.9104,106.136 79.5,99.5C 80.7682,97.0948 81.4349,94.4282 81.5,91.5C 82.3245,85.9939 84.6579,81.3272 88.5,77.5C 89.9063,77.0269 90.573,76.0269 90.5,74.5C 93.2379,70.0931 96.9046,66.7598 101.5,64.5C 103.027,64.573 104.027,63.9063 104.5,62.5C 113.587,56.8911 123.587,54.0577 134.5,54C 217.833,53.3333 301.167,53.3333 384.5,54C 416.646,57.4827 436.146,74.9827 443,106.5C 444.096,125.476 444.596,144.476 444.5,163.5C 444.61,181.862 444.11,200.196 443,218.5C 439.291,229.69 431.458,235.357 419.5,235.5C 403.499,234.174 390.832,227.174 381.5,214.5 Z"/></g>
<g><path style="opacity:1" fill="#8e8e8e" d="M 104.5,62.5 C 104.027,63.9063 103.027,64.573 101.5,64.5C 101.973,63.0937 102.973,62.427 104.5,62.5 Z"/></g>
<g><path style="opacity:1" fill="#828282" d="M 90.5,74.5 C 90.573,76.0269 89.9063,77.0269 88.5,77.5C 88.427,75.9731 89.0937,74.9731 90.5,74.5 Z"/></g>
<g><path style="opacity:1" fill="#8d8c8d" d="M 311.5,79.5 C 313.898,79.2594 315.898,79.9261 317.5,81.5C 315.214,81.405 313.214,80.7384 311.5,79.5 Z"/></g>
<g><path style="opacity:1" fill="#919191" d="M 330.5,87.5 C 332.027,87.427 333.027,88.0937 333.5,89.5C 331.973,89.573 330.973,88.9063 330.5,87.5 Z"/></g>
<g><path style="opacity:1" fill="#686868" d="M 334.5,90.5 C 337.522,90.3419 339.522,91.6752 340.5,94.5C 338.223,93.5514 336.223,92.2181 334.5,90.5 Z"/></g>
<g><path style="opacity:1" fill="#a2a2a2" d="M 81.5,91.5 C 81.4349,94.4282 80.7682,97.0948 79.5,99.5C 79.2938,96.5049 79.9605,93.8383 81.5,91.5 Z"/></g>
<g><path style="opacity:1" fill="#050505" d="M 307.5,107.5 C 307.973,108.906 308.973,109.573 310.5,109.5C 321.962,114.297 329.628,122.63 333.5,134.5C 333.66,136.153 334.326,137.486 335.5,138.5C 335.491,140.308 335.991,141.975 337,143.5C 336.921,160.577 337.921,177.577 340,194.5C 342.863,205.941 347.363,216.608 353.5,226.5C 353.427,228.027 354.094,229.027 355.5,229.5C 356.5,229.833 357.167,230.5 357.5,231.5C 357.427,233.027 358.094,234.027 359.5,234.5C 365.795,240.641 372.462,246.308 379.5,251.5C 379.821,253.048 380.821,253.715 382.5,253.5C 384.332,254.248 385.999,255.248 387.5,256.5C 387.973,257.906 388.973,258.573 390.5,258.5C 431.107,274.842 449.107,305.009 444.5,349C 445.38,365.501 443.713,381.668 439.5,397.5C 437.824,398.183 437.157,399.517 437.5,401.5C 427.159,425.183 409.159,439.017 383.5,443C 301.833,443.667 220.167,443.667 138.5,443C 135.746,442.728 133.079,442.228 130.5,441.5C 128.162,439.96 125.495,439.294 122.5,439.5C 105.002,434.259 92.0018,423.592 83.5,407.5C 83.7148,405.821 83.0481,404.821 81.5,404.5C 79.2478,399.744 77.5812,394.744 76.5,389.5C 76.5017,384.5 75.5017,379.833 73.5,375.5C 73.3334,349.831 73.5,324.165 74,298.5C 75.2218,287.733 79.3885,278.4 86.5,270.5C 88.2624,269.738 89.2624,268.404 89.5,266.5C 104.689,253.547 122.023,249.214 141.5,253.5C 141.611,254.117 141.944,254.617 142.5,255C 144.473,255.495 146.473,255.662 148.5,255.5C 149.833,255.833 151.167,256.167 152.5,256.5C 152.973,257.906 153.973,258.573 155.5,258.5C 162.623,261.291 168.623,265.625 173.5,271.5C 173.5,273.5 174.5,274.5 176.5,274.5C 182.849,280.862 186.849,288.529 188.5,297.5C 188.565,300.428 189.232,303.095 190.5,305.5C 191.732,321.681 192.899,338.014 194,354.5C 205.256,389.874 229.423,407.874 266.5,408.5C 269.85,408.665 273.183,408.498 276.5,408C 277.416,407.722 278.082,407.222 278.5,406.5C 309.68,396.471 327.847,375.138 333,342.5C 333.753,323.816 333.586,305.149 332.5,286.5C 332.889,283.447 332.223,280.78 330.5,278.5C 327.372,271.82 324.039,265.153 320.5,258.5C 320.573,256.973 319.906,255.973 318.5,255.5C 313.901,249.562 308.901,243.895 303.5,238.5C 303.027,237.094 302.027,236.427 300.5,236.5C 299.5,236.167 298.833,235.5 298.5,234.5C 298.027,233.094 297.027,232.427 295.5,232.5C 287.812,227.992 280.478,222.992 273.5,217.5C 272.738,215.738 271.404,214.738 269.5,214.5C 262.527,208.868 257.527,201.868 254.5,193.5C 254.771,191.62 254.104,190.287 252.5,189.5C 251.962,187.883 251.629,186.216 251.5,184.5C 251.562,179.924 250.895,175.591 249.5,171.5C 249.5,164.5 249.5,157.5 249.5,150.5C 250.222,150.082 250.722,149.416 251,148.5C 251.498,145.183 251.665,141.85 251.5,138.5C 252.686,131.79 255.686,126.123 260.5,121.5C 261.906,121.027 262.573,120.027 262.5,118.5C 275.217,106.048 290.217,102.382 307.5,107.5 Z M 158.5,314.5 C 159.585,316.587 161.251,317.92 163.5,318.5C 169.654,325.806 173.987,334.139 176.5,343.5C 176.858,346.689 177.525,349.689 178.5,352.5C 178.317,362.766 175.983,372.432 171.5,381.5C 170.11,382.899 169.11,384.566 168.5,386.5C 148.111,408.741 127.277,409.075 106,387.5C 103.653,384.806 101.82,381.806 100.5,378.5C 100.573,376.973 99.9063,375.973 98.5,375.5C 95.5882,364.645 94.9215,353.645 96.5,342.5C 97.5375,341.07 98.2041,339.403 98.5,337.5C 102.609,326.061 109.942,317.395 120.5,311.5C 122.153,311.34 123.486,310.674 124.5,309.5C 136.626,305.784 147.959,307.451 158.5,314.5 Z"/></g>
<g><path style="opacity:1" fill="#919191" d="M 307.5,107.5 C 309.027,107.427 310.027,108.094 310.5,109.5C 308.973,109.573 307.973,108.906 307.5,107.5 Z"/></g>
<g><path style="opacity:1" fill="#bfbfbf" d="M 229.5,113.5 C 229.573,115.027 228.906,116.027 227.5,116.5C 227.427,114.973 228.094,113.973 229.5,113.5 Z"/></g>
<g><path style="opacity:1" fill="#858585" d="M 82.5,118.5 C 84.4456,119.035 85.4456,120.368 85.5,122.5C 84.0256,121.564 83.0256,120.23 82.5,118.5 Z"/></g>
<g><path style="opacity:1" fill="#959595" d="M 262.5,118.5 C 262.573,120.027 261.906,121.027 260.5,121.5C 260.427,119.973 261.094,118.973 262.5,118.5 Z"/></g>
<g><path style="opacity:1" fill="#898989" d="M 359.5,120.5 C 361.104,121.287 361.771,122.62 361.5,124.5C 360.326,123.486 359.66,122.153 359.5,120.5 Z"/></g>
<g><path style="opacity:1" fill="#cfcccc" d="M 87.5,124.5 C 88.9063,124.973 89.573,125.973 89.5,127.5C 88.0937,127.027 87.427,126.027 87.5,124.5 Z"/></g>
<g><path style="opacity:1" fill="#9c9a9c" d="M 333.5,134.5 C 335.104,135.287 335.771,136.62 335.5,138.5C 334.326,137.486 333.66,136.153 333.5,134.5 Z"/></g>
<g><path style="opacity:1" fill="#4c4c4c" d="M 251.5,138.5 C 251.665,141.85 251.498,145.183 251,148.5C 250.722,149.416 250.222,150.082 249.5,150.5C 249.539,146.267 250.205,142.267 251.5,138.5 Z"/></g>
<g><path style="opacity:1" fill="#060606" d="M 77.5,151.5 C 79.9078,153.916 82.5744,155.916 85.5,157.5C 85.9731,158.906 86.9731,159.573 88.5,159.5C 93.5535,162.03 98.8869,163.863 104.5,165C 122.833,165.333 141.167,165.667 159.5,166C 175.65,168.338 188.317,176.171 197.5,189.5C 197.427,191.027 198.094,192.027 199.5,192.5C 202.593,196.347 204.926,200.68 206.5,205.5C 206.427,207.027 207.094,208.027 208.5,208.5C 213.682,215.498 219.349,222.165 225.5,228.5C 225.973,229.906 226.973,230.573 228.5,230.5C 232.034,233.097 235.7,235.43 239.5,237.5C 240.287,239.104 241.62,239.771 243.5,239.5C 246.833,240.833 250.167,242.167 253.5,243.5C 253.973,244.906 254.973,245.573 256.5,245.5C 292.825,255.114 309.825,278.781 307.5,316.5C 307.707,328.733 306.207,340.733 303,352.5C 291.526,375.984 273.026,384.484 247.5,378C 229.881,370.712 220.381,357.545 219,338.5C 218.924,315.468 218.258,292.468 217,269.5C 214.146,258.723 209.312,249.057 202.5,240.5C 201.415,238.413 199.749,237.08 197.5,236.5C 188.05,229.069 177.384,224.235 165.5,222C 144.833,221.667 124.167,221.333 103.5,221C 98.694,220.584 94.3607,219.084 90.5,216.5C 90.0269,215.094 89.0269,214.427 87.5,214.5C 87.0269,213.094 86.0269,212.427 84.5,212.5C 78.5034,206.88 75.17,199.88 74.5,191.5C 74.3334,177.829 74.5001,164.163 75,150.5C 75.6708,151.252 76.5041,151.586 77.5,151.5 Z"/></g>
<g><path style="opacity:1" fill="#b2b2b2" d="M 85.5,157.5 C 87.0269,157.427 88.0269,158.094 88.5,159.5C 86.9731,159.573 85.9731,158.906 85.5,157.5 Z"/></g>
<g><path style="opacity:1" fill="#454545" d="M 77.5,151.5 C 76.5041,151.586 75.6708,151.252 75,150.5C 74.5001,164.163 74.3334,177.829 74.5,191.5C 73.5042,177.677 73.1709,163.677 73.5,149.5C 75.3797,149.229 76.713,149.896 77.5,151.5 Z"/></g>
<g><path style="opacity:1" fill="#848484" d="M 249.5,171.5 C 250.895,175.591 251.562,179.924 251.5,184.5C 250.105,180.409 249.438,176.076 249.5,171.5 Z"/></g>
<g><path style="opacity:1" fill="#5d5b5d" d="M 367.5,184.5 C 369.265,187.123 369.932,190.123 369.5,193.5C 368.343,190.727 367.676,187.727 367.5,184.5 Z"/></g>
<g><path style="opacity:1" fill="#9d9d9d" d="M 197.5,189.5 C 198.906,189.973 199.573,190.973 199.5,192.5C 198.094,192.027 197.427,191.027 197.5,189.5 Z"/></g>
<g><path style="opacity:1" fill="#a4a4a4" d="M 252.5,189.5 C 254.104,190.287 254.771,191.62 254.5,193.5C 253.326,192.486 252.66,191.153 252.5,189.5 Z"/></g>
<g><path style="opacity:1" fill="#a7a7a7" d="M 206.5,205.5 C 207.906,205.973 208.573,206.973 208.5,208.5C 207.094,208.027 206.427,207.027 206.5,205.5 Z"/></g>
<g><path style="opacity:1" fill="#979797" d="M 84.5,212.5 C 86.0269,212.427 87.0269,213.094 87.5,214.5C 85.9731,214.573 84.9731,213.906 84.5,212.5 Z"/></g>
<g><path style="opacity:1" fill="#bababa" d="M 379.5,212.5 C 380.5,212.833 381.167,213.5 381.5,214.5C 380.167,214.5 379.5,213.833 379.5,212.5 Z"/></g>
<g><path style="opacity:1" fill="#909090" d="M 269.5,214.5 C 271.404,214.738 272.738,215.738 273.5,217.5C 271.596,217.262 270.262,216.262 269.5,214.5 Z"/></g>
<g><path style="opacity:1" fill="#888686" d="M 87.5,214.5 C 89.0269,214.427 90.0269,215.094 90.5,216.5C 88.9731,216.573 87.9731,215.906 87.5,214.5 Z"/></g>
<g><path style="opacity:1" fill="#888888" d="M 353.5,226.5 C 354.906,226.973 355.573,227.973 355.5,229.5C 354.094,229.027 353.427,228.027 353.5,226.5 Z"/></g>
<g><path style="opacity:1" fill="#a8a8a8" d="M 225.5,228.5 C 227.027,228.427 228.027,229.094 228.5,230.5C 226.973,230.573 225.973,229.906 225.5,228.5 Z"/></g>
<g><path style="opacity:1" fill="#8d8d8d" d="M 357.5,231.5 C 358.906,231.973 359.573,232.973 359.5,234.5C 358.094,234.027 357.427,233.027 357.5,231.5 Z"/></g>
<g><path style="opacity:1" fill="#888888" d="M 295.5,232.5 C 297.027,232.427 298.027,233.094 298.5,234.5C 296.973,234.573 295.973,233.906 295.5,232.5 Z"/></g>
<g><path style="opacity:1" fill="#959595" d="M 197.5,236.5 C 199.749,237.08 201.415,238.413 202.5,240.5C 200.251,239.92 198.585,238.587 197.5,236.5 Z"/></g>
<g><path style="opacity:1" fill="#7f7d7f" d="M 300.5,236.5 C 302.027,236.427 303.027,237.094 303.5,238.5C 301.973,238.573 300.973,237.906 300.5,236.5 Z"/></g>
<g><path style="opacity:1" fill="#afafaf" d="M 239.5,237.5 C 241.153,237.66 242.486,238.326 243.5,239.5C 241.62,239.771 240.287,239.104 239.5,237.5 Z"/></g>
<g><path style="opacity:1" fill="#929292" d="M 253.5,243.5 C 255.027,243.427 256.027,244.094 256.5,245.5C 254.973,245.573 253.973,244.906 253.5,243.5 Z"/></g>
<g><path style="opacity:1" fill="#969696" d="M 379.5,251.5 C 380.71,251.932 381.71,252.599 382.5,253.5C 380.821,253.715 379.821,253.048 379.5,251.5 Z"/></g>
<g><path style="opacity:1" fill="#585858" d="M 141.5,253.5 C 144.067,253.721 146.401,254.388 148.5,255.5C 146.473,255.662 144.473,255.495 142.5,255C 141.944,254.617 141.611,254.117 141.5,253.5 Z"/></g>
<g><path style="opacity:1" fill="#cbcbcb" d="M 318.5,255.5 C 319.906,255.973 320.573,256.973 320.5,258.5C 319.094,258.027 318.427,257.027 318.5,255.5 Z"/></g>
<g><path style="opacity:1" fill="#b3b3b3" d="M 152.5,256.5 C 154.027,256.427 155.027,257.094 155.5,258.5C 153.973,258.573 152.973,257.906 152.5,256.5 Z"/></g>
<g><path style="opacity:1" fill="#ababab" d="M 387.5,256.5 C 389.027,256.427 390.027,257.094 390.5,258.5C 388.973,258.573 387.973,257.906 387.5,256.5 Z"/></g>
<g><path style="opacity:1" fill="#a7a7a7" d="M 89.5,266.5 C 89.2624,268.404 88.2624,269.738 86.5,270.5C 86.7376,268.596 87.7376,267.262 89.5,266.5 Z"/></g>
<g><path style="opacity:1" fill="#7d7d7d" d="M 173.5,271.5 C 174.833,272.167 175.833,273.167 176.5,274.5C 174.5,274.5 173.5,273.5 173.5,271.5 Z"/></g>
<g><path style="opacity:1" fill="#595858" d="M 330.5,278.5 C 332.223,280.78 332.889,283.447 332.5,286.5C 331.469,284.039 330.802,281.373 330.5,278.5 Z"/></g>
<g><path style="opacity:1" fill="#6c6a6a" d="M 188.5,297.5 C 190.223,299.78 190.889,302.447 190.5,305.5C 189.232,303.095 188.565,300.428 188.5,297.5 Z"/></g>
<g><path style="opacity:1" fill="#c0c0c0" d="M 124.5,309.5 C 123.486,310.674 122.153,311.34 120.5,311.5C 121.287,309.896 122.62,309.229 124.5,309.5 Z"/></g>
<g><path style="opacity:1" fill="#878787" d="M 158.5,314.5 C 160.749,315.08 162.415,316.413 163.5,318.5C 161.251,317.92 159.585,316.587 158.5,314.5 Z"/></g>
<g><path style="opacity:1" fill="#968095" d="M 98.5,337.5 C 98.2041,339.403 97.5375,341.07 96.5,342.5C 96.1201,340.302 96.7868,338.635 98.5,337.5 Z"/></g>
<g><path style="opacity:1" fill="#757474" d="M 176.5,343.5 C 178.265,346.123 178.932,349.123 178.5,352.5C 177.525,349.689 176.858,346.689 176.5,343.5 Z"/></g>
<g><path style="opacity:1" fill="#a4a4a4" d="M 98.5,375.5 C 99.9063,375.973 100.573,376.973 100.5,378.5C 99.0937,378.027 98.427,377.027 98.5,375.5 Z"/></g>
<g><path style="opacity:1" fill="#8d8d8d" d="M 73.5,375.5 C 75.5017,379.833 76.5017,384.5 76.5,389.5C 75.0099,385.058 74.0099,380.391 73.5,375.5 Z"/></g>
<g><path style="opacity:1" fill="#686868" d="M 171.5,381.5 C 171.759,383.989 170.759,385.656 168.5,386.5C 169.11,384.566 170.11,382.899 171.5,381.5 Z"/></g>
<g><path style="opacity:1" fill="#898989" d="M 439.5,397.5 C 439.011,398.995 438.345,400.329 437.5,401.5C 437.157,399.517 437.824,398.183 439.5,397.5 Z"/></g>
<g><path style="opacity:1" fill="#7b7b7b" d="M 81.5,404.5 C 83.0481,404.821 83.7148,405.821 83.5,407.5C 82.5987,406.71 81.9321,405.71 81.5,404.5 Z"/></g>
<g><path style="opacity:1" fill="#817e7e" d="M 278.5,406.5 C 278.082,407.222 277.416,407.722 276.5,408C 273.183,408.498 269.85,408.665 266.5,408.5C 270.336,407.622 274.336,406.956 278.5,406.5 Z"/></g>
<g><path style="opacity:1" fill="#939393" d="M 122.5,439.5 C 125.495,439.294 128.162,439.96 130.5,441.5C 127.572,441.435 124.905,440.768 122.5,439.5 Z"/></g>
</svg>
