<svg xmlns="http://www.w3.org/2000/svg" xmlns:xlink="http://www.w3.org/1999/xlink" width="2000" zoomAndPan="magnify" viewBox="354 550 816 300" height="2000" preserveAspectRatio="xMidYMid meet" version="1.0"><defs><g/><clipPath id="bb6ff1f0f4"><rect x="0" width="181" y="0" height="375"/></clipPath><clipPath id="0082339c8b"><path d="M 0.761719 105 L 237 105 L 237 360 L 0.761719 360 Z M 0.761719 105 " clip-rule="nonzero"/></clipPath><clipPath id="02349b832f"><rect x="0" width="241" y="0" height="375"/></clipPath><clipPath id="acd049b65e"><rect x="0" width="99" y="0" height="383"/></clipPath><clipPath id="1a8556c51c"><rect x="0" width="151" y="0" height="375"/></clipPath><clipPath id="27743283bc"><rect x="0" width="173" y="0" height="375"/></clipPath><clipPath id="bfa9973944"><rect x="0" width="226" y="0" height="375"/></clipPath><clipPath id="7bc24748f0"><rect x="0" width="114" y="0" height="375"/></clipPath></defs><g transform="matrix(1, 0, 0, 1, 374, 548)"><g clip-path="url(#bb6ff1f0f4)"><g fill="#000000" fill-opacity="1"><g transform="translate(0.587706, 269.508322)"><g><path d="M 171.640625 -246.476562 L 171.640625 -185.972656 L 74.09375 -185.972656 L 74.09375 -197.179688 L 85.296875 -197.179688 L 85.296875 -148.183594 L 74.09375 -148.183594 L 74.09375 -159.390625 L 165.066406 -159.390625 L 165.066406 -87.683594 L 74.09375 -87.683594 L 74.09375 -98.890625 L 85.296875 -98.890625 L 85.296875 11.207031 L 6.71875 11.207031 L 6.71875 -257.679688 L 171.640625 -257.679688 Z M 149.226562 -246.476562 L 160.433594 -246.476562 L 160.433594 -235.269531 L 17.925781 -235.269531 L 17.925781 -246.476562 L 29.132812 -246.476562 L 29.132812 0 L 17.925781 0 L 17.925781 -11.207031 L 74.09375 -11.207031 L 74.09375 0 L 62.886719 0 L 62.886719 -110.09375 L 153.859375 -110.09375 L 153.859375 -98.890625 L 142.65625 -98.890625 L 142.65625 -148.183594 L 153.859375 -148.183594 L 153.859375 -136.976562 L 62.886719 -136.976562 L 62.886719 -208.386719 L 160.433594 -208.386719 L 160.433594 -197.179688 L 149.226562 -197.179688 Z M 149.226562 -246.476562 "/></g></g></g><g fill="#e8cda9" fill-opacity="1"><g transform="translate(0.587706, 269.508322)"><g><path d="M 160.4375 -246.484375 L 160.4375 -197.1875 L 74.09375 -197.1875 L 74.09375 -148.1875 L 153.859375 -148.1875 L 153.859375 -98.890625 L 74.09375 -98.890625 L 74.09375 0 L 17.921875 0 L 17.921875 -246.484375 Z M 160.4375 -246.484375 "/></g></g></g></g></g><g transform="matrix(1, 0, 0, 1, 455, 577)"><g clip-path="url(#02349b832f)"><g clip-path="url(#0082339c8b)"><g fill="#000000" fill-opacity="1"><g transform="translate(23.358225, 270.014022)"><g><path d="M 134.140625 -164.46875 L 213.570312 -164.46875 L 81.484375 88.882812 L -4.722656 88.882812 L 56.683594 -29.074219 L 66.621094 -23.902344 L 56.851562 -18.417969 L -25.113281 -164.46875 L 61.632812 -164.46875 L 107.539062 -80.042969 L 97.695312 -74.691406 L 87.527344 -79.40625 L 126.988281 -164.46875 Z M 134.140625 -142.058594 L 134.140625 -153.261719 L 144.308594 -148.546875 L 98.488281 -49.769531 L 45.125 -147.910156 L 54.972656 -153.261719 L 54.972656 -142.058594 L -5.976562 -142.058594 L -5.976562 -153.261719 L 3.796875 -158.746094 L 79.359375 -24.101562 L 23.683594 82.851562 L 13.742188 77.675781 L 13.742188 66.472656 L 74.691406 66.472656 L 74.691406 77.675781 L 64.753906 72.496094 L 185.152344 -158.441406 L 195.089844 -153.261719 L 195.089844 -142.058594 Z M 134.140625 -142.058594 "/></g></g></g></g><g fill="#e8cda9" fill-opacity="1"><g transform="translate(23.358225, 270.014022)"><g><path d="M 134.140625 -153.265625 L 195.09375 -153.265625 L 74.6875 77.671875 L 13.75 77.671875 L 66.625 -23.90625 L -5.96875 -153.265625 L 54.96875 -153.265625 L 97.703125 -74.6875 Z M 134.140625 -153.265625 "/></g></g></g></g></g><g transform="matrix(1, 0, 0, 1, 619, 540)"><g clip-path="url(#acd049b65e)"><g fill="#000000" fill-opacity="1"><g transform="translate(0.939609, 277.508322)"><g><path d="M 6.71875 -268.136719 L 82.011719 -268.136719 L 82.011719 11.207031 L 6.71875 11.207031 Z M 29.132812 -245.726562 L 29.132812 -11.207031 L 59.601562 -11.207031 L 59.601562 -245.726562 Z M 29.132812 -245.726562 "/></g></g></g><g fill="#e8cda9" fill-opacity="1"><g transform="translate(0.939609, 277.508322)"><g><path d="M 17.921875 0 L 17.921875 -256.9375 L 70.8125 -256.9375 L 70.8125 0 Z M 17.921875 0 "/></g></g></g></g></g><g transform="matrix(1, 0, 0, 1, 649, 548)"><g clip-path="url(#1a8556c51c)"><g fill="#000000" fill-opacity="1"><g transform="translate(15.715718, 269.508322)"><g><path d="M 15.683594 -153.261719 L 15.683594 -221.53125 L 90.972656 -221.53125 L 90.972656 -153.261719 L 79.769531 -153.261719 L 79.769531 -164.46875 L 123.238281 -164.46875 L 123.238281 -101.726562 L 79.769531 -101.726562 L 79.769531 -112.929688 L 90.972656 -112.929688 L 90.972656 -64.234375 C 90.972656 -59.121094 91.488281 -55.652344 92.519531 -53.824219 C 92.574219 -53.726562 92.601562 -53.679688 92.605469 -53.675781 C 92.5 -53.785156 92.363281 -53.890625 92.195312 -53.992188 C 92.019531 -54.097656 91.84375 -54.171875 91.671875 -54.214844 L 91.71875 -54.226562 C 92.394531 -54.226562 93.210938 -54.402344 94.164062 -54.746094 C 95.511719 -55.238281 96.40625 -55.632812 96.855469 -55.929688 L 111.152344 -65.460938 L 131.378906 0.265625 L 123.496094 4.691406 C 110.4375 12.023438 95.664062 15.6875 79.171875 15.6875 C 67.492188 15.6875 57.296875 13.570312 48.578125 9.332031 C 39.484375 4.910156 32.523438 -1.144531 27.703125 -8.835938 C 23.378906 -15.726562 20.277344 -22.992188 18.398438 -30.632812 C 16.585938 -37.984375 15.683594 -45.800781 15.683594 -54.074219 L 15.683594 -112.929688 L 26.886719 -112.929688 L 26.886719 -101.726562 L -6.425781 -101.726562 L -6.425781 -164.46875 L 26.886719 -164.46875 L 26.886719 -153.261719 Z M 38.09375 -142.058594 L 4.78125 -142.058594 L 4.78125 -153.261719 L 15.984375 -153.261719 L 15.984375 -112.929688 L 4.78125 -112.929688 L 4.78125 -124.136719 L 38.09375 -124.136719 L 38.09375 -54.074219 C 38.09375 -47.613281 38.78125 -41.582031 40.160156 -35.988281 C 41.464844 -30.683594 43.640625 -25.601562 46.6875 -20.742188 C 49.234375 -16.679688 53.132812 -13.375 58.375 -10.824219 C 64 -8.089844 70.933594 -6.722656 79.171875 -6.722656 C 91.757812 -6.722656 102.875 -9.433594 112.523438 -14.851562 L 118.007812 -5.078125 L 107.300781 -1.785156 L 94.152344 -44.503906 L 104.863281 -47.800781 L 111.078125 -38.476562 L 109.289062 -37.28125 C 107.34375 -35.988281 104.855469 -34.789062 101.820312 -33.683594 C 98.394531 -32.4375 95.027344 -31.816406 91.71875 -31.816406 C 87.683594 -31.816406 84.039062 -32.777344 80.785156 -34.703125 C 77.566406 -36.605469 74.972656 -39.3125 72.992188 -42.824219 C 70.039062 -48.066406 68.5625 -55.203125 68.5625 -64.234375 L 68.5625 -124.136719 L 112.035156 -124.136719 L 112.035156 -112.929688 L 100.828125 -112.929688 L 100.828125 -153.261719 L 112.035156 -153.261719 L 112.035156 -142.058594 L 68.5625 -142.058594 L 68.5625 -210.324219 L 79.769531 -210.324219 L 79.769531 -199.121094 L 26.886719 -199.121094 L 26.886719 -210.324219 L 38.09375 -210.324219 Z M 38.09375 -142.058594 "/></g></g></g><g fill="#e8cda9" fill-opacity="1"><g transform="translate(15.715718, 269.508322)"><g><path d="M 26.890625 -153.265625 L 26.890625 -210.328125 L 79.765625 -210.328125 L 79.765625 -153.265625 L 112.03125 -153.265625 L 112.03125 -112.9375 L 79.765625 -112.9375 L 79.765625 -64.234375 C 79.765625 -50.085938 83.75 -43.015625 91.71875 -43.015625 C 93.707031 -43.015625 95.796875 -43.410156 97.984375 -44.203125 C 100.179688 -45.003906 101.878906 -45.804688 103.078125 -46.609375 L 104.859375 -47.796875 L 118.015625 -5.078125 C 106.660156 1.296875 93.710938 4.484375 79.171875 4.484375 C 69.210938 4.484375 60.644531 2.742188 53.46875 -0.734375 C 46.300781 -4.222656 40.875 -8.90625 37.1875 -14.78125 C 33.507812 -20.664062 30.875 -26.84375 29.28125 -33.3125 C 27.6875 -39.78125 26.890625 -46.703125 26.890625 -54.078125 L 26.890625 -112.9375 L 4.78125 -112.9375 L 4.78125 -153.265625 Z M 26.890625 -153.265625 "/></g></g></g></g></g><g transform="matrix(1, 0, 0, 1, 756, 548)"><g clip-path="url(#27743283bc)"><g fill="#000000" fill-opacity="1"><g transform="translate(0.755535, 269.508322)"><g><path d="M 6.71875 0 L 6.71875 -164.46875 L 82.011719 -164.46875 L 82.011719 -131.15625 L 70.804688 -131.15625 L 70.804688 -142.359375 L 71.402344 -142.359375 L 71.402344 -131.15625 L 61.378906 -136.167969 C 62.078125 -137.566406 63.078125 -139.132812 64.378906 -140.867188 C 65.59375 -142.484375 67.882812 -144.976562 71.246094 -148.339844 C 74.6875 -151.78125 78.359375 -154.878906 82.269531 -157.636719 C 86.503906 -160.625 91.800781 -163.238281 98.15625 -165.476562 C 104.738281 -167.792969 111.457031 -168.949219 118.308594 -168.949219 C 125.128906 -168.949219 131.832031 -168.007812 138.414062 -166.128906 C 144.980469 -164.253906 149.996094 -162.25 153.460938 -160.117188 L 147.585938 -150.574219 L 153.144531 -160.304688 L 166.484375 -152.683594 L 133.359375 -85.535156 L 122.410156 -94.824219 C 117.929688 -98.628906 111.183594 -100.53125 102.175781 -100.53125 C 97.898438 -100.53125 94.363281 -99.679688 91.570312 -97.980469 C 88.894531 -96.351562 87.089844 -94.554688 86.15625 -92.585938 C 84.527344 -89.164062 83.402344 -86.351562 82.773438 -84.160156 C 82.265625 -82.375 82.011719 -81.210938 82.011719 -80.664062 L 82.011719 11.207031 L 6.71875 11.207031 Z M 29.132812 0 L 17.925781 0 L 17.925781 -11.207031 L 70.804688 -11.207031 L 70.804688 0 L 59.601562 0 L 59.601562 -80.664062 C 59.601562 -83.304688 60.140625 -86.519531 61.226562 -90.316406 C 62.191406 -93.699219 63.753906 -97.660156 65.910156 -102.203125 C 68.761719 -108.203125 73.429688 -113.175781 79.917969 -117.125 C 86.289062 -121.003906 93.707031 -122.941406 102.175781 -122.941406 C 116.667969 -122.941406 128.246094 -119.265625 136.910156 -111.914062 L 129.660156 -103.371094 L 119.613281 -108.328125 L 141.71875 -153.140625 L 151.769531 -148.183594 L 146.210938 -138.453125 L 141.867188 -140.933594 L 141.714844 -141.03125 C 140 -142.085938 136.847656 -143.269531 132.257812 -144.578125 C 127.6875 -145.886719 123.039062 -146.539062 118.308594 -146.539062 C 114.007812 -146.539062 109.769531 -145.804688 105.597656 -144.335938 C 101.199219 -142.789062 97.730469 -141.117188 95.191406 -139.328125 C 92.328125 -137.304688 89.628906 -135.027344 87.09375 -132.492188 C 84.480469 -129.878906 82.886719 -128.1875 82.308594 -127.417969 C 81.816406 -126.761719 81.523438 -126.335938 81.425781 -126.144531 L 78.328125 -119.949219 L 59.601562 -119.949219 L 59.601562 -153.261719 L 70.804688 -153.261719 L 70.804688 -142.058594 L 17.925781 -142.058594 L 17.925781 -153.261719 L 29.132812 -153.261719 Z M 29.132812 0 "/></g></g></g><g fill="#e8cda9" fill-opacity="1"><g transform="translate(0.755535, 269.508322)"><g><path d="M 17.921875 0 L 17.921875 -153.265625 L 70.8125 -153.265625 L 70.8125 -131.15625 L 71.40625 -131.15625 C 71.800781 -131.957031 72.445312 -132.953125 73.34375 -134.140625 C 74.238281 -135.335938 76.179688 -137.429688 79.171875 -140.421875 C 82.160156 -143.410156 85.347656 -146.097656 88.734375 -148.484375 C 92.117188 -150.878906 96.5 -153.019531 101.875 -154.90625 C 107.257812 -156.800781 112.738281 -157.75 118.3125 -157.75 C 124.082031 -157.75 129.753906 -156.953125 135.328125 -155.359375 C 140.910156 -153.765625 145 -152.171875 147.59375 -150.578125 L 151.765625 -148.1875 L 129.671875 -103.375 C 123.097656 -108.945312 113.929688 -111.734375 102.171875 -111.734375 C 95.804688 -111.734375 90.332031 -110.335938 85.75 -107.546875 C 81.164062 -104.765625 77.925781 -101.378906 76.03125 -97.390625 C 74.144531 -93.410156 72.800781 -90.023438 72 -87.234375 C 71.207031 -84.453125 70.8125 -82.265625 70.8125 -80.671875 L 70.8125 0 Z M 17.921875 0 "/></g></g></g></g></g><g transform="matrix(1, 0, 0, 1, 836, 548)"><g clip-path="url(#bfa9973944)"><g fill="#000000" fill-opacity="1"><g transform="translate(15.49248, 269.508322)"><g><path d="M 20.125 -11.398438 C 3.816406 -29.175781 -4.335938 -50.871094 -4.335938 -76.480469 C -4.335938 -102.082031 3.808594 -123.816406 20.101562 -141.691406 C 36.664062 -159.863281 57.648438 -168.949219 83.054688 -168.949219 C 106.398438 -168.949219 125.726562 -161.523438 141.046875 -146.667969 L 133.246094 -138.625 L 122.039062 -138.625 L 122.039062 -164.46875 L 197.332031 -164.46875 L 197.332031 11.207031 L 122.636719 11.207031 L 122.636719 -17.328125 L 133.84375 -17.328125 L 133.84375 -6.121094 L 133.246094 -6.121094 L 133.246094 -17.328125 L 141.558594 -9.8125 C 126.1875 7.1875 106.6875 15.6875 83.054688 15.6875 C 57.660156 15.6875 36.683594 6.660156 20.125 -11.398438 Z M 36.640625 -26.546875 C 48.761719 -13.332031 64.230469 -6.722656 83.054688 -6.722656 C 100.054688 -6.722656 114.011719 -12.765625 124.933594 -24.84375 L 128.269531 -28.535156 L 145.050781 -28.535156 L 145.050781 0 L 133.84375 0 L 133.84375 -11.207031 L 186.125 -11.207031 L 186.125 0 L 174.921875 0 L 174.921875 -153.261719 L 186.125 -153.261719 L 186.125 -142.058594 L 133.246094 -142.058594 L 133.246094 -153.261719 L 144.453125 -153.261719 L 144.453125 -112.148438 L 125.445312 -130.578125 C 114.472656 -141.21875 100.34375 -146.539062 83.054688 -146.539062 C 64.246094 -146.539062 48.78125 -139.890625 36.664062 -126.59375 C 24.273438 -113 18.078125 -96.292969 18.078125 -76.480469 C 18.078125 -56.683594 24.265625 -40.039062 36.640625 -26.546875 Z M 81.210938 -94.492188 C 76.566406 -89.914062 74.242188 -83.910156 74.242188 -76.480469 C 74.242188 -68.988281 76.457031 -62.996094 80.878906 -58.503906 C 85.257812 -54.058594 91.261719 -51.835938 98.890625 -51.835938 C 106.117188 -51.835938 111.972656 -54.109375 116.449219 -58.652344 C 120.972656 -63.246094 123.234375 -69.1875 123.234375 -76.480469 C 123.234375 -83.910156 120.914062 -89.914062 116.269531 -94.492188 C 111.578125 -99.113281 105.785156 -101.425781 98.890625 -101.425781 C 91.792969 -101.425781 85.902344 -99.113281 81.210938 -94.492188 Z M 65.480469 -110.457031 C 74.53125 -119.375 85.667969 -123.835938 98.890625 -123.835938 C 111.910156 -123.835938 122.945312 -119.375 132 -110.457031 C 141.097656 -101.488281 145.648438 -90.164062 145.648438 -76.480469 C 145.648438 -63.0625 141.234375 -51.878906 132.414062 -42.925781 C 123.546875 -33.925781 112.371094 -29.425781 98.890625 -29.425781 C 85.007812 -29.425781 73.679688 -33.875 64.914062 -42.777344 C 56.191406 -51.628906 51.832031 -62.863281 51.832031 -76.480469 C 51.832031 -90.164062 56.382812 -101.488281 65.480469 -110.457031 Z M 65.480469 -110.457031 "/></g></g></g><g fill="#e8cda9" fill-opacity="1"><g transform="translate(15.49248, 269.508322)"><g><path d="M 28.375 -18.96875 C 14.039062 -34.601562 6.875 -53.773438 6.875 -76.484375 C 6.875 -99.191406 14.039062 -118.410156 28.375 -134.140625 C 42.71875 -149.878906 60.945312 -157.75 83.0625 -157.75 C 103.375 -157.75 120.101562 -151.375 133.25 -138.625 L 133.25 -153.265625 L 186.125 -153.265625 L 186.125 0 L 133.84375 0 L 133.84375 -17.328125 L 133.25 -17.328125 C 120.101562 -2.785156 103.375 4.484375 83.0625 4.484375 C 60.945312 4.484375 42.71875 -3.332031 28.375 -18.96875 Z M 73.34375 -102.46875 C 66.476562 -95.695312 63.046875 -87.035156 63.046875 -76.484375 C 63.046875 -65.929688 66.332031 -57.316406 72.90625 -50.640625 C 79.476562 -43.960938 88.140625 -40.625 98.890625 -40.625 C 109.242188 -40.625 117.753906 -44.007812 124.421875 -50.78125 C 131.097656 -57.5625 134.4375 -66.128906 134.4375 -76.484375 C 134.4375 -87.035156 131 -95.695312 124.125 -102.46875 C 117.257812 -109.25 108.847656 -112.640625 98.890625 -112.640625 C 88.734375 -112.640625 80.21875 -109.25 73.34375 -102.46875 Z M 73.34375 -102.46875 "/></g></g></g></g></g><g transform="matrix(1, 0, 0, 1, 1036, 548)"><g clip-path="url(#7bc24748f0)"><g fill="#000000" fill-opacity="1"><g transform="translate(0.776741, 269.508322)"><g><path d="M 51.984375 -75.140625 C 64.636719 -75.140625 75.394531 -70.710938 84.257812 -61.847656 C 93.117188 -52.988281 97.546875 -42.230469 97.546875 -29.578125 C 97.546875 -17.121094 93.117188 -6.464844 84.257812 2.398438 C 75.394531 11.257812 64.636719 15.6875 51.984375 15.6875 C 39.527344 15.6875 28.871094 11.257812 20.011719 2.398438 C 11.148438 -6.464844 6.71875 -17.121094 6.71875 -29.578125 C 6.71875 -42.230469 11.148438 -52.988281 20.011719 -61.847656 C 28.871094 -70.710938 39.527344 -75.140625 51.984375 -75.140625 Z M 51.984375 -52.726562 C 45.71875 -52.726562 40.339844 -50.484375 35.859375 -46.003906 C 31.375 -41.519531 29.132812 -36.042969 29.132812 -29.578125 C 29.132812 -23.308594 31.375 -17.933594 35.859375 -13.449219 C 40.339844 -8.964844 45.71875 -6.722656 51.984375 -6.722656 C 58.449219 -6.722656 63.925781 -8.964844 68.410156 -13.449219 C 72.894531 -17.933594 75.136719 -23.308594 75.136719 -29.578125 C 75.136719 -36.042969 72.894531 -41.519531 68.410156 -46.003906 C 63.925781 -50.484375 58.449219 -52.726562 51.984375 -52.726562 Z M 51.984375 -52.726562 "/></g></g></g><g fill="#e8cda9" fill-opacity="1"><g transform="translate(0.776741, 269.508322)"><g><path d="M 51.984375 -63.9375 C 61.546875 -63.9375 69.660156 -60.597656 76.328125 -53.921875 C 83.003906 -47.253906 86.34375 -39.140625 86.34375 -29.578125 C 86.34375 -20.210938 83.003906 -12.191406 76.328125 -5.515625 C 69.660156 1.148438 61.546875 4.484375 51.984375 4.484375 C 42.617188 4.484375 34.597656 1.148438 27.921875 -5.515625 C 21.253906 -12.191406 17.921875 -20.210938 17.921875 -29.578125 C 17.921875 -39.140625 21.253906 -47.253906 27.921875 -53.921875 C 34.597656 -60.597656 42.617188 -63.9375 51.984375 -63.9375 Z M 51.984375 -63.9375 "/></g></g></g></g></g></svg>