<?xml version="1.0" encoding="UTF-8"?>
<!DOCTYPE svg PUBLIC "-//W3C//DTD SVG 1.1//EN" "http://www.w3.org/Graphics/SVG/1.1/DTD/svg11.dtd">
<svg xmlns="http://www.w3.org/2000/svg" version="1.1" width="500px" height="500px" style="shape-rendering:geometricPrecision; text-rendering:geometricPrecision; image-rendering:optimizeQuality; fill-rule:evenodd; clip-rule:evenodd" xmlns:xlink="http://www.w3.org/1999/xlink">
<g><path style="opacity:1" fill="#211915" d="M 394.5,51.5 C 397.829,51.2153 400.829,51.8819 403.5,53.5C 400.273,53.3239 397.273,52.6572 394.5,51.5 Z"/></g>
<g><path style="opacity:1" fill="#e3cab7" d="M 394.5,51.5 C 397.273,52.6572 400.273,53.3239 403.5,53.5C 405.599,54.6118 407.933,55.2785 410.5,55.5C 412.509,57.0652 414.843,58.0652 417.5,58.5C 419.153,58.6596 420.486,59.3263 421.5,60.5C 421.973,61.9063 422.973,62.573 424.5,62.5C 428.24,64.6331 431.574,67.2997 434.5,70.5C 435.08,72.7488 436.413,74.4154 438.5,75.5C 438.738,77.4044 439.738,78.7377 441.5,79.5C 441.427,81.0269 442.094,82.0269 443.5,82.5C 443.427,84.0269 444.094,85.0269 445.5,85.5C 446.338,85.8417 446.672,86.5084 446.5,87.5C 446.12,89.698 446.787,91.3646 448.5,92.5C 449.404,93.209 449.737,94.209 449.5,95.5C 449.402,97.5529 450.069,99.2196 451.5,100.5C 452.301,102.042 452.634,103.708 452.5,105.5C 453.443,139.486 453.776,173.486 453.5,207.5C 453.5,210.167 453.5,212.833 453.5,215.5C 453.741,217.898 453.074,219.898 451.5,221.5C 450.326,222.514 449.66,223.847 449.5,225.5C 447.167,227.167 445.167,229.167 443.5,231.5C 441.142,233.129 438.476,234.295 435.5,235C 430.648,235.815 425.981,235.648 421.5,234.5C 419.162,232.96 416.495,232.294 413.5,232.5C 412.508,232.672 411.842,232.338 411.5,231.5C 410.365,229.787 408.698,229.12 406.5,229.5C 406.027,228.094 405.027,227.427 403.5,227.5C 403.027,226.094 402.027,225.427 400.5,225.5C 400.167,224.5 399.5,223.833 398.5,223.5C 396.596,223.262 395.262,222.262 394.5,220.5C 392.833,218.167 390.833,216.167 388.5,214.5C 386.738,213.738 385.738,212.404 385.5,210.5C 385.167,209.5 384.5,208.833 383.5,208.5C 381.44,205.76 379.774,202.76 378.5,199.5C 378.33,198.178 378.663,197.011 379.5,196C 378.309,195.302 377.309,194.469 376.5,193.5C 375.076,191.485 374.41,189.152 374.5,186.5C 373.781,172.85 373.281,159.184 373,145.5C 372.769,139.832 371.602,134.499 369.5,129.5C 369.585,126.351 368.585,123.684 366.5,121.5C 366.206,118.246 364.873,115.579 362.5,113.5C 361.263,112.035 360.263,110.368 359.5,108.5C 359.573,106.973 358.906,105.973 357.5,105.5C 356.094,105.027 355.427,104.027 355.5,102.5C 355.167,101.5 354.5,100.833 353.5,100.5C 353.167,99.5 352.5,98.8333 351.5,98.5C 350.167,97.8333 349.167,96.8333 348.5,95.5C 348.167,94.5 347.5,93.8333 346.5,93.5C 345.738,91.7376 344.404,90.7376 342.5,90.5C 341.738,88.7376 340.404,87.7376 338.5,87.5C 338.027,86.0937 337.027,85.427 335.5,85.5C 335.167,85.5 334.833,85.5 334.5,85.5C 334.027,84.0937 333.027,83.427 331.5,83.5C 329.597,83.2041 327.93,82.5375 326.5,81.5C 324.491,79.9348 322.157,78.9348 319.5,78.5C 319.167,78.5 318.833,78.5 318.5,78.5C 316.095,77.2318 313.428,76.5651 310.5,76.5C 302.5,76.5 294.5,76.5 286.5,76.5C 283.505,76.2938 280.838,76.9605 278.5,78.5C 278.167,78.5 277.833,78.5 277.5,78.5C 275.597,78.7959 273.93,79.4625 272.5,80.5C 269.759,80.7073 267.426,81.7073 265.5,83.5C 265.167,83.5 264.833,83.5 264.5,83.5C 263.29,83.9321 262.29,84.5987 261.5,85.5C 259.973,85.427 258.973,86.0937 258.5,87.5C 256.973,87.427 255.973,88.0937 255.5,89.5C 253.973,89.427 252.973,90.0937 252.5,91.5C 252.027,92.9063 251.027,93.573 249.5,93.5C 248.167,94.1667 247.167,95.1667 246.5,96.5C 246.167,97.5 245.5,98.1667 244.5,98.5C 243.5,98.8333 242.833,99.5 242.5,100.5C 241.5,100.833 240.833,101.5 240.5,102.5C 236.354,101.657 235.02,103.324 236.5,107.5C 236.5,108.167 236.167,108.5 235.5,108.5C 233.138,109.796 230.805,111.13 228.5,112.5C 228.957,113.298 229.624,113.631 230.5,113.5C 230.167,114.167 229.833,114.833 229.5,115.5C 228.5,115.833 227.833,116.5 227.5,117.5C 226.5,117.833 225.833,118.5 225.5,119.5C 224.008,122.323 221.674,123.99 218.5,124.5C 216.77,125.026 215.436,126.026 214.5,127.5C 211.759,127.707 209.426,128.707 207.5,130.5C 202.006,131.674 196.673,133.007 191.5,134.5C 164.863,135.825 138.196,135.825 111.5,134.5C 107.383,132.796 103.049,131.463 98.5,130.5C 97.5084,130.672 96.8417,130.338 96.5,129.5C 95.7377,127.738 94.4044,126.738 92.5,126.5C 92.0269,125.094 91.0269,124.427 89.5,124.5C 81.4152,118.006 78.0819,109.673 79.5,99.5C 80.9238,97.4855 81.5905,95.1522 81.5,92.5C 81.9802,89.5568 82.9802,86.8902 84.5,84.5C 85.9063,84.0269 86.573,83.0269 86.5,81.5C 87.9063,81.0269 88.573,80.0269 88.5,78.5C 90.5869,77.4154 91.9202,75.7488 92.5,73.5C 93.5,73.1667 94.1667,72.5 94.5,71.5C 95.5,71.1667 96.1667,70.5 96.5,69.5C 99.0892,68.5806 101.089,66.914 102.5,64.5C 104.027,64.573 105.027,63.9063 105.5,62.5C 107.027,62.573 108.027,61.9063 108.5,60.5C 108.833,60.5 109.167,60.5 109.5,60.5C 111.027,60.573 112.027,59.9063 112.5,58.5C 115.481,58.8176 117.815,57.8176 119.5,55.5C 119.833,55.5 120.167,55.5 120.5,55.5C 122.553,55.5979 124.22,54.9313 125.5,53.5C 129.354,52.1612 133.354,51.3278 137.5,51C 223.207,50.1721 308.874,50.3388 394.5,51.5 Z"/></g>
<g><path style="opacity:1" fill="#241d18" d="M 403.5,53.5 C 406.228,53.1706 408.562,53.8372 410.5,55.5C 407.933,55.2785 405.599,54.6118 403.5,53.5 Z"/></g>
<g><path style="opacity:1" fill="#1c1512" d="M 125.5,53.5 C 124.22,54.9313 122.553,55.5979 120.5,55.5C 121.78,54.0687 123.447,53.4021 125.5,53.5 Z"/></g>
<g><path style="opacity:1" fill="#4c433b" d="M 119.5,55.5 C 117.815,57.8176 115.481,58.8176 112.5,58.5C 114.426,56.7073 116.759,55.7073 119.5,55.5 Z"/></g>
<g><path style="opacity:1" fill="#201a16" d="M 410.5,55.5 C 413.346,55.5516 415.68,56.5516 417.5,58.5C 414.843,58.0652 412.509,57.0652 410.5,55.5 Z"/></g>
<g><path style="opacity:1" fill="#433b31" d="M 112.5,58.5 C 112.027,59.9063 111.027,60.573 109.5,60.5C 109.973,59.0937 110.973,58.427 112.5,58.5 Z"/></g>
<g><path style="opacity:1" fill="#151210" d="M 421.5,60.5 C 423.027,60.427 424.027,61.0937 424.5,62.5C 422.973,62.573 421.973,61.9063 421.5,60.5 Z"/></g>
<g><path style="opacity:1" fill="#2f2921" d="M 108.5,60.5 C 108.027,61.9063 107.027,62.573 105.5,62.5C 105.973,61.0937 106.973,60.427 108.5,60.5 Z"/></g>
<g><path style="opacity:1" fill="#5c5147" d="M 105.5,62.5 C 105.027,63.9063 104.027,64.573 102.5,64.5C 102.973,63.0937 103.973,62.427 105.5,62.5 Z"/></g>
<g><path style="opacity:1" fill="#70655c" d="M 102.5,64.5 C 101.089,66.914 99.0892,68.5806 96.5,69.5C 97.9108,67.086 99.9108,65.4194 102.5,64.5 Z"/></g>
<g><path style="opacity:1" fill="#2e241d" d="M 96.5,69.5 C 96.1667,70.5 95.5,71.1667 94.5,71.5C 94.5,70.1667 95.1667,69.5 96.5,69.5 Z"/></g>
<g><path style="opacity:1" fill="#28211d" d="M 94.5,71.5 C 94.1667,72.5 93.5,73.1667 92.5,73.5C 92.5,72.1667 93.1667,71.5 94.5,71.5 Z"/></g>
<g><path style="opacity:1" fill="#5d4f4a" d="M 92.5,73.5 C 91.9202,75.7488 90.5869,77.4154 88.5,78.5C 89.0798,76.2512 90.4131,74.5846 92.5,73.5 Z"/></g>
<g><path style="opacity:1" fill="#3c342f" d="M 434.5,70.5 C 436.587,71.5846 437.92,73.2512 438.5,75.5C 436.413,74.4154 435.08,72.7488 434.5,70.5 Z"/></g>
<g><path style="opacity:1" fill="#1c1815" d="M 286.5,76.5 C 284.162,78.0395 281.495,78.7062 278.5,78.5C 280.838,76.9605 283.505,76.2938 286.5,76.5 Z"/></g>
<g><path style="opacity:1" fill="#271f1b" d="M 310.5,76.5 C 313.428,76.5651 316.095,77.2318 318.5,78.5C 315.505,78.7062 312.838,78.0395 310.5,76.5 Z"/></g>
<g><path style="opacity:1" fill="#4a4036" d="M 438.5,75.5 C 440.262,76.2623 441.262,77.5956 441.5,79.5C 439.738,78.7377 438.738,77.4044 438.5,75.5 Z"/></g>
<g><path style="opacity:1" fill="#15120e" d="M 277.5,78.5 C 276.365,80.2132 274.698,80.8799 272.5,80.5C 273.93,79.4625 275.597,78.7959 277.5,78.5 Z"/></g>
<g><path style="opacity:1" fill="#221714" d="M 319.5,78.5 C 322.157,78.9348 324.491,79.9348 326.5,81.5C 323.654,81.4484 321.32,80.4484 319.5,78.5 Z"/></g>
<g><path style="opacity:1" fill="#3d3532" d="M 88.5,78.5 C 88.573,80.0269 87.9063,81.0269 86.5,81.5C 86.427,79.9731 87.0937,78.9731 88.5,78.5 Z"/></g>
<g><path style="opacity:1" fill="#1d1815" d="M 272.5,80.5 C 270.574,82.2927 268.241,83.2927 265.5,83.5C 267.426,81.7073 269.759,80.7073 272.5,80.5 Z"/></g>
<g><path style="opacity:1" fill="#312820" d="M 441.5,79.5 C 442.906,79.9731 443.573,80.9731 443.5,82.5C 442.094,82.0269 441.427,81.0269 441.5,79.5 Z"/></g>
<g><path style="opacity:1" fill="#26221d" d="M 86.5,81.5 C 86.573,83.0269 85.9063,84.0269 84.5,84.5C 84.427,82.9731 85.0937,81.9731 86.5,81.5 Z"/></g>
<g><path style="opacity:1" fill="#181210" d="M 264.5,83.5 C 264.179,85.0481 263.179,85.7148 261.5,85.5C 262.29,84.5987 263.29,83.9321 264.5,83.5 Z"/></g>
<g><path style="opacity:1" fill="#1c1814" d="M 331.5,83.5 C 333.027,83.427 334.027,84.0937 334.5,85.5C 332.973,85.573 331.973,84.9063 331.5,83.5 Z"/></g>
<g><path style="opacity:1" fill="#1d1713" d="M 443.5,82.5 C 444.906,82.9731 445.573,83.9731 445.5,85.5C 444.094,85.0269 443.427,84.0269 443.5,82.5 Z"/></g>
<g><path style="opacity:1" fill="#130d0b" d="M 261.5,85.5 C 261.027,86.9063 260.027,87.573 258.5,87.5C 258.973,86.0937 259.973,85.427 261.5,85.5 Z"/></g>
<g><path style="opacity:1" fill="#4e453e" d="M 335.5,85.5 C 337.027,85.427 338.027,86.0937 338.5,87.5C 336.973,87.573 335.973,86.9063 335.5,85.5 Z"/></g>
<g><path style="opacity:1" fill="#100c06" d="M 258.5,87.5 C 258.027,88.9063 257.027,89.573 255.5,89.5C 255.973,88.0937 256.973,87.427 258.5,87.5 Z"/></g>
<g><path style="opacity:1" fill="#3d3932" d="M 338.5,87.5 C 340.404,87.7376 341.738,88.7376 342.5,90.5C 340.596,90.2624 339.262,89.2624 338.5,87.5 Z"/></g>
<g><path style="opacity:1" fill="#130c08" d="M 255.5,89.5 C 255.027,90.9063 254.027,91.573 252.5,91.5C 252.973,90.0937 253.973,89.427 255.5,89.5 Z"/></g>
<g><path style="opacity:1" fill="#46413a" d="M 342.5,90.5 C 344.404,90.7376 345.738,91.7376 346.5,93.5C 344.596,93.2624 343.262,92.2624 342.5,90.5 Z"/></g>
<g><path style="opacity:1" fill="#5c5048" d="M 446.5,87.5 C 447.537,88.9303 448.204,90.597 448.5,92.5C 446.787,91.3646 446.12,89.698 446.5,87.5 Z"/></g>
<g><path style="opacity:1" fill="#19140f" d="M 346.5,93.5 C 347.5,93.8333 348.167,94.5 348.5,95.5C 347.167,95.5 346.5,94.8333 346.5,93.5 Z"/></g>
<g><path style="opacity:1" fill="#1a1714" d="M 249.5,93.5 C 249.5,95.5 248.5,96.5 246.5,96.5C 247.167,95.1667 248.167,94.1667 249.5,93.5 Z"/></g>
<g><path style="opacity:1" fill="#655751" d="M 81.5,92.5 C 81.5905,95.1522 80.9238,97.4855 79.5,99.5C 79.1706,96.7718 79.8372,94.4385 81.5,92.5 Z"/></g>
<g><path style="opacity:1" fill="#1c150f" d="M 449.5,95.5 C 450.931,96.7804 451.598,98.4471 451.5,100.5C 450.069,99.2196 449.402,97.5529 449.5,95.5 Z"/></g>
<g><path style="opacity:1" fill="#221b17" d="M 244.5,98.5 C 244.5,99.8333 243.833,100.5 242.5,100.5C 242.833,99.5 243.5,98.8333 244.5,98.5 Z"/></g>
<g><path style="opacity:1" fill="#110a04" d="M 351.5,98.5 C 352.5,98.8333 353.167,99.5 353.5,100.5C 352.167,100.5 351.5,99.8333 351.5,98.5 Z"/></g>
<g><path style="opacity:1" fill="#9a8e84" d="M 240.5,102.5 C 239.92,104.749 238.587,106.415 236.5,107.5C 235.02,103.324 236.354,101.657 240.5,102.5 Z"/></g>
<g><path style="opacity:1" fill="#2b2723" d="M 242.5,100.5 C 242.5,101.833 241.833,102.5 240.5,102.5C 240.833,101.5 241.5,100.833 242.5,100.5 Z"/></g>
<g><path style="opacity:1" fill="#1d1a14" d="M 353.5,100.5 C 354.5,100.833 355.167,101.5 355.5,102.5C 354.167,102.5 353.5,101.833 353.5,100.5 Z"/></g>
<g><path style="opacity:1" fill="#251f1a" d="M 306.5,103.5 C 301.5,103.5 296.5,103.5 291.5,103.5C 296.5,100.833 301.5,100.833 306.5,103.5 Z"/></g>
<g><path style="opacity:1" fill="#3e3732" d="M 289.5,103.5 C 287.898,105.074 285.898,105.741 283.5,105.5C 285.102,103.926 287.102,103.259 289.5,103.5 Z"/></g>
<g><path style="opacity:1" fill="#211c16" d="M 306.5,103.5 C 309.553,103.111 312.22,103.777 314.5,105.5C 311.627,105.198 308.961,104.531 306.5,103.5 Z"/></g>
<g><path style="opacity:1" fill="#352e26" d="M 283.5,105.5 C 282.486,106.674 281.153,107.34 279.5,107.5C 280.287,105.896 281.62,105.229 283.5,105.5 Z"/></g>
<g><path style="opacity:1" fill="#181511" d="M 357.5,105.5 C 358.906,105.973 359.573,106.973 359.5,108.5C 358.094,108.027 357.427,107.027 357.5,105.5 Z"/></g>
<g><path style="opacity:1" fill="#e4cbb8" d="M 289.5,103.5 C 290.167,103.5 290.833,103.5 291.5,103.5C 296.5,103.5 301.5,103.5 306.5,103.5C 308.961,104.531 311.627,105.198 314.5,105.5C 317.485,106.326 320.151,107.659 322.5,109.5C 323.262,111.262 324.596,112.262 326.5,112.5C 326.833,113.5 327.5,114.167 328.5,114.5C 329.833,116.5 331.5,118.167 333.5,119.5C 333.427,121.027 334.094,122.027 335.5,122.5C 335.833,123.5 336.5,124.167 337.5,124.5C 339.341,126.849 340.674,129.515 341.5,132.5C 341.402,134.553 342.069,136.22 343.5,137.5C 343.5,137.833 343.5,138.167 343.5,138.5C 344.08,142.81 344.414,147.143 344.5,151.5C 344.334,161.506 344.5,171.506 345,181.5C 345.21,183.058 345.71,184.391 346.5,185.5C 347.552,189.426 348.218,193.426 348.5,197.5C 348.259,199.898 348.926,201.898 350.5,203.5C 352.497,208.162 354.497,212.829 356.5,217.5C 356.427,219.027 357.094,220.027 358.5,220.5C 358.5,220.833 358.5,221.167 358.5,221.5C 358.427,223.027 359.094,224.027 360.5,224.5C 361.338,224.842 361.672,225.508 361.5,226.5C 361.833,227.5 362.5,228.167 363.5,228.5C 363.427,230.027 364.094,231.027 365.5,231.5C 365.833,232.5 366.5,233.167 367.5,233.5C 368.5,233.833 369.167,234.5 369.5,235.5C 370.167,238.167 371.833,239.833 374.5,240.5C 374.5,241.167 374.833,241.5 375.5,241.5C 375.525,244.179 376.858,245.512 379.5,245.5C 379.973,246.906 380.973,247.573 382.5,247.5C 382.973,248.906 383.973,249.573 385.5,249.5C 389.535,251.848 393.535,254.182 397.5,256.5C 397.973,257.906 398.973,258.573 400.5,258.5C 410.156,261.988 418.822,266.988 426.5,273.5C 426.833,274.5 427.5,275.167 428.5,275.5C 431.473,279.14 434.806,282.473 438.5,285.5C 438.427,287.027 439.094,288.027 440.5,288.5C 440.738,290.404 441.738,291.738 443.5,292.5C 443.5,292.833 443.5,293.167 443.5,293.5C 445.247,297.33 447.247,300.997 449.5,304.5C 450.939,306.588 451.606,308.921 451.5,311.5C 451.294,314.495 451.96,317.162 453.5,319.5C 454.641,338.123 454.808,356.79 454,375.5C 453.734,379.985 452.9,384.318 451.5,388.5C 449.723,391.505 448.723,394.838 448.5,398.5C 447.636,402.559 445.97,406.226 443.5,409.5C 442.094,409.973 441.427,410.973 441.5,412.5C 440.094,412.973 439.427,413.973 439.5,415.5C 439.5,416.167 439.167,416.5 438.5,416.5C 437.094,416.973 436.427,417.973 436.5,419.5C 436.167,420.5 435.5,421.167 434.5,421.5C 433.5,421.833 432.833,422.5 432.5,423.5C 431.5,425.167 430.167,426.5 428.5,427.5C 426.973,427.427 425.973,428.094 425.5,429.5C 421.881,433.11 417.548,435.443 412.5,436.5C 410.447,436.402 408.78,437.069 407.5,438.5C 407.167,438.5 406.833,438.5 406.5,438.5C 399.008,440.761 391.341,442.094 383.5,442.5C 302.833,442.667 222.166,442.5 141.5,442C 135.061,441.306 128.727,440.139 122.5,438.5C 122.167,438.5 121.833,438.5 121.5,438.5C 120.22,437.069 118.553,436.402 116.5,436.5C 115.486,435.326 114.153,434.66 112.5,434.5C 112.167,434.5 111.833,434.5 111.5,434.5C 111.027,433.094 110.027,432.427 108.5,432.5C 106.566,431.89 104.899,430.89 103.5,429.5C 103.027,428.094 102.027,427.427 100.5,427.5C 99.0892,425.086 97.0892,423.419 94.5,422.5C 93.2719,421.694 92.2719,420.694 91.5,419.5C 91.2624,417.596 90.2624,416.262 88.5,415.5C 88.4456,413.368 87.4456,412.035 85.5,411.5C 84.3263,410.486 83.6596,409.153 83.5,407.5C 83.3404,405.847 82.6737,404.514 81.5,403.5C 79.3582,400.2 78.0249,396.533 77.5,392.5C 77.2785,389.933 76.6118,387.599 75.5,385.5C 74.0126,380.657 73.1793,375.657 73,370.5C 72.207,346.81 72.3736,323.143 73.5,299.5C 74.7682,297.095 75.4349,294.428 75.5,291.5C 75.2826,288.579 75.9493,285.913 77.5,283.5C 78.6737,282.486 79.3404,281.153 79.5,279.5C 79.6596,277.847 80.3263,276.514 81.5,275.5C 82.9063,275.027 83.573,274.027 83.5,272.5C 85.2624,271.738 86.2624,270.404 86.5,268.5C 86.8333,267.5 87.5,266.833 88.5,266.5C 89.5,266.167 90.1667,265.5 90.5,264.5C 92.7488,263.92 94.4154,262.587 95.5,260.5C 96.8471,259.829 98.0138,259.829 99,260.5C 99.5133,259.473 100.013,258.473 100.5,257.5C 100.842,256.662 101.508,256.328 102.5,256.5C 107.105,256.712 111.105,255.379 114.5,252.5C 115.167,252.5 115.833,252.5 116.5,252.5C 124.833,252.5 133.167,252.5 141.5,252.5C 146.514,252.841 151.181,254.174 155.5,256.5C 156.514,257.674 157.847,258.34 159.5,258.5C 161.153,258.66 162.486,259.326 163.5,260.5C 163.973,261.906 164.973,262.573 166.5,262.5C 168.754,263.124 170.421,264.457 171.5,266.5C 173.833,269.5 176.5,272.167 179.5,274.5C 181.262,275.262 182.262,276.596 182.5,278.5C 182.738,280.404 183.738,281.738 185.5,282.5C 186.338,282.842 186.672,283.508 186.5,284.5C 186.66,286.153 187.326,287.486 188.5,288.5C 188.66,290.153 189.326,291.486 190.5,292.5C 190.054,295.01 190.72,297.01 192.5,298.5C 193.632,301.628 194.465,304.962 195,308.5C 195.5,319.828 195.667,331.162 195.5,342.5C 195.159,346.16 195.825,349.493 197.5,352.5C 197.5,352.833 197.5,353.167 197.5,353.5C 197.054,356.01 197.72,358.01 199.5,359.5C 199.5,359.833 199.5,360.167 199.5,360.5C 199.402,362.553 200.069,364.22 201.5,365.5C 201.66,367.153 202.326,368.486 203.5,369.5C 203.427,371.027 204.094,372.027 205.5,372.5C 206.338,372.842 206.672,373.508 206.5,374.5C 206.427,376.027 207.094,377.027 208.5,377.5C 212.472,381.807 216.472,386.141 220.5,390.5C 220.973,391.906 221.973,392.573 223.5,392.5C 226.523,394.533 229.523,396.533 232.5,398.5C 232.973,399.906 233.973,400.573 235.5,400.5C 240.382,401.792 245.048,403.459 249.5,405.5C 252.876,407.082 256.542,407.749 260.5,407.5C 270.641,407.809 280.641,406.809 290.5,404.5C 292.698,404.88 294.365,404.213 295.5,402.5C 297.553,402.598 299.22,401.931 300.5,400.5C 302.674,400.25 304.341,399.25 305.5,397.5C 305.842,396.662 306.508,396.328 307.5,396.5C 309.027,396.573 310.027,395.906 310.5,394.5C 313.089,393.581 315.089,391.914 316.5,389.5C 317.5,387.833 318.833,386.5 320.5,385.5C 322.914,384.089 324.581,382.089 325.5,379.5C 326.906,379.027 327.573,378.027 327.5,376.5C 329.262,375.738 330.262,374.404 330.5,372.5C 330.328,371.508 330.662,370.842 331.5,370.5C 332.583,370.461 333.583,370.127 334.5,369.5C 335.314,367.234 335.814,364.9 336,362.5C 336.333,362.833 336.667,363.167 337,363.5C 337.374,362.584 337.874,361.75 338.5,361C 337.594,359.301 337.261,357.467 337.5,355.5C 337.753,351.96 338.419,348.627 339.5,345.5C 340.662,327.671 340.829,309.671 340,291.5C 339.431,287.205 338.264,283.205 336.5,279.5C 334.591,275.334 332.925,271.001 331.5,266.5C 331.573,264.973 330.906,263.973 329.5,263.5C 329.25,261.326 328.25,259.659 326.5,258.5C 326.446,256.368 325.446,255.035 323.5,254.5C 323.573,252.973 322.906,251.973 321.5,251.5C 321.5,249.5 320.5,248.5 318.5,248.5C 318.573,246.973 317.906,245.973 316.5,245.5C 316.167,244.5 315.5,243.833 314.5,243.5C 314.167,242.5 313.5,241.833 312.5,241.5C 310.761,238.757 308.427,236.757 305.5,235.5C 304.738,233.738 303.404,232.738 301.5,232.5C 301.027,231.094 300.027,230.427 298.5,230.5C 298.027,229.094 297.027,228.427 295.5,228.5C 294.738,226.738 293.404,225.738 291.5,225.5C 291.027,224.094 290.027,223.427 288.5,223.5C 288.167,222.5 287.5,221.833 286.5,221.5C 285.508,221.672 284.842,221.338 284.5,220.5C 283.415,218.413 281.749,217.08 279.5,216.5C 279.167,215.5 278.5,214.833 277.5,214.5C 277.167,213.5 276.5,212.833 275.5,212.5C 275.167,211.5 274.5,210.833 273.5,210.5C 273.167,209.5 272.5,208.833 271.5,208.5C 271.167,207.5 270.5,206.833 269.5,206.5C 268.833,206.5 268.5,206.167 268.5,205.5C 268.573,203.973 267.906,202.973 266.5,202.5C 260.121,194.744 256.288,185.744 255,175.5C 254.333,164.167 254.333,152.833 255,141.5C 256.434,134.649 258.934,128.316 262.5,122.5C 264.587,121.415 265.92,119.749 266.5,117.5C 267.167,115.5 268.5,114.167 270.5,113.5C 272.749,112.92 274.415,111.587 275.5,109.5C 276.514,108.326 277.847,107.66 279.5,107.5C 281.153,107.34 282.486,106.674 283.5,105.5C 285.898,105.741 287.898,105.074 289.5,103.5 Z M 154.5,311.5 C 155.287,313.104 156.62,313.771 158.5,313.5C 158.973,314.906 159.973,315.573 161.5,315.5C 163.5,318.167 165.833,320.5 168.5,322.5C 169.604,324.389 170.937,326.055 172.5,327.5C 173.326,330.485 174.659,333.151 176.5,335.5C 177.931,336.78 178.598,338.447 178.5,340.5C 179.729,347.441 180.396,354.441 180.5,361.5C 180.436,365.22 179.936,368.886 179,372.5C 177.337,374.158 176.504,376.158 176.5,378.5C 174.75,379.659 173.75,381.326 173.5,383.5C 173.672,384.492 173.338,385.158 172.5,385.5C 171.094,385.973 170.427,386.973 170.5,388.5C 168.167,390.167 166.167,392.167 164.5,394.5C 162.973,394.427 161.973,395.094 161.5,396.5C 159.973,396.427 158.973,397.094 158.5,398.5C 149.851,403.047 140.518,404.714 130.5,403.5C 122.486,400.201 115.153,395.535 108.5,389.5C 108.5,388.167 107.833,387.5 106.5,387.5C 106.573,385.973 105.906,384.973 104.5,384.5C 104.573,382.973 103.906,381.973 102.5,381.5C 102.5,381.167 102.5,380.833 102.5,380.5C 102.573,378.973 101.906,377.973 100.5,377.5C 100.396,375.297 99.7298,373.297 98.5,371.5C 98.2785,368.933 97.6118,366.599 96.5,364.5C 95.2383,358.703 95.2383,353.037 96.5,347.5C 97.7682,345.095 98.4349,342.428 98.5,339.5C 98.595,337.214 99.2616,335.214 100.5,333.5C 102.104,332.713 102.771,331.38 102.5,329.5C 103.167,329.5 103.5,329.167 103.5,328.5C 105.58,325.358 107.914,322.358 110.5,319.5C 114.364,316.468 118.364,313.635 122.5,311C 133.306,306.232 143.972,306.399 154.5,311.5 Z"/></g>
<g><path style="opacity:1" fill="#201c19" d="M 322.5,109.5 C 324.404,109.738 325.738,110.738 326.5,112.5C 324.596,112.262 323.262,111.262 322.5,109.5 Z"/></g>
<g><path style="opacity:1" fill="#a6968a" d="M 235.5,108.5 C 234.92,110.749 233.587,112.415 231.5,113.5C 231.167,113.5 230.833,113.5 230.5,113.5C 229.624,113.631 228.957,113.298 228.5,112.5C 230.805,111.13 233.138,109.796 235.5,108.5 Z"/></g>
<g><path style="opacity:1" fill="#5d4f47" d="M 275.5,109.5 C 274.415,111.587 272.749,112.92 270.5,113.5C 271.585,111.413 273.251,110.08 275.5,109.5 Z"/></g>
<g><path style="opacity:1" fill="#150c06" d="M 326.5,112.5 C 327.833,112.5 328.5,113.167 328.5,114.5C 327.5,114.167 326.833,113.5 326.5,112.5 Z"/></g>
<g><path style="opacity:1" fill="#18130c" d="M 230.5,113.5 C 230.833,113.5 231.167,113.5 231.5,113.5C 231.5,114.833 230.833,115.5 229.5,115.5C 229.833,114.833 230.167,114.167 230.5,113.5 Z"/></g>
<g><path style="opacity:1" fill="#1f1a16" d="M 328.5,114.5 C 331.167,115.167 332.833,116.833 333.5,119.5C 331.5,118.167 329.833,116.5 328.5,114.5 Z"/></g>
<g><path style="opacity:1" fill="#4c413c" d="M 452.5,105.5 C 454.012,110.929 454.679,116.596 454.5,122.5C 454.831,151.005 454.498,179.338 453.5,207.5C 453.776,173.486 453.443,139.486 452.5,105.5 Z"/></g>
<g><path style="opacity:1" fill="#201c17" d="M 229.5,115.5 C 229.5,116.833 228.833,117.5 227.5,117.5C 227.833,116.5 228.5,115.833 229.5,115.5 Z"/></g>
<g><path style="opacity:1" fill="#1f1a18" d="M 362.5,113.5 C 364.873,115.579 366.206,118.246 366.5,121.5C 364.659,119.151 363.326,116.485 362.5,113.5 Z"/></g>
<g><path style="opacity:1" fill="#1a130c" d="M 227.5,117.5 C 227.5,118.833 226.833,119.5 225.5,119.5C 225.833,118.5 226.5,117.833 227.5,117.5 Z"/></g>
<g><path style="opacity:1" fill="#574941" d="M 333.5,119.5 C 334.906,119.973 335.573,120.973 335.5,122.5C 334.094,122.027 333.427,121.027 333.5,119.5 Z"/></g>
<g><path style="opacity:1" fill="#2c2723" d="M 266.5,117.5 C 265.92,119.749 264.587,121.415 262.5,122.5C 263.08,120.251 264.413,118.585 266.5,117.5 Z"/></g>
<g><path style="opacity:1" fill="#110d06" d="M 335.5,122.5 C 336.833,122.5 337.5,123.167 337.5,124.5C 336.5,124.167 335.833,123.5 335.5,122.5 Z"/></g>
<g><path style="opacity:1" fill="#251e1b" d="M 366.5,121.5 C 368.585,123.684 369.585,126.351 369.5,129.5C 367.98,127.11 366.98,124.443 366.5,121.5 Z"/></g>
<g><path style="opacity:1" fill="#020101" d="M 454.5,122.5 C 455.664,150.997 455.83,179.664 455,208.5C 454.814,211.036 454.314,213.369 453.5,215.5C 453.5,212.833 453.5,210.167 453.5,207.5C 454.498,179.338 454.831,151.005 454.5,122.5 Z"/></g>
<g><path style="opacity:1" fill="#473f3a" d="M 89.5,124.5 C 91.0269,124.427 92.0269,125.094 92.5,126.5C 90.9731,126.573 89.9731,125.906 89.5,124.5 Z"/></g>
<g><path style="opacity:1" fill="#18100c" d="M 218.5,124.5 C 217.965,126.446 216.632,127.446 214.5,127.5C 215.436,126.026 216.77,125.026 218.5,124.5 Z"/></g>
<g><path style="opacity:1" fill="#3a3430" d="M 92.5,126.5 C 94.4044,126.738 95.7377,127.738 96.5,129.5C 94.5956,129.262 93.2623,128.262 92.5,126.5 Z"/></g>
<g><path style="opacity:1" fill="#25201b" d="M 214.5,127.5 C 212.574,129.293 210.241,130.293 207.5,130.5C 209.426,128.707 211.759,127.707 214.5,127.5 Z"/></g>
<g><path style="opacity:1" fill="#281f1b" d="M 207.5,130.5 C 202.624,133.229 197.29,134.562 191.5,134.5C 196.673,133.007 202.006,131.674 207.5,130.5 Z"/></g>
<g><path style="opacity:1" fill="#231d19" d="M 98.5,130.5 C 103.049,131.463 107.383,132.796 111.5,134.5C 106.711,134.346 102.378,133.013 98.5,130.5 Z"/></g>
<g><path style="opacity:1" fill="#181410" d="M 341.5,132.5 C 342.931,133.78 343.598,135.447 343.5,137.5C 342.069,136.22 341.402,134.553 341.5,132.5 Z"/></g>
<g><path style="opacity:1" fill="#4d443d" d="M 343.5,138.5 C 344.268,139.263 344.768,140.263 345,141.5C 345.498,144.817 345.665,148.15 345.5,151.5C 345.167,151.5 344.833,151.5 344.5,151.5C 344.414,147.143 344.08,142.81 343.5,138.5 Z"/></g>
<g><path style="opacity:1" fill="#221b18" d="M 79.5,153.5 C 81.0269,153.427 82.0269,154.094 82.5,155.5C 80.9731,155.573 79.9731,154.906 79.5,153.5 Z"/></g>
<g><path style="opacity:1" fill="#e3cab7" d="M 74.5,149.5 C 76.3885,150.604 78.0552,151.937 79.5,153.5C 79.9731,154.906 80.9731,155.573 82.5,155.5C 84.0618,155.733 85.3951,156.4 86.5,157.5C 86.9731,158.906 87.9731,159.573 89.5,159.5C 93.6122,160.527 97.6122,161.861 101.5,163.5C 105.236,164.989 109.236,165.656 113.5,165.5C 129.833,165.5 146.167,165.5 162.5,165.5C 167.726,167.157 173.059,168.823 178.5,170.5C 179.514,171.674 180.847,172.34 182.5,172.5C 183.514,173.674 184.847,174.34 186.5,174.5C 188.389,175.604 190.055,176.937 191.5,178.5C 191.833,179.5 192.5,180.167 193.5,180.5C 193.833,181.5 194.5,182.167 195.5,182.5C 196.5,182.833 197.167,183.5 197.5,184.5C 198.08,186.749 199.413,188.415 201.5,189.5C 201.427,191.027 202.094,192.027 203.5,192.5C 203.427,194.027 204.094,195.027 205.5,195.5C 206.338,195.842 206.672,196.508 206.5,197.5C 206.427,199.027 207.094,200.027 208.5,200.5C 208.5,200.833 208.5,201.167 208.5,201.5C 208.427,203.027 209.094,204.027 210.5,204.5C 211.674,205.514 212.34,206.847 212.5,208.5C 212.427,210.027 213.094,211.027 214.5,211.5C 215.124,213.754 216.457,215.421 218.5,216.5C 218.427,218.027 219.094,219.027 220.5,219.5C 221.833,220.167 222.833,221.167 223.5,222.5C 223.833,223.5 224.5,224.167 225.5,224.5C 226.585,226.587 228.251,227.92 230.5,228.5C 231.167,228.5 231.5,228.833 231.5,229.5C 231.973,230.906 232.973,231.573 234.5,231.5C 237.203,233.181 239.869,234.847 242.5,236.5C 243.659,238.25 245.326,239.25 247.5,239.5C 249.153,239.66 250.486,240.326 251.5,241.5C 252.78,242.931 254.447,243.598 256.5,243.5C 257.78,244.931 259.447,245.598 261.5,245.5C 262.791,245.263 263.791,245.596 264.5,246.5C 265.99,248.28 267.99,248.946 270.5,248.5C 276.871,249.854 282.538,252.521 287.5,256.5C 287.973,257.906 288.973,258.573 290.5,258.5C 293.823,260.824 296.823,263.491 299.5,266.5C 300.08,268.749 301.413,270.415 303.5,271.5C 304.674,272.514 305.34,273.847 305.5,275.5C 305.833,276.5 306.5,277.167 307.5,277.5C 307.5,277.833 307.5,278.167 307.5,278.5C 307.427,280.027 308.094,281.027 309.5,281.5C 310.939,283.588 311.606,285.921 311.5,288.5C 311.565,291.428 312.232,294.095 313.5,296.5C 314.61,309.467 314.777,322.467 314,335.5C 313.711,340.507 312.544,345.174 310.5,349.5C 309.234,350.09 307.901,350.59 306.5,351C 307.38,352.356 307.714,353.856 307.5,355.5C 306.849,358.803 305.182,361.47 302.5,363.5C 301.5,363.833 300.833,364.5 300.5,365.5C 299.5,365.833 298.833,366.5 298.5,367.5C 297.5,367.833 296.833,368.5 296.5,369.5C 295.5,369.833 294.833,370.5 294.5,371.5C 292.973,371.427 291.973,372.094 291.5,373.5C 291.158,374.338 290.492,374.672 289.5,374.5C 287.847,374.66 286.514,375.326 285.5,376.5C 283.898,378.074 281.898,378.741 279.5,378.5C 271.167,379.833 262.833,379.833 254.5,378.5C 254.167,378.5 253.833,378.5 253.5,378.5C 252.486,377.326 251.153,376.66 249.5,376.5C 249.167,376.5 248.833,376.5 248.5,376.5C 248.027,375.094 247.027,374.427 245.5,374.5C 243.847,374.34 242.514,373.674 241.5,372.5C 240.415,370.413 238.749,369.08 236.5,368.5C 235.167,367.167 233.833,365.833 232.5,364.5C 232.573,362.973 231.906,361.973 230.5,361.5C 226.89,357.604 224.89,352.937 224.5,347.5C 224.037,344.518 223.704,341.518 223.5,338.5C 223.667,318.164 223.5,297.831 223,277.5C 222.722,276.584 222.222,275.918 221.5,275.5C 220.674,271.864 220.008,268.197 219.5,264.5C 219.405,262.214 218.738,260.214 217.5,258.5C 217.34,256.847 216.674,255.514 215.5,254.5C 214.326,253.486 213.66,252.153 213.5,250.5C 213.33,249.178 213.663,248.011 214.5,247C 213.552,246.517 212.552,246.351 211.5,246.5C 211.833,243.5 210.5,242.167 207.5,242.5C 206.662,242.158 206.328,241.492 206.5,240.5C 206.167,239.5 205.5,238.833 204.5,238.5C 204.167,237.5 203.5,236.833 202.5,236.5C 202.027,235.094 201.027,234.427 199.5,234.5C 198.128,233.488 196.795,232.488 195.5,231.5C 195.027,230.094 194.027,229.427 192.5,229.5C 190.847,229.34 189.514,228.674 188.5,227.5C 187.486,226.326 186.153,225.66 184.5,225.5C 184.167,225.5 183.833,225.5 183.5,225.5C 182.365,223.787 180.698,223.12 178.5,223.5C 177.833,223.5 177.167,223.5 176.5,223.5C 174.562,221.837 172.228,221.171 169.5,221.5C 147.467,221.801 125.467,221.468 103.5,220.5C 101.485,219.076 99.1522,218.41 96.5,218.5C 95.0697,217.463 93.403,216.796 91.5,216.5C 90.7095,215.599 89.7095,214.932 88.5,214.5C 88.0269,213.094 87.0269,212.427 85.5,212.5C 82.7573,210.761 80.7573,208.427 79.5,205.5C 79.4142,204.504 79.7476,203.671 80.5,203C 80.1402,201.354 78.8069,200.188 76.5,199.5C 74.0439,195.262 73.0439,190.596 73.5,185.5C 73.1716,173.322 73.5049,161.322 74.5,149.5 Z"/></g>
<g><path style="opacity:1" fill="#201b16" d="M 86.5,157.5 C 88.0269,157.427 89.0269,158.094 89.5,159.5C 87.9731,159.573 86.9731,158.906 86.5,157.5 Z"/></g>
<g><path style="opacity:1" fill="#291e17" d="M 74.5,149.5 C 73.5049,161.322 73.1716,173.322 73.5,185.5C 72.1753,173.327 72.1753,160.994 73.5,148.5C 74.1067,148.624 74.44,148.957 74.5,149.5 Z"/></g>
<g><path style="opacity:1" fill="#39322a" d="M 369.5,129.5 C 371.602,134.499 372.769,139.832 373,145.5C 373.281,159.184 373.781,172.85 374.5,186.5C 373.698,185.048 373.198,183.382 373,181.5C 373.174,164.052 372.007,146.719 369.5,129.5 Z"/></g>
<g><path style="opacity:1" fill="#2f281f" d="M 101.5,163.5 C 105.764,163.344 109.764,164.011 113.5,165.5C 109.236,165.656 105.236,164.989 101.5,163.5 Z"/></g>
<g><path style="opacity:1" fill="#1d1714" d="M 162.5,165.5 C 168.444,165.645 173.778,167.312 178.5,170.5C 173.059,168.823 167.726,167.157 162.5,165.5 Z"/></g>
<g><path style="opacity:1" fill="#685e56" d="M 344.5,151.5 C 344.833,151.5 345.167,151.5 345.5,151.5C 346.495,162.654 346.828,173.988 346.5,185.5C 345.71,184.391 345.21,183.058 345,181.5C 344.5,171.506 344.334,161.506 344.5,151.5 Z"/></g>
<g><path style="opacity:1" fill="#26201c" d="M 178.5,170.5 C 180.38,170.229 181.713,170.896 182.5,172.5C 180.847,172.34 179.514,171.674 178.5,170.5 Z"/></g>
<g><path style="opacity:1" fill="#1f1b18" d="M 182.5,172.5 C 184.38,172.229 185.713,172.896 186.5,174.5C 184.847,174.34 183.514,173.674 182.5,172.5 Z"/></g>
<g><path style="opacity:1" fill="#14100a" d="M 191.5,178.5 C 192.833,178.5 193.5,179.167 193.5,180.5C 192.5,180.167 191.833,179.5 191.5,178.5 Z"/></g>
<g><path style="opacity:1" fill="#130c05" d="M 193.5,180.5 C 194.833,180.5 195.5,181.167 195.5,182.5C 194.5,182.167 193.833,181.5 193.5,180.5 Z"/></g>
<g><path style="opacity:1" fill="#352c25" d="M 197.5,184.5 C 199.587,185.585 200.92,187.251 201.5,189.5C 199.413,188.415 198.08,186.749 197.5,184.5 Z"/></g>
<g><path style="opacity:1" fill="#362d26" d="M 201.5,189.5 C 202.906,189.973 203.573,190.973 203.5,192.5C 202.094,192.027 201.427,191.027 201.5,189.5 Z"/></g>
<g><path style="opacity:1" fill="#332e29" d="M 203.5,192.5 C 204.906,192.973 205.573,193.973 205.5,195.5C 204.094,195.027 203.427,194.027 203.5,192.5 Z"/></g>
<g><path style="opacity:1" fill="#706259" d="M 376.5,193.5 C 377.309,194.469 378.309,195.302 379.5,196C 378.663,197.011 378.33,198.178 378.5,199.5C 377.262,197.786 376.595,195.786 376.5,193.5 Z"/></g>
<g><path style="opacity:1" fill="#1e1917" d="M 206.5,197.5 C 207.906,197.973 208.573,198.973 208.5,200.5C 207.094,200.027 206.427,199.027 206.5,197.5 Z"/></g>
<g><path style="opacity:1" fill="#4b443c" d="M 348.5,197.5 C 349.738,199.214 350.405,201.214 350.5,203.5C 348.926,201.898 348.259,199.898 348.5,197.5 Z"/></g>
<g><path style="opacity:1" fill="#7d716a" d="M 76.5,199.5 C 78.8069,200.188 80.1402,201.354 80.5,203C 79.7476,203.671 79.4142,204.504 79.5,205.5C 77.7549,203.967 76.7549,201.967 76.5,199.5 Z"/></g>
<g><path style="opacity:1" fill="#382a22" d="M 208.5,201.5 C 209.906,201.973 210.573,202.973 210.5,204.5C 209.094,204.027 208.427,203.027 208.5,201.5 Z"/></g>
<g><path style="opacity:1" fill="#211918" d="M 266.5,202.5 C 267.906,202.973 268.573,203.973 268.5,205.5C 267.094,205.027 266.427,204.027 266.5,202.5 Z"/></g>
<g><path style="opacity:1" fill="#18110f" d="M 269.5,206.5 C 270.5,206.833 271.167,207.5 271.5,208.5C 270.167,208.5 269.5,207.833 269.5,206.5 Z"/></g>
<g><path style="opacity:1" fill="#29241f" d="M 271.5,208.5 C 272.5,208.833 273.167,209.5 273.5,210.5C 272.167,210.5 271.5,209.833 271.5,208.5 Z"/></g>
<g><path style="opacity:1" fill="#1d1816" d="M 383.5,208.5 C 384.5,208.833 385.167,209.5 385.5,210.5C 384.167,210.5 383.5,209.833 383.5,208.5 Z"/></g>
<g><path style="opacity:1" fill="#534945" d="M 212.5,208.5 C 213.906,208.973 214.573,209.973 214.5,211.5C 213.094,211.027 212.427,210.027 212.5,208.5 Z"/></g>
<g><path style="opacity:1" fill="#1b1511" d="M 214.5,211.5 C 216.531,212.539 217.864,214.205 218.5,216.5C 216.457,215.421 215.124,213.754 214.5,211.5 Z"/></g>
<g><path style="opacity:1" fill="#383128" d="M 273.5,210.5 C 274.5,210.833 275.167,211.5 275.5,212.5C 274.167,212.5 273.5,211.833 273.5,210.5 Z"/></g>
<g><path style="opacity:1" fill="#4e4840" d="M 85.5,212.5 C 87.0269,212.427 88.0269,213.094 88.5,214.5C 86.9731,214.573 85.9731,213.906 85.5,212.5 Z"/></g>
<g><path style="opacity:1" fill="#2e2a26" d="M 275.5,212.5 C 276.5,212.833 277.167,213.5 277.5,214.5C 276.167,214.5 275.5,213.833 275.5,212.5 Z"/></g>
<g><path style="opacity:1" fill="#171411" d="M 88.5,214.5 C 89.7095,214.932 90.7095,215.599 91.5,216.5C 89.8212,216.715 88.8212,216.048 88.5,214.5 Z"/></g>
<g><path style="opacity:1" fill="#1e1a16" d="M 277.5,214.5 C 278.5,214.833 279.167,215.5 279.5,216.5C 278.167,216.5 277.5,215.833 277.5,214.5 Z"/></g>
<g><path style="opacity:1" fill="#3d342e" d="M 388.5,214.5 C 390.833,216.167 392.833,218.167 394.5,220.5C 391.5,219.5 389.5,217.5 388.5,214.5 Z"/></g>
<g><path style="opacity:1" fill="#544941" d="M 279.5,216.5 C 281.749,217.08 283.415,218.413 284.5,220.5C 282.251,219.92 280.585,218.587 279.5,216.5 Z"/></g>
<g><path style="opacity:1" fill="#221713" d="M 91.5,216.5 C 93.403,216.796 95.0697,217.463 96.5,218.5C 94.302,218.88 92.6354,218.213 91.5,216.5 Z"/></g>
<g><path style="opacity:1" fill="#494039" d="M 218.5,216.5 C 219.906,216.973 220.573,217.973 220.5,219.5C 219.094,219.027 218.427,218.027 218.5,216.5 Z"/></g>
<g><path style="opacity:1" fill="#241d1a" d="M 96.5,218.5 C 99.1522,218.41 101.485,219.076 103.5,220.5C 100.848,220.59 98.5145,219.924 96.5,218.5 Z"/></g>
<g><path style="opacity:1" fill="#201812" d="M 356.5,217.5 C 357.906,217.973 358.573,218.973 358.5,220.5C 357.094,220.027 356.427,219.027 356.5,217.5 Z"/></g>
<g><path style="opacity:1" fill="#29221f" d="M 169.5,221.5 C 172.228,221.171 174.562,221.837 176.5,223.5C 173.848,223.59 171.515,222.924 169.5,221.5 Z"/></g>
<g><path style="opacity:1" fill="#16110c" d="M 223.5,222.5 C 224.833,222.5 225.5,223.167 225.5,224.5C 224.5,224.167 223.833,223.5 223.5,222.5 Z"/></g>
<g><path style="opacity:1" fill="#28211b" d="M 286.5,221.5 C 287.5,221.833 288.167,222.5 288.5,223.5C 287.167,223.5 286.5,222.833 286.5,221.5 Z"/></g>
<g><path style="opacity:1" fill="#4d4642" d="M 178.5,223.5 C 180.698,223.12 182.365,223.787 183.5,225.5C 181.447,225.598 179.78,224.931 178.5,223.5 Z"/></g>
<g><path style="opacity:1" fill="#433832" d="M 358.5,221.5 C 359.906,221.973 360.573,222.973 360.5,224.5C 359.094,224.027 358.427,223.027 358.5,221.5 Z"/></g>
<g><path style="opacity:1" fill="#221d19" d="M 225.5,224.5 C 227.749,225.08 229.415,226.413 230.5,228.5C 228.251,227.92 226.585,226.587 225.5,224.5 Z"/></g>
<g><path style="opacity:1" fill="#3e332d" d="M 288.5,223.5 C 290.027,223.427 291.027,224.094 291.5,225.5C 289.973,225.573 288.973,224.906 288.5,223.5 Z"/></g>
<g><path style="opacity:1" fill="#2a241f" d="M 398.5,223.5 C 399.5,223.833 400.167,224.5 400.5,225.5C 399.167,225.5 398.5,224.833 398.5,223.5 Z"/></g>
<g><path style="opacity:1" fill="#261f1c" d="M 451.5,221.5 C 451.771,223.38 451.104,224.713 449.5,225.5C 449.66,223.847 450.326,222.514 451.5,221.5 Z"/></g>
<g><path style="opacity:1" fill="#251d1a" d="M 184.5,225.5 C 186.153,225.66 187.486,226.326 188.5,227.5C 186.62,227.771 185.287,227.104 184.5,225.5 Z"/></g>
<g><path style="opacity:1" fill="#3a322d" d="M 291.5,225.5 C 293.404,225.738 294.738,226.738 295.5,228.5C 293.596,228.262 292.262,227.262 291.5,225.5 Z"/></g>
<g><path style="opacity:1" fill="#221e1a" d="M 361.5,226.5 C 362.833,226.5 363.5,227.167 363.5,228.5C 362.5,228.167 361.833,227.5 361.5,226.5 Z"/></g>
<g><path style="opacity:1" fill="#362e2a" d="M 400.5,225.5 C 402.027,225.427 403.027,226.094 403.5,227.5C 401.973,227.573 400.973,226.906 400.5,225.5 Z"/></g>
<g><path style="opacity:1" fill="#1b1715" d="M 403.5,227.5 C 405.027,227.427 406.027,228.094 406.5,229.5C 404.973,229.573 403.973,228.906 403.5,227.5 Z"/></g>
<g><path style="opacity:1" fill="#241e18" d="M 295.5,228.5 C 297.027,228.427 298.027,229.094 298.5,230.5C 296.973,230.573 295.973,229.906 295.5,228.5 Z"/></g>
<g><path style="opacity:1" fill="#49423f" d="M 363.5,228.5 C 364.906,228.973 365.573,229.973 365.5,231.5C 364.094,231.027 363.427,230.027 363.5,228.5 Z"/></g>
<g><path style="opacity:1" fill="#4d4540" d="M 406.5,229.5 C 408.698,229.12 410.365,229.787 411.5,231.5C 409.447,231.598 407.78,230.931 406.5,229.5 Z"/></g>
<g><path style="opacity:1" fill="#271a17" d="M 449.5,225.5 C 448.5,228.5 446.5,230.5 443.5,231.5C 445.167,229.167 447.167,227.167 449.5,225.5 Z"/></g>
<g><path style="opacity:1" fill="#31281f" d="M 192.5,229.5 C 194.027,229.427 195.027,230.094 195.5,231.5C 193.973,231.573 192.973,230.906 192.5,229.5 Z"/></g>
<g><path style="opacity:1" fill="#1f1514" d="M 231.5,229.5 C 233.027,229.427 234.027,230.094 234.5,231.5C 232.973,231.573 231.973,230.906 231.5,229.5 Z"/></g>
<g><path style="opacity:1" fill="#211c18" d="M 298.5,230.5 C 300.027,230.427 301.027,231.094 301.5,232.5C 299.973,232.573 298.973,231.906 298.5,230.5 Z"/></g>
<g><path style="opacity:1" fill="#201913" d="M 365.5,231.5 C 366.833,231.5 367.5,232.167 367.5,233.5C 366.5,233.167 365.833,232.5 365.5,231.5 Z"/></g>
<g><path style="opacity:1" fill="#443a33" d="M 301.5,232.5 C 303.404,232.738 304.738,233.738 305.5,235.5C 303.596,235.262 302.262,234.262 301.5,232.5 Z"/></g>
<g><path style="opacity:1" fill="#2f2723" d="M 413.5,232.5 C 416.495,232.294 419.162,232.96 421.5,234.5C 418.572,234.435 415.905,233.768 413.5,232.5 Z"/></g>
<g><path style="opacity:1" fill="#534740" d="M 199.5,234.5 C 201.027,234.427 202.027,235.094 202.5,236.5C 200.973,236.573 199.973,235.906 199.5,234.5 Z"/></g>
<g><path style="opacity:1" fill="#453b37" d="M 305.5,235.5 C 308.427,236.757 310.761,238.757 312.5,241.5C 309.573,240.243 307.239,238.243 305.5,235.5 Z"/></g>
<g><path style="opacity:1" fill="#48403b" d="M 369.5,235.5 C 371.5,236.833 373.167,238.5 374.5,240.5C 371.833,239.833 370.167,238.167 369.5,235.5 Z"/></g>
<g><path style="opacity:1" fill="#2d2823" d="M 202.5,236.5 C 203.5,236.833 204.167,237.5 204.5,238.5C 203.167,238.5 202.5,237.833 202.5,236.5 Z"/></g>
<g><path style="opacity:1" fill="#201715" d="M 242.5,236.5 C 244.674,236.75 246.341,237.75 247.5,239.5C 245.326,239.25 243.659,238.25 242.5,236.5 Z"/></g>
<g><path style="opacity:1" fill="#2d2a27" d="M 204.5,238.5 C 205.5,238.833 206.167,239.5 206.5,240.5C 205.167,240.5 204.5,239.833 204.5,238.5 Z"/></g>
<g><path style="opacity:1" fill="#231d19" d="M 251.5,241.5 C 253.553,241.402 255.22,242.069 256.5,243.5C 254.447,243.598 252.78,242.931 251.5,241.5 Z"/></g>
<g><path style="opacity:1" fill="#2a2421" d="M 312.5,241.5 C 313.5,241.833 314.167,242.5 314.5,243.5C 313.167,243.5 312.5,242.833 312.5,241.5 Z"/></g>
<g><path style="opacity:1" fill="#897c73" d="M 207.5,242.5 C 210.5,242.167 211.833,243.5 211.5,246.5C 212.552,246.351 213.552,246.517 214.5,247C 213.663,248.011 213.33,249.178 213.5,250.5C 211.147,248.14 209.147,245.473 207.5,242.5 Z"/></g>
<g><path style="opacity:1" fill="#1d1713" d="M 256.5,243.5 C 258.698,243.12 260.365,243.787 261.5,245.5C 259.447,245.598 257.78,244.931 256.5,243.5 Z"/></g>
<g><path style="opacity:1" fill="#312b26" d="M 314.5,243.5 C 315.5,243.833 316.167,244.5 316.5,245.5C 315.167,245.5 314.5,244.833 314.5,243.5 Z"/></g>
<g><path style="opacity:1" fill="#766a63" d="M 375.5,241.5 C 377.341,242.402 378.674,243.736 379.5,245.5C 376.858,245.512 375.525,244.179 375.5,241.5 Z"/></g>
<g><path style="opacity:1" fill="#302220" d="M 379.5,245.5 C 381.027,245.427 382.027,246.094 382.5,247.5C 380.973,247.573 379.973,246.906 379.5,245.5 Z"/></g>
<g><path style="opacity:1" fill="#2a2623" d="M 316.5,245.5 C 317.906,245.973 318.573,246.973 318.5,248.5C 317.094,248.027 316.427,247.027 316.5,245.5 Z"/></g>
<g><path style="opacity:1" fill="#7e7268" d="M 264.5,246.5 C 266.786,246.595 268.786,247.262 270.5,248.5C 267.99,248.946 265.99,248.28 264.5,246.5 Z"/></g>
<g><path style="opacity:1" fill="#171410" d="M 382.5,247.5 C 384.027,247.427 385.027,248.094 385.5,249.5C 383.973,249.573 382.973,248.906 382.5,247.5 Z"/></g>
<g><path style="opacity:1" fill="#4c463c" d="M 318.5,248.5 C 320.5,248.5 321.5,249.5 321.5,251.5C 320.167,250.833 319.167,249.833 318.5,248.5 Z"/></g>
<g><path style="opacity:1" fill="#4f4841" d="M 141.5,252.5 C 133.167,252.5 124.833,252.5 116.5,252.5C 120.223,251.003 124.223,250.337 128.5,250.5C 133.093,250.379 137.426,251.046 141.5,252.5 Z"/></g>
<g><path style="opacity:1" fill="#1a1614" d="M 321.5,251.5 C 322.906,251.973 323.573,252.973 323.5,254.5C 322.094,254.027 321.427,253.027 321.5,251.5 Z"/></g>
<g><path style="opacity:1" fill="#84766d" d="M 114.5,252.5 C 111.105,255.379 107.105,256.712 102.5,256.5C 106.213,254.565 110.213,253.232 114.5,252.5 Z"/></g>
<g><path style="opacity:1" fill="#1e1813" d="M 215.5,254.5 C 216.674,255.514 217.34,256.847 217.5,258.5C 215.896,257.713 215.229,256.38 215.5,254.5 Z"/></g>
<g><path style="opacity:1" fill="#211b18" d="M 287.5,256.5 C 289.027,256.427 290.027,257.094 290.5,258.5C 288.973,258.573 287.973,257.906 287.5,256.5 Z"/></g>
<g><path style="opacity:1" fill="#322d2b" d="M 323.5,254.5 C 325.446,255.035 326.446,256.368 326.5,258.5C 325.026,257.564 324.026,256.23 323.5,254.5 Z"/></g>
<g><path style="opacity:1" fill="#332821" d="M 155.5,256.5 C 157.38,256.229 158.713,256.896 159.5,258.5C 157.847,258.34 156.514,257.674 155.5,256.5 Z"/></g>
<g><path style="opacity:1" fill="#201d15" d="M 397.5,256.5 C 399.027,256.427 400.027,257.094 400.5,258.5C 398.973,258.573 397.973,257.906 397.5,256.5 Z"/></g>
<g><path style="opacity:1" fill="#7c7167" d="M 100.5,257.5 C 100.013,258.473 99.5133,259.473 99,260.5C 98.0138,259.829 96.8471,259.829 95.5,260.5C 96.6594,258.75 98.326,257.75 100.5,257.5 Z"/></g>
<g><path style="opacity:1" fill="#1c1715" d="M 163.5,260.5 C 165.027,260.427 166.027,261.094 166.5,262.5C 164.973,262.573 163.973,261.906 163.5,260.5 Z"/></g>
<g><path style="opacity:1" fill="#201a16" d="M 217.5,258.5 C 218.738,260.214 219.405,262.214 219.5,264.5C 217.926,262.898 217.259,260.898 217.5,258.5 Z"/></g>
<g><path style="opacity:1" fill="#1b1815" d="M 326.5,258.5 C 328.25,259.659 329.25,261.326 329.5,263.5C 327.75,262.341 326.75,260.674 326.5,258.5 Z"/></g>
<g><path style="opacity:1" fill="#706159" d="M 95.5,260.5 C 94.4154,262.587 92.7488,263.92 90.5,264.5C 91.5846,262.413 93.2512,261.08 95.5,260.5 Z"/></g>
<g><path style="opacity:1" fill="#221d15" d="M 90.5,264.5 C 90.1667,265.5 89.5,266.167 88.5,266.5C 88.5,265.167 89.1667,264.5 90.5,264.5 Z"/></g>
<g><path style="opacity:1" fill="#352824" d="M 329.5,263.5 C 330.906,263.973 331.573,264.973 331.5,266.5C 330.094,266.027 329.427,265.027 329.5,263.5 Z"/></g>
<g><path style="opacity:1" fill="#29231f" d="M 171.5,266.5 C 175.167,268.167 177.833,270.833 179.5,274.5C 176.5,272.167 173.833,269.5 171.5,266.5 Z"/></g>
<g><path style="opacity:1" fill="#302b27" d="M 299.5,266.5 C 301.587,267.585 302.92,269.251 303.5,271.5C 301.413,270.415 300.08,268.749 299.5,266.5 Z"/></g>
<g><path style="opacity:1" fill="#554b43" d="M 86.5,268.5 C 86.2624,270.404 85.2624,271.738 83.5,272.5C 83.7376,270.596 84.7376,269.262 86.5,268.5 Z"/></g>
<g><path style="opacity:1" fill="#1a1613" d="M 426.5,273.5 C 427.833,273.5 428.5,274.167 428.5,275.5C 427.5,275.167 426.833,274.5 426.5,273.5 Z"/></g>
<g><path style="opacity:1" fill="#352e28" d="M 83.5,272.5 C 83.573,274.027 82.9063,275.027 81.5,275.5C 81.427,273.973 82.0937,272.973 83.5,272.5 Z"/></g>
<g><path style="opacity:1" fill="#1c1815" d="M 305.5,275.5 C 306.833,275.5 307.5,276.167 307.5,277.5C 306.5,277.167 305.833,276.5 305.5,275.5 Z"/></g>
<g><path style="opacity:1" fill="#4b413c" d="M 428.5,275.5 C 432.833,277.833 436.167,281.167 438.5,285.5C 434.806,282.473 431.473,279.14 428.5,275.5 Z"/></g>
<g><path style="opacity:1" fill="#5c5148" d="M 182.5,278.5 C 184.262,279.262 185.262,280.596 185.5,282.5C 183.738,281.738 182.738,280.404 182.5,278.5 Z"/></g>
<g><path style="opacity:1" fill="#28211b" d="M 307.5,278.5 C 308.906,278.973 309.573,279.973 309.5,281.5C 308.094,281.027 307.427,280.027 307.5,278.5 Z"/></g>
<g><path style="opacity:1" fill="#27211d" d="M 79.5,279.5 C 79.3404,281.153 78.6737,282.486 77.5,283.5C 77.2291,281.62 77.8958,280.287 79.5,279.5 Z"/></g>
<g><path style="opacity:1" fill="#231c19" d="M 186.5,284.5 C 188.104,285.287 188.771,286.62 188.5,288.5C 187.326,287.486 186.66,286.153 186.5,284.5 Z"/></g>
<g><path style="opacity:1" fill="#342a26" d="M 438.5,285.5 C 439.906,285.973 440.573,286.973 440.5,288.5C 439.094,288.027 438.427,287.027 438.5,285.5 Z"/></g>
<g><path style="opacity:1" fill="#161310" d="M 188.5,288.5 C 190.104,289.287 190.771,290.62 190.5,292.5C 189.326,291.486 188.66,290.153 188.5,288.5 Z"/></g>
<g><path style="opacity:1" fill="#362f25" d="M 440.5,288.5 C 442.262,289.262 443.262,290.596 443.5,292.5C 441.738,291.738 440.738,290.404 440.5,288.5 Z"/></g>
<g><path style="opacity:1" fill="#423c36" d="M 75.5,291.5 C 75.4349,294.428 74.7682,297.095 73.5,299.5C 73.2938,296.505 73.9605,293.838 75.5,291.5 Z"/></g>
<g><path style="opacity:1" fill="#443a33" d="M 311.5,288.5 C 313.04,290.838 313.706,293.505 313.5,296.5C 312.232,294.095 311.565,291.428 311.5,288.5 Z"/></g>
<g><path style="opacity:1" fill="#574e44" d="M 190.5,292.5 C 191.738,294.214 192.405,296.214 192.5,298.5C 190.72,297.01 190.054,295.01 190.5,292.5 Z"/></g>
<g><path style="opacity:1" fill="#2d2722" d="M 443.5,293.5 C 446.756,296.336 448.756,300.003 449.5,304.5C 447.247,300.997 445.247,297.33 443.5,293.5 Z"/></g>
<g><path style="opacity:1" fill="#5a514c" d="M 221.5,275.5 C 222.222,275.918 222.722,276.584 223,277.5C 223.5,297.831 223.667,318.164 223.5,338.5C 223.167,338.5 222.833,338.5 222.5,338.5C 222.775,317.477 222.442,296.477 221.5,275.5 Z"/></g>
<g><path style="opacity:1" fill="#100907" d="M 336.5,279.5 C 338.264,283.205 339.431,287.205 340,291.5C 340.829,309.671 340.662,327.671 339.5,345.5C 339.667,328.163 339.5,310.83 339,293.5C 338.163,288.82 337.329,284.154 336.5,279.5 Z"/></g>
<g><path style="opacity:1" fill="#251e1c" d="M 154.5,311.5 C 156.153,311.66 157.486,312.326 158.5,313.5C 156.62,313.771 155.287,313.104 154.5,311.5 Z"/></g>
<g><path style="opacity:1" fill="#3c342d" d="M 158.5,313.5 C 160.027,313.427 161.027,314.094 161.5,315.5C 159.973,315.573 158.973,314.906 158.5,313.5 Z"/></g>
<g><path style="opacity:1" fill="#433b36" d="M 161.5,315.5 C 164.427,316.757 166.761,318.757 168.5,321.5C 168.5,321.833 168.5,322.167 168.5,322.5C 165.833,320.5 163.5,318.167 161.5,315.5 Z"/></g>
<g><path style="opacity:1" fill="#322c25" d="M 451.5,311.5 C 453.04,313.838 453.706,316.505 453.5,319.5C 451.96,317.162 451.294,314.495 451.5,311.5 Z"/></g>
<g><path style="opacity:1" fill="#a5958b" d="M 110.5,319.5 C 107.914,322.358 105.58,325.358 103.5,328.5C 102.616,324.51 103.949,321.677 107.5,320C 107.167,319.667 106.833,319.333 106.5,319C 107.928,318.421 109.262,318.588 110.5,319.5 Z"/></g>
<g><path style="opacity:1" fill="#9b8c81" d="M 168.5,321.5 C 169.675,321.281 170.675,321.614 171.5,322.5C 173.376,323.99 174.043,325.657 173.5,327.5C 173.167,327.5 172.833,327.5 172.5,327.5C 170.937,326.055 169.604,324.389 168.5,322.5C 168.5,322.167 168.5,321.833 168.5,321.5 Z"/></g>
<g><path style="opacity:1" fill="#7f746b" d="M 102.5,329.5 C 102.771,331.38 102.104,332.713 100.5,333.5C 99.2092,331.41 99.8758,330.076 102.5,329.5 Z"/></g>
<g><path style="opacity:1" fill="#2a231e" d="M 172.5,327.5 C 172.833,327.5 173.167,327.5 173.5,327.5C 175.06,329.954 176.06,332.62 176.5,335.5C 174.659,333.151 173.326,330.485 172.5,327.5 Z"/></g>
<g><path style="opacity:1" fill="#191412" d="M 222.5,338.5 C 222.833,338.5 223.167,338.5 223.5,338.5C 223.704,341.518 224.037,344.518 224.5,347.5C 222.882,344.829 222.215,341.829 222.5,338.5 Z"/></g>
<g><path style="opacity:1" fill="#271f1d" d="M 98.5,339.5 C 98.4349,342.428 97.7682,345.095 96.5,347.5C 96.2938,344.505 96.9605,341.838 98.5,339.5 Z"/></g>
<g><path style="opacity:1" fill="#221c17" d="M 195.5,342.5 C 196.581,345.627 197.247,348.96 197.5,352.5C 195.825,349.493 195.159,346.16 195.5,342.5 Z"/></g>
<g><path style="opacity:1" fill="#81746a" d="M 310.5,349.5 C 310.245,351.967 309.245,353.967 307.5,355.5C 307.714,353.856 307.38,352.356 306.5,351C 307.901,350.59 309.234,350.09 310.5,349.5 Z"/></g>
<g><path style="opacity:1" fill="#352a24" d="M 178.5,340.5 C 179.963,343.203 180.796,346.203 181,349.5C 181.812,353.689 181.645,357.689 180.5,361.5C 180.396,354.441 179.729,347.441 178.5,340.5 Z"/></g>
<g><path style="opacity:1" fill="#48403a" d="M 197.5,353.5 C 198.738,355.214 199.405,357.214 199.5,359.5C 197.72,358.01 197.054,356.01 197.5,353.5 Z"/></g>
<g><path style="opacity:1" fill="#1b1714" d="M 230.5,361.5 C 231.906,361.973 232.573,362.973 232.5,364.5C 231.094,364.027 230.427,363.027 230.5,361.5 Z"/></g>
<g><path style="opacity:1" fill="#241c18" d="M 199.5,360.5 C 200.931,361.78 201.598,363.447 201.5,365.5C 200.069,364.22 199.402,362.553 199.5,360.5 Z"/></g>
<g><path style="opacity:1" fill="#211d17" d="M 302.5,363.5 C 302.5,364.833 301.833,365.5 300.5,365.5C 300.833,364.5 301.5,363.833 302.5,363.5 Z"/></g>
<g><path style="opacity:1" fill="#322d29" d="M 300.5,365.5 C 300.5,366.833 299.833,367.5 298.5,367.5C 298.833,366.5 299.5,365.833 300.5,365.5 Z"/></g>
<g><path style="opacity:1" fill="#1e1713" d="M 201.5,365.5 C 203.104,366.287 203.771,367.62 203.5,369.5C 202.326,368.486 201.66,367.153 201.5,365.5 Z"/></g>
<g><path style="opacity:1" fill="#9a8b81" d="M 337.5,355.5 C 337.261,357.467 337.594,359.301 338.5,361C 337.874,361.75 337.374,362.584 337,363.5C 336.667,363.167 336.333,362.833 336,362.5C 335.814,364.9 335.314,367.234 334.5,369.5C 333.583,370.127 332.583,370.461 331.5,370.5C 333.27,365.31 335.27,360.31 337.5,355.5 Z"/></g>
<g><path style="opacity:1" fill="#4e433a" d="M 96.5,364.5 C 97.6118,366.599 98.2785,368.933 98.5,371.5C 96.8372,369.562 96.1706,367.228 96.5,364.5 Z"/></g>
<g><path style="opacity:1" fill="#2d2824" d="M 298.5,367.5 C 298.5,368.833 297.833,369.5 296.5,369.5C 296.833,368.5 297.5,367.833 298.5,367.5 Z"/></g>
<g><path style="opacity:1" fill="#191311" d="M 296.5,369.5 C 296.5,370.833 295.833,371.5 294.5,371.5C 294.833,370.5 295.5,369.833 296.5,369.5 Z"/></g>
<g><path style="opacity:1" fill="#201914" d="M 203.5,369.5 C 204.906,369.973 205.573,370.973 205.5,372.5C 204.094,372.027 203.427,371.027 203.5,369.5 Z"/></g>
<g><path style="opacity:1" fill="#2d2421" d="M 236.5,368.5 C 238.749,369.08 240.415,370.413 241.5,372.5C 239.251,371.92 237.585,370.587 236.5,368.5 Z"/></g>
<g><path style="opacity:1" fill="#1f1614" d="M 294.5,371.5 C 294.027,372.906 293.027,373.573 291.5,373.5C 291.973,372.094 292.973,371.427 294.5,371.5 Z"/></g>
<g><path style="opacity:1" fill="#3e3733" d="M 330.5,372.5 C 330.262,374.404 329.262,375.738 327.5,376.5C 327.738,374.596 328.738,373.262 330.5,372.5 Z"/></g>
<g><path style="opacity:1" fill="#261e1a" d="M 245.5,374.5 C 247.027,374.427 248.027,375.094 248.5,376.5C 246.973,376.573 245.973,375.906 245.5,374.5 Z"/></g>
<g><path style="opacity:1" fill="#211c1a" d="M 289.5,374.5 C 288.713,376.104 287.38,376.771 285.5,376.5C 286.514,375.326 287.847,374.66 289.5,374.5 Z"/></g>
<g><path style="opacity:1" fill="#372e26" d="M 206.5,374.5 C 207.906,374.973 208.573,375.973 208.5,377.5C 207.094,377.027 206.427,376.027 206.5,374.5 Z"/></g>
<g><path style="opacity:1" fill="#201c17" d="M 249.5,376.5 C 251.153,376.66 252.486,377.326 253.5,378.5C 251.62,378.771 250.287,378.104 249.5,376.5 Z"/></g>
<g><path style="opacity:1" fill="#282019" d="M 327.5,376.5 C 327.573,378.027 326.906,379.027 325.5,379.5C 325.427,377.973 326.094,376.973 327.5,376.5 Z"/></g>
<g><path style="opacity:1" fill="#211b19" d="M 100.5,377.5 C 101.906,377.973 102.573,378.973 102.5,380.5C 101.094,380.027 100.427,379.027 100.5,377.5 Z"/></g>
<g><path style="opacity:1" fill="#2b231d" d="M 254.5,378.5 C 262.833,379.833 271.167,379.833 279.5,378.5C 275.797,380.055 271.797,380.722 267.5,380.5C 262.893,380.684 258.56,380.017 254.5,378.5 Z"/></g>
<g><path style="opacity:1" fill="#25211d" d="M 176.5,378.5 C 176.25,380.674 175.25,382.341 173.5,383.5C 173.75,381.326 174.75,379.659 176.5,378.5 Z"/></g>
<g><path style="opacity:1" fill="#493f38" d="M 102.5,381.5 C 103.906,381.973 104.573,382.973 104.5,384.5C 103.094,384.027 102.427,383.027 102.5,381.5 Z"/></g>
<g><path style="opacity:1" fill="#352d27" d="M 325.5,379.5 C 324.581,382.089 322.914,384.089 320.5,385.5C 321.419,382.911 323.086,380.911 325.5,379.5 Z"/></g>
<g><path style="opacity:1" fill="#50423d" d="M 104.5,384.5 C 105.906,384.973 106.573,385.973 106.5,387.5C 105.094,387.027 104.427,386.027 104.5,384.5 Z"/></g>
<g><path style="opacity:1" fill="#4e463e" d="M 172.5,385.5 C 172.573,387.027 171.906,388.027 170.5,388.5C 170.427,386.973 171.094,385.973 172.5,385.5 Z"/></g>
<g><path style="opacity:1" fill="#1b1612" d="M 106.5,387.5 C 107.833,387.5 108.5,388.167 108.5,389.5C 108.167,389.5 107.833,389.5 107.5,389.5C 107.167,388.833 106.833,388.167 106.5,387.5 Z"/></g>
<g><path style="opacity:1" fill="#2d2520" d="M 75.5,385.5 C 76.6118,387.599 77.2785,389.933 77.5,392.5C 75.8372,390.562 75.1706,388.228 75.5,385.5 Z"/></g>
<g><path style="opacity:1" fill="#241d1a" d="M 220.5,390.5 C 222.027,390.427 223.027,391.094 223.5,392.5C 221.973,392.573 220.973,391.906 220.5,390.5 Z"/></g>
<g><path style="opacity:1" fill="#1e1915" d="M 451.5,388.5 C 451.277,392.162 450.277,395.495 448.5,398.5C 448.723,394.838 449.723,391.505 451.5,388.5 Z"/></g>
<g><path style="opacity:1" fill="#53473f" d="M 316.5,389.5 C 315.089,391.914 313.089,393.581 310.5,394.5C 311.911,392.086 313.911,390.419 316.5,389.5 Z"/></g>
<g><path style="opacity:1" fill="#4b3f38" d="M 164.5,394.5 C 164.027,395.906 163.027,396.573 161.5,396.5C 161.973,395.094 162.973,394.427 164.5,394.5 Z"/></g>
<g><path style="opacity:1" fill="#473c34" d="M 310.5,394.5 C 310.027,395.906 309.027,396.573 307.5,396.5C 307.973,395.094 308.973,394.427 310.5,394.5 Z"/></g>
<g><path style="opacity:1" fill="#38302d" d="M 161.5,396.5 C 161.027,397.906 160.027,398.573 158.5,398.5C 158.973,397.094 159.973,396.427 161.5,396.5 Z"/></g>
<g><path style="opacity:1" fill="#201b1a" d="M 305.5,397.5 C 304.341,399.25 302.674,400.25 300.5,400.5C 301.659,398.75 303.326,397.75 305.5,397.5 Z"/></g>
<g><path style="opacity:1" fill="#2d251a" d="M 232.5,398.5 C 234.027,398.427 235.027,399.094 235.5,400.5C 233.973,400.573 232.973,399.906 232.5,398.5 Z"/></g>
<g><path style="opacity:1" fill="#241e1c" d="M 300.5,400.5 C 299.22,401.931 297.553,402.598 295.5,402.5C 296.78,401.069 298.447,400.402 300.5,400.5 Z"/></g>
<g><path style="opacity:1" fill="#c0afa3" d="M 107.5,389.5 C 107.833,389.5 108.167,389.5 108.5,389.5C 115.153,395.535 122.486,400.201 130.5,403.5C 128.932,404.473 127.265,404.64 125.5,404C 120.266,400.576 114.932,398.243 109.5,397C 109.833,396.667 110.167,396.333 110.5,396C 108.781,394.13 107.781,391.963 107.5,389.5 Z"/></g>
<g><path style="opacity:1" fill="#50443b" d="M 295.5,402.5 C 294.365,404.213 292.698,404.88 290.5,404.5C 291.93,403.463 293.597,402.796 295.5,402.5 Z"/></g>
<g><path style="opacity:1" fill="#272520" d="M 81.5,403.5 C 82.6737,404.514 83.3404,405.847 83.5,407.5C 81.8958,406.713 81.2291,405.38 81.5,403.5 Z"/></g>
<g><path style="opacity:1" fill="#251f1b" d="M 249.5,405.5 C 253.425,405.43 257.091,406.097 260.5,407.5C 256.542,407.749 252.876,407.082 249.5,405.5 Z"/></g>
<g><path style="opacity:1" fill="#151411" d="M 443.5,409.5 C 443.573,411.027 442.906,412.027 441.5,412.5C 441.427,410.973 442.094,409.973 443.5,409.5 Z"/></g>
<g><path style="opacity:1" fill="#564f49" d="M 85.5,411.5 C 87.4456,412.035 88.4456,413.368 88.5,415.5C 87.0256,414.564 86.0256,413.23 85.5,411.5 Z"/></g>
<g><path style="opacity:1" fill="#1c1815" d="M 441.5,412.5 C 441.573,414.027 440.906,415.027 439.5,415.5C 439.427,413.973 440.094,412.973 441.5,412.5 Z"/></g>
<g><path style="opacity:1" fill="#201c1a" d="M 88.5,415.5 C 90.2624,416.262 91.2624,417.596 91.5,419.5C 89.7376,418.738 88.7376,417.404 88.5,415.5 Z"/></g>
<g><path style="opacity:1" fill="#191514" d="M 438.5,416.5 C 438.573,418.027 437.906,419.027 436.5,419.5C 436.427,417.973 437.094,416.973 438.5,416.5 Z"/></g>
<g><path style="opacity:1" fill="#423a35" d="M 94.5,422.5 C 97.0892,423.419 99.0892,425.086 100.5,427.5C 97.9108,426.581 95.9108,424.914 94.5,422.5 Z"/></g>
<g><path style="opacity:1" fill="#14110c" d="M 434.5,421.5 C 434.5,422.833 433.833,423.5 432.5,423.5C 432.833,422.5 433.5,421.833 434.5,421.5 Z"/></g>
<g><path style="opacity:1" fill="#36322a" d="M 100.5,427.5 C 102.027,427.427 103.027,428.094 103.5,429.5C 101.973,429.573 100.973,428.906 100.5,427.5 Z"/></g>
<g><path style="opacity:1" fill="#1b1613" d="M 428.5,427.5 C 428.027,428.906 427.027,429.573 425.5,429.5C 425.973,428.094 426.973,427.427 428.5,427.5 Z"/></g>
<g><path style="opacity:1" fill="#2f2b1f" d="M 108.5,432.5 C 110.027,432.427 111.027,433.094 111.5,434.5C 109.973,434.573 108.973,433.906 108.5,432.5 Z"/></g>
<g><path style="opacity:1" fill="#352e26" d="M 112.5,434.5 C 114.153,434.66 115.486,435.326 116.5,436.5C 114.62,436.771 113.287,436.104 112.5,434.5 Z"/></g>
<g><path style="opacity:1" fill="#1a1512" d="M 116.5,436.5 C 118.553,436.402 120.22,437.069 121.5,438.5C 119.447,438.598 117.78,437.931 116.5,436.5 Z"/></g>
<g><path style="opacity:1" fill="#1a1614" d="M 412.5,436.5 C 411.365,438.213 409.698,438.88 407.5,438.5C 408.78,437.069 410.447,436.402 412.5,436.5 Z"/></g>
<g><path style="opacity:1" fill="#5a4e43" d="M 122.5,438.5 C 128.727,440.139 135.061,441.306 141.5,442C 222.166,442.5 302.833,442.667 383.5,442.5C 383.5,442.833 383.5,443.167 383.5,443.5C 301.833,443.667 220.166,443.5 138.5,443C 132.782,442.408 127.449,440.908 122.5,438.5 Z"/></g>
<g><path style="opacity:1" fill="#1f1813" d="M 406.5,438.5 C 406.389,439.117 406.056,439.617 405.5,440C 398.303,442.052 390.97,443.219 383.5,443.5C 383.5,443.167 383.5,442.833 383.5,442.5C 391.341,442.094 399.008,440.761 406.5,438.5 Z"/></g>
</svg>
