<?xml version="1.0" encoding="UTF-8"?>
<!DOCTYPE svg PUBLIC "-//W3C//DTD SVG 1.1//EN" "http://www.w3.org/Graphics/SVG/1.1/DTD/svg11.dtd">
<svg xmlns="http://www.w3.org/2000/svg" version="1.1" width="500px" height="500px" style="shape-rendering:geometricPrecision; text-rendering:geometricPrecision; image-rendering:optimizeQuality; fill-rule:evenodd; clip-rule:evenodd" xmlns:xlink="http://www.w3.org/1999/xlink">
<g><path style="opacity:1" fill="#6a6a6a" d="M 393.5,60.5 C 305.167,60.5 216.833,60.5 128.5,60.5C 129.952,59.6981 131.618,59.1981 133.5,59C 218.833,58.3333 304.167,58.3333 389.5,59C 391.058,59.21 392.391,59.71 393.5,60.5 Z"/></g>
<g><path style="opacity:1" fill="#161616" d="M 127.5,60.5 C 125.401,61.6118 123.067,62.2785 120.5,62.5C 122.438,60.8372 124.772,60.1706 127.5,60.5 Z"/></g>
<g><path style="opacity:1" fill="#f7f7f7" d="M 127.5,60.5 C 127.833,60.5 128.167,60.5 128.5,60.5C 216.833,60.5 305.167,60.5 393.5,60.5C 402.208,61.0269 409.874,64.0269 416.5,69.5C 418.193,72.1897 420.527,74.1897 423.5,75.5C 424.5,75.8333 425.167,76.5 425.5,77.5C 425.427,79.0269 426.094,80.0269 427.5,80.5C 428.5,80.8333 429.167,81.5 429.5,82.5C 429.427,84.0269 430.094,85.0269 431.5,85.5C 432.338,85.8417 432.672,86.5084 432.5,87.5C 432.833,88.5 433.5,89.1667 434.5,89.5C 434.5,89.8333 434.5,90.1667 434.5,90.5C 434.427,92.0269 435.094,93.0269 436.5,93.5C 436.5,93.8333 436.5,94.1667 436.5,94.5C 436.66,96.153 437.326,97.4863 438.5,98.5C 438.69,101.855 439.69,104.855 441.5,107.5C 442.451,108.919 442.784,110.585 442.5,112.5C 442.5,147.833 442.5,183.167 442.5,218.5C 442.737,219.791 442.404,220.791 441.5,221.5C 439.992,223.181 438.992,225.181 438.5,227.5C 437.5,227.833 436.833,228.5 436.5,229.5C 435.5,229.833 434.833,230.5 434.5,231.5C 432.351,233.746 429.684,235.246 426.5,236C 420.833,236.667 415.167,236.667 409.5,236C 407.942,235.79 406.609,235.29 405.5,234.5C 404.365,232.787 402.698,232.12 400.5,232.5C 399.508,232.672 398.842,232.338 398.5,231.5C 397.341,229.75 395.674,228.75 393.5,228.5C 392.738,226.738 391.404,225.738 389.5,225.5C 386.833,222.167 383.833,219.167 380.5,216.5C 379.833,216.5 379.5,216.167 379.5,215.5C 379.573,213.973 378.906,212.973 377.5,212.5C 376.11,211.101 375.11,209.434 374.5,207.5C 373.686,203.884 372.352,200.551 370.5,197.5C 370.405,195.214 369.738,193.214 368.5,191.5C 368.5,191.167 368.5,190.833 368.5,190.5C 367.75,175.52 367.25,160.52 367,145.5C 366.689,141.91 365.856,138.577 364.5,135.5C 364.554,132.008 363.554,129.008 361.5,126.5C 361.598,124.447 360.931,122.78 359.5,121.5C 358.326,120.486 357.66,119.153 357.5,117.5C 357.715,115.821 357.048,114.821 355.5,114.5C 355.573,112.973 354.906,111.973 353.5,111.5C 353.573,109.973 352.906,108.973 351.5,108.5C 350.5,108.167 349.833,107.5 349.5,106.5C 348.581,103.911 346.914,101.911 344.5,100.5C 344.027,99.0937 343.027,98.427 341.5,98.5C 340.738,96.7376 339.404,95.7376 337.5,95.5C 336.738,93.7376 335.404,92.7376 333.5,92.5C 332.508,92.6716 331.842,92.3382 331.5,91.5C 328.705,88.7691 325.372,87.1025 321.5,86.5C 320.391,86.4431 319.391,86.1098 318.5,85.5C 317.01,83.7202 315.01,83.0535 312.5,83.5C 307.075,82.0158 301.409,81.3491 295.5,81.5C 289.591,81.3491 283.925,82.0158 278.5,83.5C 276.214,83.595 274.214,84.2616 272.5,85.5C 269.654,85.5516 267.32,86.5516 265.5,88.5C 263.151,90.341 260.485,91.6743 257.5,92.5C 255.973,92.427 254.973,93.0937 254.5,94.5C 252.973,94.427 251.973,95.0937 251.5,96.5C 251.167,97.5 250.5,98.1667 249.5,98.5C 247.973,98.427 246.973,99.0937 246.5,100.5C 245.5,100.833 244.833,101.5 244.5,102.5C 244.167,103.5 243.5,104.167 242.5,104.5C 240.738,105.262 239.738,106.596 239.5,108.5C 238.833,109.833 237.833,110.833 236.5,111.5C 235.094,111.973 234.427,112.973 234.5,114.5C 231.433,114.121 230.433,115.121 231.5,117.5C 228.833,119.5 226.5,121.833 224.5,124.5C 224.167,125.5 223.5,126.167 222.5,126.5C 220.973,126.427 219.973,127.094 219.5,128.5C 219.027,129.906 218.027,130.573 216.5,130.5C 213.515,131.326 210.849,132.659 208.5,134.5C 201.987,137.697 194.987,139.197 187.5,139C 165.167,139.667 142.833,139.667 120.5,139C 117.12,138.661 113.787,138.161 110.5,137.5C 108.786,136.262 106.786,135.595 104.5,135.5C 103.817,133.824 102.483,133.157 100.5,133.5C 99.5084,133.672 98.8417,133.338 98.5,132.5C 97.7377,130.738 96.4044,129.738 94.5,129.5C 94.1667,128.5 93.5,127.833 92.5,127.5C 91.8333,126.167 90.8333,125.167 89.5,124.5C 89.573,122.973 88.9063,121.973 87.5,121.5C 87.3404,119.847 86.6737,118.514 85.5,117.5C 84.596,116.791 84.2627,115.791 84.5,114.5C 84.3599,108.464 84.6932,102.464 85.5,96.5C 85.5,96.1667 85.5,95.8333 85.5,95.5C 87.2132,94.3646 87.8799,92.698 87.5,90.5C 89.1765,89.8166 89.8432,88.4832 89.5,86.5C 90.9063,86.0269 91.573,85.0269 91.5,83.5C 93.2624,82.7377 94.2624,81.4044 94.5,79.5C 95.5,79.1667 96.1667,78.5 96.5,77.5C 97.5,77.1667 98.1667,76.5 98.5,75.5C 101.427,74.2427 103.761,72.2427 105.5,69.5C 105.842,68.6618 106.508,68.3284 107.5,68.5C 109.027,68.573 110.027,67.9063 110.5,66.5C 112.153,66.3404 113.486,65.6737 114.5,64.5C 114.833,64.5 115.167,64.5 115.5,64.5C 117.153,64.3404 118.486,63.6737 119.5,62.5C 119.833,62.5 120.167,62.5 120.5,62.5C 123.067,62.2785 125.401,61.6118 127.5,60.5 Z"/></g>
<g><path style="opacity:1" fill="#323232" d="M 119.5,62.5 C 118.486,63.6737 117.153,64.3404 115.5,64.5C 116.287,62.8958 117.62,62.2291 119.5,62.5 Z"/></g>
<g><path style="opacity:1" fill="#141414" d="M 114.5,64.5 C 113.486,65.6737 112.153,66.3404 110.5,66.5C 111.287,64.8958 112.62,64.2291 114.5,64.5 Z"/></g>
<g><path style="opacity:1" fill="#404040" d="M 110.5,66.5 C 110.027,67.9063 109.027,68.573 107.5,68.5C 107.973,67.0937 108.973,66.427 110.5,66.5 Z"/></g>
<g><path style="opacity:1" fill="#373737" d="M 416.5,69.5 C 419.447,70.7805 421.781,72.7805 423.5,75.5C 420.527,74.1897 418.193,72.1897 416.5,69.5 Z"/></g>
<g><path style="opacity:1" fill="#676767" d="M 105.5,69.5 C 103.761,72.2427 101.427,74.2427 98.5,75.5C 100.239,72.7573 102.573,70.7573 105.5,69.5 Z"/></g>
<g><path style="opacity:1" fill="#282828" d="M 98.5,75.5 C 98.1667,76.5 97.5,77.1667 96.5,77.5C 96.5,76.1667 97.1667,75.5 98.5,75.5 Z"/></g>
<g><path style="opacity:1" fill="#161616" d="M 96.5,77.5 C 96.1667,78.5 95.5,79.1667 94.5,79.5C 94.5,78.1667 95.1667,77.5 96.5,77.5 Z"/></g>
<g><path style="opacity:1" fill="#4d4d4d" d="M 425.5,77.5 C 426.906,77.9731 427.573,78.9731 427.5,80.5C 426.094,80.0269 425.427,79.0269 425.5,77.5 Z"/></g>
<g><path style="opacity:1" fill="#3f3f3f" d="M 94.5,79.5 C 94.2624,81.4044 93.2624,82.7377 91.5,83.5C 91.7376,81.5956 92.7376,80.2623 94.5,79.5 Z"/></g>
<g><path style="opacity:1" fill="#131313" d="M 312.5,83.5 C 301.17,82.2403 289.837,82.2403 278.5,83.5C 283.925,82.0158 289.591,81.3491 295.5,81.5C 301.409,81.3491 307.075,82.0158 312.5,83.5 Z"/></g>
<g><path style="opacity:1" fill="#515151" d="M 312.5,83.5 C 315.01,83.0535 317.01,83.7202 318.5,85.5C 316.214,85.405 314.214,84.7384 312.5,83.5 Z"/></g>
<g><path style="opacity:1" fill="#181818" d="M 278.5,83.5 C 276.898,85.0739 274.898,85.7406 272.5,85.5C 274.214,84.2616 276.214,83.595 278.5,83.5 Z"/></g>
<g><path style="opacity:1" fill="#444444" d="M 429.5,82.5 C 430.906,82.9731 431.573,83.9731 431.5,85.5C 430.094,85.0269 429.427,84.0269 429.5,82.5 Z"/></g>
<g><path style="opacity:1" fill="#1f1f1f" d="M 91.5,83.5 C 91.573,85.0269 90.9063,86.0269 89.5,86.5C 89.427,84.9731 90.0937,83.9731 91.5,83.5 Z"/></g>
<g><path style="opacity:1" fill="#1a1a1a" d="M 272.5,85.5 C 270.491,87.0652 268.157,88.0652 265.5,88.5C 267.32,86.5516 269.654,85.5516 272.5,85.5 Z"/></g>
<g><path style="opacity:1" fill="#141414" d="M 432.5,87.5 C 433.833,87.5 434.5,88.1667 434.5,89.5C 433.5,89.1667 432.833,88.5 432.5,87.5 Z"/></g>
<g><path style="opacity:1" fill="#292929" d="M 321.5,86.5 C 325.372,87.1025 328.705,88.7691 331.5,91.5C 327.849,90.3411 324.515,88.6744 321.5,86.5 Z"/></g>
<g><path style="opacity:1" fill="#6c6c6c" d="M 89.5,86.5 C 89.8432,88.4832 89.1765,89.8166 87.5,90.5C 87.6596,88.847 88.3263,87.5137 89.5,86.5 Z"/></g>
<g><path style="opacity:1" fill="#383838" d="M 434.5,90.5 C 435.906,90.9731 436.573,91.9731 436.5,93.5C 435.094,93.0269 434.427,92.0269 434.5,90.5 Z"/></g>
<g><path style="opacity:1" fill="#505050" d="M 87.5,90.5 C 87.8799,92.698 87.2132,94.3646 85.5,95.5C 85.4021,93.4471 86.0687,91.7804 87.5,90.5 Z"/></g>
<g><path style="opacity:1" fill="#101010" d="M 257.5,92.5 C 257.027,93.9063 256.027,94.573 254.5,94.5C 254.973,93.0937 255.973,92.427 257.5,92.5 Z"/></g>
<g><path style="opacity:1" fill="#212121" d="M 333.5,92.5 C 335.404,92.7376 336.738,93.7376 337.5,95.5C 335.596,95.2624 334.262,94.2624 333.5,92.5 Z"/></g>
<g><path style="opacity:1" fill="#111111" d="M 254.5,94.5 C 254.027,95.9063 253.027,96.573 251.5,96.5C 251.973,95.0937 252.973,94.427 254.5,94.5 Z"/></g>
<g><path style="opacity:1" fill="#1f1f1f" d="M 436.5,94.5 C 438.104,95.287 438.771,96.6203 438.5,98.5C 437.326,97.4863 436.66,96.153 436.5,94.5 Z"/></g>
<g><path style="opacity:1" fill="#1f1f1f" d="M 337.5,95.5 C 339.404,95.7376 340.738,96.7376 341.5,98.5C 339.596,98.2624 338.262,97.2624 337.5,95.5 Z"/></g>
<g><path style="opacity:1" fill="#4c4c4c" d="M 341.5,98.5 C 343.027,98.427 344.027,99.0937 344.5,100.5C 342.973,100.573 341.973,99.9063 341.5,98.5 Z"/></g>
<g><path style="opacity:1" fill="#1c1c1c" d="M 249.5,98.5 C 249.027,99.9063 248.027,100.573 246.5,100.5C 246.973,99.0937 247.973,98.427 249.5,98.5 Z"/></g>
<g><path style="opacity:1" fill="#1a1a1a" d="M 246.5,100.5 C 246.5,101.833 245.833,102.5 244.5,102.5C 244.833,101.5 245.5,100.833 246.5,100.5 Z"/></g>
<g><path style="opacity:1" fill="#303030" d="M 344.5,100.5 C 346.914,101.911 348.581,103.911 349.5,106.5C 347.086,105.089 345.419,103.089 344.5,100.5 Z"/></g>
<g><path style="opacity:1" fill="#272727" d="M 438.5,98.5 C 440.472,101.084 441.472,104.084 441.5,107.5C 439.69,104.855 438.69,101.855 438.5,98.5 Z"/></g>
<g><path style="opacity:1" fill="#292929" d="M 85.5,96.5 C 84.6932,102.464 84.3599,108.464 84.5,114.5C 83.8362,112.19 83.5029,109.69 83.5,107C 83.3037,103.195 83.9704,99.6952 85.5,96.5 Z"/></g>
<g><path style="opacity:1" fill="#1e1e1e" d="M 242.5,104.5 C 242.262,106.404 241.262,107.738 239.5,108.5C 239.738,106.596 240.738,105.262 242.5,104.5 Z"/></g>
<g><path style="opacity:1" fill="#5d5d5d" d="M 289.5,108.5 C 286.495,110.277 283.162,111.277 279.5,111.5C 282.452,109.59 285.786,108.59 289.5,108.5 Z"/></g>
<g><path style="opacity:1" fill="#f5f5f5" d="M 312.5,111.5 C 314.181,113.008 316.181,114.008 318.5,114.5C 318.973,115.906 319.973,116.573 321.5,116.5C 322.167,116.5 322.5,116.833 322.5,117.5C 325.167,120.833 328.167,123.833 331.5,126.5C 331.427,128.027 332.094,129.027 333.5,129.5C 335.008,131.181 336.008,133.181 336.5,135.5C 336.12,137.698 336.787,139.365 338.5,140.5C 338.294,143.495 338.96,146.162 340.5,148.5C 341.299,162.456 341.799,176.456 342,190.5C 342.9,194.834 343.734,199.168 344.5,203.5C 344.054,206.01 344.72,208.01 346.5,209.5C 346.5,209.833 346.5,210.167 346.5,210.5C 346.66,212.153 347.326,213.486 348.5,214.5C 350.341,216.849 351.674,219.515 352.5,222.5C 352.427,224.027 353.094,225.027 354.5,225.5C 355.338,225.842 355.672,226.508 355.5,227.5C 355.738,229.404 356.738,230.738 358.5,231.5C 358.427,233.027 359.094,234.027 360.5,234.5C 363.833,239.833 368.167,244.167 373.5,247.5C 374.872,248.512 376.205,249.512 377.5,250.5C 378.035,252.446 379.368,253.446 381.5,253.5C 381.973,254.906 382.973,255.573 384.5,255.5C 387.032,256.596 389.365,257.929 391.5,259.5C 392.659,261.25 394.326,262.25 396.5,262.5C 397.514,263.674 398.847,264.34 400.5,264.5C 401.514,265.674 402.847,266.34 404.5,266.5C 407.485,267.326 410.151,268.659 412.5,270.5C 413.035,272.446 414.368,273.446 416.5,273.5C 416.973,274.906 417.973,275.573 419.5,275.5C 419.833,276.5 420.5,277.167 421.5,277.5C 424.167,280.833 427.167,283.833 430.5,286.5C 431.08,288.749 432.413,290.415 434.5,291.5C 434.427,293.027 435.094,294.027 436.5,294.5C 436.5,294.833 436.5,295.167 436.5,295.5C 436.66,297.153 437.326,298.486 438.5,299.5C 438.66,301.153 439.326,302.486 440.5,303.5C 440.719,307.8 441.719,311.8 443.5,315.5C 443.5,316.5 443.5,317.5 443.5,318.5C 443.5,337.167 443.5,355.833 443.5,374.5C 443.5,374.833 443.5,375.167 443.5,375.5C 442.291,379.618 441.624,383.951 441.5,388.5C 439.928,391.215 438.928,394.215 438.5,397.5C 438.02,400.443 437.02,403.11 435.5,405.5C 434.325,405.281 433.325,405.614 432.5,406.5C 433.791,407.527 433.791,408.527 432.5,409.5C 431.149,413.542 428.815,416.875 425.5,419.5C 422.685,420.229 420.685,421.229 419.5,422.5C 419.5,423.5 419.5,424.5 419.5,425.5C 417.45,427.547 415.117,429.214 412.5,430.5C 410.833,430.5 409.167,430.5 407.5,430.5C 407.5,431.5 407.5,432.5 407.5,433.5C 405.11,435.02 402.443,436.02 399.5,436.5C 396.572,436.565 393.905,437.232 391.5,438.5C 389.586,439.185 387.586,439.685 385.5,440C 303.5,440.667 221.5,440.667 139.5,440C 133.337,439.431 127.337,438.265 121.5,436.5C 120.486,435.326 119.153,434.66 117.5,434.5C 117.167,434.5 116.833,434.5 116.5,434.5C 115.486,433.326 114.153,432.66 112.5,432.5C 109.996,431.416 107.663,430.083 105.5,428.5C 104.738,426.738 103.404,425.738 101.5,425.5C 101.167,424.5 100.5,423.833 99.5,423.5C 98.7298,421.065 97.0632,419.731 94.5,419.5C 94.5,419.167 94.5,418.833 94.5,418.5C 94.1436,416.81 93.1436,415.81 91.5,415.5C 90.8333,415.5 90.5,415.167 90.5,414.5C 90.573,412.973 89.9063,411.973 88.5,411.5C 88.573,409.973 87.9063,408.973 86.5,408.5C 85.6618,408.158 85.3284,407.492 85.5,406.5C 85.3404,404.847 84.6737,403.514 83.5,402.5C 83.3404,400.847 82.6737,399.514 81.5,398.5C 80.0605,396.412 79.3939,394.079 79.5,391.5C 79.2785,388.933 78.6118,386.599 77.5,384.5C 76.6981,383.048 76.1981,381.382 76,379.5C 75.8188,355.636 75.3188,331.803 74.5,308C 75.1476,306.56 75.4809,305.06 75.5,303.5C 76.6167,299.705 77.2833,295.705 77.5,291.5C 77.9402,288.62 78.9402,285.954 80.5,283.5C 81.9063,283.027 82.573,282.027 82.5,280.5C 83.9063,280.027 84.573,279.027 84.5,277.5C 84.3284,276.508 84.6618,275.842 85.5,275.5C 86.5,275.167 87.1667,274.5 87.5,273.5C 89.5,272.167 91.1667,270.5 92.5,268.5C 93.5,268.167 94.1667,267.5 94.5,266.5C 96.4044,266.262 97.7377,265.262 98.5,263.5C 98.8417,262.662 99.5084,262.328 100.5,262.5C 102.027,262.573 103.027,261.906 103.5,260.5C 105.698,260.88 107.365,260.213 108.5,258.5C 110.698,258.88 112.365,258.213 113.5,256.5C 115.042,255.699 116.708,255.366 118.5,255.5C 120.735,255.795 122.735,255.461 124.5,254.5C 129.5,253.167 134.5,253.167 139.5,254.5C 141.265,255.461 143.265,255.795 145.5,255.5C 149.214,255.59 152.548,256.59 155.5,258.5C 156.514,259.674 157.847,260.34 159.5,260.5C 159.833,260.5 160.167,260.5 160.5,260.5C 160.973,261.906 161.973,262.573 163.5,262.5C 164.492,262.328 165.158,262.662 165.5,263.5C 165.973,264.906 166.973,265.573 168.5,265.5C 169.167,265.5 169.5,265.833 169.5,266.5C 169.973,267.906 170.973,268.573 172.5,268.5C 172.525,271.179 173.858,272.512 176.5,272.5C 177.5,272.833 178.167,273.5 178.5,274.5C 178.738,276.404 179.738,277.738 181.5,278.5C 181.738,280.404 182.738,281.738 184.5,282.5C 184.427,284.027 185.094,285.027 186.5,285.5C 186.5,285.833 186.5,286.167 186.5,286.5C 186.427,288.027 187.094,289.027 188.5,289.5C 188.5,289.833 188.5,290.167 188.5,290.5C 188.66,292.153 189.326,293.486 190.5,294.5C 190.517,298.534 191.517,302.201 193.5,305.5C 193.5,306.5 193.5,307.5 193.5,308.5C 193.334,318.172 193.5,327.839 194,337.5C 194.186,340.036 194.686,342.369 195.5,344.5C 195.5,345.167 195.5,345.833 195.5,346.5C 195.42,349.781 196.087,352.781 197.5,355.5C 197.259,357.898 197.926,359.898 199.5,361.5C 200.11,362.391 200.443,363.391 200.5,364.5C 200.025,367.313 201.025,369.313 203.5,370.5C 204.338,370.842 204.672,371.508 204.5,372.5C 204.427,374.027 205.094,375.027 206.5,375.5C 206.427,377.027 207.094,378.027 208.5,378.5C 209.08,380.749 210.413,382.415 212.5,383.5C 212.833,384.5 213.5,385.167 214.5,385.5C 214.833,386.5 215.5,387.167 216.5,387.5C 216.833,388.5 217.5,389.167 218.5,389.5C 220.027,389.427 221.027,390.094 221.5,391.5C 221.973,392.906 222.973,393.573 224.5,393.5C 225.71,393.932 226.71,394.599 227.5,395.5C 228.659,397.25 230.326,398.25 232.5,398.5C 234.153,398.66 235.486,399.326 236.5,400.5C 237.78,401.931 239.447,402.598 241.5,402.5C 241.833,402.5 242.167,402.5 242.5,402.5C 244.438,404.163 246.772,404.829 249.5,404.5C 250.263,405.268 251.263,405.768 252.5,406C 260.833,406.667 269.167,406.667 277.5,406C 281.529,405.584 285.196,404.417 288.5,402.5C 288.833,402.5 289.167,402.5 289.5,402.5C 291.967,402.245 293.967,401.245 295.5,399.5C 297.38,399.771 298.713,399.104 299.5,397.5C 299.842,396.662 300.508,396.328 301.5,396.5C 305.049,395.277 308.049,393.277 310.5,390.5C 313.167,387.167 316.167,384.167 319.5,381.5C 320.906,381.027 321.573,380.027 321.5,378.5C 322.906,378.027 323.573,377.027 323.5,375.5C 324.906,375.027 325.573,374.027 325.5,372.5C 326.674,371.486 327.34,370.153 327.5,368.5C 329.213,367.365 329.88,365.698 329.5,363.5C 331.213,362.365 331.88,360.698 331.5,358.5C 331.5,358.167 331.5,357.833 331.5,357.5C 333.163,355.562 333.829,353.228 333.5,350.5C 333.5,349.833 333.5,349.167 333.5,348.5C 334.29,347.391 334.79,346.058 335,344.5C 335.828,327.662 335.662,310.995 334.5,294.5C 333.532,292.393 333.198,290.059 333.5,287.5C 333.706,284.505 333.04,281.838 331.5,279.5C 331.741,277.102 331.074,275.102 329.5,273.5C 327.326,270.485 325.659,267.151 324.5,263.5C 323.66,261.147 322.326,259.147 320.5,257.5C 319.833,257.5 319.5,257.167 319.5,256.5C 319.573,254.973 318.906,253.973 317.5,253.5C 316.833,253.5 316.5,253.167 316.5,252.5C 313.167,247.167 308.833,242.833 303.5,239.5C 302.738,237.738 301.404,236.738 299.5,236.5C 299.027,235.094 298.027,234.427 296.5,234.5C 296.027,233.094 295.027,232.427 293.5,232.5C 293.027,231.094 292.027,230.427 290.5,230.5C 290.027,229.094 289.027,228.427 287.5,228.5C 286.564,227.026 285.23,226.026 283.5,225.5C 283.027,224.094 282.027,223.427 280.5,223.5C 279.833,222.167 278.833,221.167 277.5,220.5C 277.027,219.094 276.027,218.427 274.5,218.5C 273.5,218.167 272.833,217.5 272.5,216.5C 272.167,215.5 271.5,214.833 270.5,214.5C 269.167,213.833 268.167,212.833 267.5,211.5C 266.864,209.205 265.531,207.539 263.5,206.5C 262.662,206.158 262.328,205.492 262.5,204.5C 262.573,202.973 261.906,201.973 260.5,201.5C 260.34,199.847 259.674,198.514 258.5,197.5C 256,194.34 254.667,190.673 254.5,186.5C 254.539,185.417 254.873,184.417 255.5,183.5C 254.083,180.908 253.083,178.241 252.5,175.5C 251.222,164.829 251.388,154.162 253,143.5C 253.39,140.896 254.224,138.562 255.5,136.5C 257.008,134.819 258.008,132.819 258.5,130.5C 258.328,129.508 258.662,128.842 259.5,128.5C 260.906,128.027 261.573,127.027 261.5,125.5C 264.833,122.833 267.833,119.833 270.5,116.5C 272.027,116.573 273.027,115.906 273.5,114.5C 273.842,113.662 274.508,113.328 275.5,113.5C 277.153,113.34 278.486,112.674 279.5,111.5C 283.162,111.277 286.495,110.277 289.5,108.5C 297.588,106.808 305.255,107.808 312.5,111.5 Z M 146.5,309.5 C 148.214,310.738 150.214,311.405 152.5,311.5C 152.833,311.5 153.167,311.5 153.5,311.5C 154.287,313.104 155.62,313.771 157.5,313.5C 157.973,314.906 158.973,315.573 160.5,315.5C 160.973,316.906 161.973,317.573 163.5,317.5C 165.167,319.833 167.167,321.833 169.5,323.5C 169.5,324.167 169.833,324.5 170.5,324.5C 170.427,326.027 171.094,327.027 172.5,327.5C 172.427,329.027 173.094,330.027 174.5,330.5C 176.625,333.088 177.958,336.088 178.5,339.5C 178.41,342.152 179.076,344.485 180.5,346.5C 183.143,358.953 181.143,370.62 174.5,381.5C 173.094,381.973 172.427,382.973 172.5,384.5C 171.094,384.973 170.427,385.973 170.5,387.5C 168.167,389.167 166.167,391.167 164.5,393.5C 162.596,393.738 161.262,394.738 160.5,396.5C 158.819,398.008 156.819,399.008 154.5,399.5C 150.975,400.21 147.642,401.21 144.5,402.5C 141.167,402.5 137.833,402.5 134.5,402.5C 132.401,401.388 130.067,400.721 127.5,400.5C 124.646,400.076 121.979,399.076 119.5,397.5C 117.878,395.359 115.878,393.692 113.5,392.5C 112.167,390.5 110.5,388.833 108.5,387.5C 108.5,386.167 107.833,385.5 106.5,385.5C 105.833,384.167 105.167,382.833 104.5,381.5C 104.573,379.973 103.906,378.973 102.5,378.5C 102.5,378.167 102.5,377.833 102.5,377.5C 102.34,375.847 101.674,374.514 100.5,373.5C 100.405,371.214 99.7384,369.214 98.5,367.5C 97.197,359.803 97.197,352.136 98.5,344.5C 99.7384,342.786 100.405,340.786 100.5,338.5C 101.931,337.22 102.598,335.553 102.5,333.5C 102.66,331.847 103.326,330.514 104.5,329.5C 105.974,328.564 106.974,327.23 107.5,325.5C 108.906,325.027 109.573,324.027 109.5,322.5C 110.5,322.167 111.167,321.5 111.5,320.5C 112.833,320.5 113.5,319.833 113.5,318.5C 117.215,315.808 121.215,313.475 125.5,311.5C 128.152,311.59 130.485,310.924 132.5,309.5C 137.135,308.222 141.802,308.222 146.5,309.5 Z"/></g>
<g><path style="opacity:1" fill="#202020" d="M 351.5,108.5 C 352.906,108.973 353.573,109.973 353.5,111.5C 352.094,111.027 351.427,110.027 351.5,108.5 Z"/></g>
<g><path style="opacity:1" fill="#212121" d="M 236.5,111.5 C 236.573,113.027 235.906,114.027 234.5,114.5C 234.427,112.973 235.094,111.973 236.5,111.5 Z"/></g>
<g><path style="opacity:1" fill="#2e2e2e" d="M 279.5,111.5 C 278.486,112.674 277.153,113.34 275.5,113.5C 276.287,111.896 277.62,111.229 279.5,111.5 Z"/></g>
<g><path style="opacity:1" fill="#1b1b1b" d="M 312.5,111.5 C 315.089,111.461 317.089,112.461 318.5,114.5C 316.181,114.008 314.181,113.008 312.5,111.5 Z"/></g>
<g><path style="opacity:1" fill="#181818" d="M 353.5,111.5 C 354.906,111.973 355.573,112.973 355.5,114.5C 354.094,114.027 353.427,113.027 353.5,111.5 Z"/></g>
<g><path style="opacity:1" fill="#939393" d="M 234.5,114.5 C 233.833,115.833 232.833,116.833 231.5,117.5C 230.433,115.121 231.433,114.121 234.5,114.5 Z"/></g>
<g><path style="opacity:1" fill="#707070" d="M 355.5,114.5 C 357.048,114.821 357.715,115.821 357.5,117.5C 356.599,116.71 355.932,115.71 355.5,114.5 Z"/></g>
<g><path style="opacity:1" fill="#383838" d="M 273.5,114.5 C 273.027,115.906 272.027,116.573 270.5,116.5C 270.973,115.094 271.973,114.427 273.5,114.5 Z"/></g>
<g><path style="opacity:1" fill="#282828" d="M 318.5,114.5 C 320.027,114.427 321.027,115.094 321.5,116.5C 319.973,116.573 318.973,115.906 318.5,114.5 Z"/></g>
<g><path style="opacity:1" fill="#252525" d="M 322.5,117.5 C 326.5,119.5 329.5,122.5 331.5,126.5C 328.167,123.833 325.167,120.833 322.5,117.5 Z"/></g>
<g><path style="opacity:1" fill="#161616" d="M 85.5,117.5 C 86.6737,118.514 87.3404,119.847 87.5,121.5C 85.8958,120.713 85.2291,119.38 85.5,117.5 Z"/></g>
<g><path style="opacity:1" fill="#2e2e2e" d="M 270.5,116.5 C 267.833,119.833 264.833,122.833 261.5,125.5C 263.5,121.5 266.5,118.5 270.5,116.5 Z"/></g>
<g><path style="opacity:1" fill="#202020" d="M 231.5,117.5 C 230.167,120.833 227.833,123.167 224.5,124.5C 226.5,121.833 228.833,119.5 231.5,117.5 Z"/></g>
<g><path style="opacity:1" fill="#1b1b1b" d="M 359.5,121.5 C 360.931,122.78 361.598,124.447 361.5,126.5C 360.069,125.22 359.402,123.553 359.5,121.5 Z"/></g>
<g><path style="opacity:1" fill="#262626" d="M 87.5,121.5 C 88.9063,121.973 89.573,122.973 89.5,124.5C 88.0937,124.027 87.427,123.027 87.5,121.5 Z"/></g>
<g><path style="opacity:1" fill="#0f0f0f" d="M 89.5,124.5 C 90.8333,125.167 91.8333,126.167 92.5,127.5C 90.5,127.5 89.5,126.5 89.5,124.5 Z"/></g>
<g><path style="opacity:1" fill="#1d1d1d" d="M 222.5,126.5 C 222.027,127.906 221.027,128.573 219.5,128.5C 219.973,127.094 220.973,126.427 222.5,126.5 Z"/></g>
<g><path style="opacity:1" fill="#3a3a3a" d="M 261.5,125.5 C 261.573,127.027 260.906,128.027 259.5,128.5C 259.427,126.973 260.094,125.973 261.5,125.5 Z"/></g>
<g><path style="opacity:1" fill="#838383" d="M 442.5,112.5 C 443.325,116.647 443.825,120.981 444,125.5C 444.667,153.167 444.667,180.833 444,208.5C 443.821,212.025 443.321,215.359 442.5,218.5C 442.5,183.167 442.5,147.833 442.5,112.5 Z"/></g>
<g><path style="opacity:1" fill="#0a0a0a" d="M 92.5,127.5 C 93.5,127.833 94.1667,128.5 94.5,129.5C 93.1667,129.5 92.5,128.833 92.5,127.5 Z"/></g>
<g><path style="opacity:1" fill="#1f1f1f" d="M 331.5,126.5 C 332.906,126.973 333.573,127.973 333.5,129.5C 332.094,129.027 331.427,128.027 331.5,126.5 Z"/></g>
<g><path style="opacity:1" fill="#282828" d="M 94.5,129.5 C 96.4044,129.738 97.7377,130.738 98.5,132.5C 96.5956,132.262 95.2623,131.262 94.5,129.5 Z"/></g>
<g><path style="opacity:1" fill="#1d1d1d" d="M 216.5,130.5 C 214.421,132.873 211.754,134.206 208.5,134.5C 210.849,132.659 213.515,131.326 216.5,130.5 Z"/></g>
<g><path style="opacity:1" fill="#262626" d="M 361.5,126.5 C 363.554,129.008 364.554,132.008 364.5,135.5C 362.928,132.785 361.928,129.785 361.5,126.5 Z"/></g>
<g><path style="opacity:1" fill="#696969" d="M 100.5,133.5 C 102.483,133.157 103.817,133.824 104.5,135.5C 102.847,135.34 101.514,134.674 100.5,133.5 Z"/></g>
<g><path style="opacity:1" fill="#2a2a2a" d="M 258.5,130.5 C 258.008,132.819 257.008,134.819 255.5,136.5C 255.461,133.911 256.461,131.911 258.5,130.5 Z"/></g>
<g><path style="opacity:1" fill="#0e0e0e" d="M 104.5,135.5 C 106.786,135.595 108.786,136.262 110.5,137.5C 108.102,137.741 106.102,137.074 104.5,135.5 Z"/></g>
<g><path style="opacity:1" fill="#646464" d="M 336.5,135.5 C 337.537,136.93 338.204,138.597 338.5,140.5C 336.787,139.365 336.12,137.698 336.5,135.5 Z"/></g>
<g><path style="opacity:1" fill="#232323" d="M 338.5,140.5 C 339.768,142.905 340.435,145.572 340.5,148.5C 338.96,146.162 338.294,143.495 338.5,140.5 Z"/></g>
<g><path style="opacity:1" fill="#020202" d="M 78.5,152.5 C 76.5209,164.12 75.8542,176.12 76.5,188.5C 75.5048,176.345 75.1714,164.011 75.5,151.5C 76.791,151.263 77.791,151.596 78.5,152.5 Z"/></g>
<g><path style="opacity:1" fill="#161616" d="M 78.5,153.5 C 78.5,153.167 78.5,152.833 78.5,152.5C 81.0892,153.419 83.0892,155.086 84.5,157.5C 82.2459,156.585 80.2459,155.252 78.5,153.5 Z"/></g>
<g><path style="opacity:1" fill="#f5f5f5" d="M 78.5,153.5 C 80.2459,155.252 82.2459,156.585 84.5,157.5C 84.9731,158.906 85.9731,159.573 87.5,159.5C 87.9731,160.906 88.9731,161.573 90.5,161.5C 91.4916,161.328 92.1583,161.662 92.5,162.5C 93.062,165.773 94.7287,166.773 97.5,165.5C 97.8333,165.5 98.1667,165.5 98.5,165.5C 100.214,166.738 102.214,167.405 104.5,167.5C 106.099,167.232 107.432,167.566 108.5,168.5C 109.952,169.302 111.618,169.802 113.5,170C 130.497,170.5 147.497,170.667 164.5,170.5C 164.833,170.5 165.167,170.5 165.5,170.5C 168.589,171.785 171.922,172.451 175.5,172.5C 176.514,173.674 177.847,174.34 179.5,174.5C 180.66,175.265 181.66,176.265 182.5,177.5C 183.689,178.429 185.022,178.762 186.5,178.5C 188.027,178.427 189.027,179.094 189.5,180.5C 191.239,183.243 193.573,185.243 196.5,186.5C 197.08,188.749 198.413,190.415 200.5,191.5C 200.427,193.027 201.094,194.027 202.5,194.5C 202.427,196.027 203.094,197.027 204.5,197.5C 206.341,199.849 207.674,202.515 208.5,205.5C 208.427,207.027 209.094,208.027 210.5,208.5C 211.338,208.842 211.672,209.508 211.5,210.5C 211.427,212.027 212.094,213.027 213.5,213.5C 213.427,215.027 214.094,216.027 215.5,216.5C 215.738,218.404 216.738,219.738 218.5,220.5C 219.5,220.833 220.167,221.5 220.5,222.5C 221.167,225.167 222.833,226.833 225.5,227.5C 226.167,227.5 226.5,227.833 226.5,228.5C 227.585,230.587 229.251,231.92 231.5,232.5C 231.973,233.906 232.973,234.573 234.5,234.5C 234.973,235.906 235.973,236.573 237.5,236.5C 237.973,237.906 238.973,238.573 240.5,238.5C 242.674,238.75 244.341,239.75 245.5,241.5C 246.514,242.674 247.847,243.34 249.5,243.5C 250.78,244.931 252.447,245.598 254.5,245.5C 256.786,245.595 258.786,246.262 260.5,247.5C 261.514,248.674 262.847,249.34 264.5,249.5C 264.833,249.5 265.167,249.5 265.5,249.5C 266.884,252.248 268.884,252.914 271.5,251.5C 272.609,251.557 273.609,251.89 274.5,252.5C 275.911,254.539 277.911,255.539 280.5,255.5C 281.71,255.932 282.71,256.599 283.5,257.5C 283.973,258.906 284.973,259.573 286.5,259.5C 287.167,259.5 287.5,259.833 287.5,260.5C 287.973,261.906 288.973,262.573 290.5,262.5C 291.5,262.833 292.167,263.5 292.5,264.5C 292.833,265.5 293.5,266.167 294.5,266.5C 294.833,267.5 295.5,268.167 296.5,268.5C 297.08,270.749 298.413,272.415 300.5,273.5C 300.427,275.027 301.094,276.027 302.5,276.5C 303.338,276.842 303.672,277.508 303.5,278.5C 303.427,280.027 304.094,281.027 305.5,281.5C 305.5,281.833 305.5,282.167 305.5,282.5C 305.12,284.698 305.787,286.365 307.5,287.5C 308.09,288.766 308.59,290.099 309,291.5C 309.5,306.163 309.667,320.83 309.5,335.5C 308.215,338.589 307.549,341.922 307.5,345.5C 306.262,347.214 305.595,349.214 305.5,351.5C 304.326,352.514 303.66,353.847 303.5,355.5C 302.849,358.803 301.182,361.47 298.5,363.5C 297.5,363.833 296.833,364.5 296.5,365.5C 295.5,365.833 294.833,366.5 294.5,367.5C 294.5,367.833 294.5,368.167 294.5,368.5C 292.973,368.427 291.973,369.094 291.5,370.5C 289.368,372.955 286.701,374.621 283.5,375.5C 280.215,375.928 277.215,376.928 274.5,378.5C 266.332,380.008 258.332,379.675 250.5,377.5C 249.365,375.787 247.698,375.12 245.5,375.5C 243.847,375.34 242.514,374.674 241.5,373.5C 241.027,372.094 240.027,371.427 238.5,371.5C 237.738,369.738 236.404,368.738 234.5,368.5C 234.5,368.167 234.5,367.833 234.5,367.5C 234.027,366.094 233.027,365.427 231.5,365.5C 231.262,363.596 230.262,362.262 228.5,361.5C 227.662,361.158 227.328,360.492 227.5,359.5C 226.674,356.515 225.341,353.849 223.5,351.5C 221.864,347.79 221.198,343.79 221.5,339.5C 221.667,318.831 221.5,298.164 221,277.5C 220.809,275.292 220.309,273.292 219.5,271.5C 219.59,268.848 218.924,266.515 217.5,264.5C 215.796,261.744 214.463,258.744 213.5,255.5C 213.573,253.973 212.906,252.973 211.5,252.5C 210.167,250.5 208.833,248.5 207.5,246.5C 207.262,244.596 206.262,243.262 204.5,242.5C 202.5,241.167 200.833,239.5 199.5,237.5C 198.738,235.738 197.404,234.738 195.5,234.5C 195.027,233.094 194.027,232.427 192.5,232.5C 191.508,232.672 190.842,232.338 190.5,231.5C 189.713,229.896 188.38,229.229 186.5,229.5C 185.713,227.896 184.38,227.229 182.5,227.5C 181.486,226.326 180.153,225.66 178.5,225.5C 178.167,225.5 177.833,225.5 177.5,225.5C 175.485,224.076 173.152,223.41 170.5,223.5C 149.831,223.667 129.164,223.5 108.5,223C 105.111,222.224 101.778,221.391 98.5,220.5C 97.4863,219.326 96.153,218.66 94.5,218.5C 94.1667,218.5 93.8333,218.5 93.5,218.5C 93.0269,217.094 92.0269,216.427 90.5,216.5C 90.0269,215.094 89.0269,214.427 87.5,214.5C 85.8333,213.5 84.5,212.167 83.5,210.5C 83.2503,208.326 82.2503,206.659 80.5,205.5C 78.3952,202.592 77.3952,199.258 77.5,195.5C 77.1709,181.323 77.5042,167.323 78.5,153.5 Z"/></g>
<g><path style="opacity:1" fill="#161616" d="M 84.5,157.5 C 86.0269,157.427 87.0269,158.094 87.5,159.5C 85.9731,159.573 84.9731,158.906 84.5,157.5 Z"/></g>
<g><path style="opacity:1" fill="#2f2f2f" d="M 364.5,135.5 C 365.856,138.577 366.689,141.91 367,145.5C 367.25,160.52 367.75,175.52 368.5,190.5C 367.71,189.391 367.21,188.058 367,186.5C 366.913,169.448 366.08,152.448 364.5,135.5 Z"/></g>
<g><path style="opacity:1" fill="#141414" d="M 87.5,159.5 C 89.0269,159.427 90.0269,160.094 90.5,161.5C 88.9731,161.573 87.9731,160.906 87.5,159.5 Z"/></g>
<g><path style="opacity:1" fill="#999999" d="M 92.5,162.5 C 94.5652,162.953 96.2318,163.953 97.5,165.5C 94.7287,166.773 93.062,165.773 92.5,162.5 Z"/></g>
<g><path style="opacity:1" fill="#1a1a1a" d="M 98.5,165.5 C 100.898,165.259 102.898,165.926 104.5,167.5C 102.214,167.405 100.214,166.738 98.5,165.5 Z"/></g>
<g><path style="opacity:1" fill="#313131" d="M 108.5,168.5 C 127.326,169.057 145.992,169.723 164.5,170.5C 147.497,170.667 130.497,170.5 113.5,170C 111.618,169.802 109.952,169.302 108.5,168.5 Z"/></g>
<g><path style="opacity:1" fill="#272727" d="M 175.5,172.5 C 171.922,172.451 168.589,171.785 165.5,170.5C 165.435,170.062 165.601,169.728 166,169.5C 169.367,170.133 172.534,171.133 175.5,172.5 Z"/></g>
<g><path style="opacity:1" fill="#191919" d="M 175.5,172.5 C 177.38,172.229 178.713,172.896 179.5,174.5C 177.847,174.34 176.514,173.674 175.5,172.5 Z"/></g>
<g><path style="opacity:1" fill="#9b9b9b" d="M 78.5,152.5 C 78.5,152.833 78.5,153.167 78.5,153.5C 77.5042,167.323 77.1709,181.323 77.5,195.5C 76.5318,193.393 76.1984,191.059 76.5,188.5C 75.8542,176.12 76.5209,164.12 78.5,152.5 Z"/></g>
<g><path style="opacity:1" fill="#717171" d="M 179.5,174.5 C 182.326,174.998 184.66,176.331 186.5,178.5C 185.022,178.762 183.689,178.429 182.5,177.5C 181.66,176.265 180.66,175.265 179.5,174.5 Z"/></g>
<g><path style="opacity:1" fill="#252525" d="M 189.5,180.5 C 192.427,181.757 194.761,183.757 196.5,186.5C 193.573,185.243 191.239,183.243 189.5,180.5 Z"/></g>
<g><path style="opacity:1" fill="#767676" d="M 252.5,175.5 C 253.083,178.241 254.083,180.908 255.5,183.5C 254.873,184.417 254.539,185.417 254.5,186.5C 252.918,183.124 252.251,179.458 252.5,175.5 Z"/></g>
<g><path style="opacity:1" fill="#1e1e1e" d="M 196.5,186.5 C 198.587,187.585 199.92,189.251 200.5,191.5C 198.413,190.415 197.08,188.749 196.5,186.5 Z"/></g>
<g><path style="opacity:1" fill="#1d1d1d" d="M 200.5,191.5 C 201.906,191.973 202.573,192.973 202.5,194.5C 201.094,194.027 200.427,193.027 200.5,191.5 Z"/></g>
<g><path style="opacity:1" fill="#131313" d="M 368.5,191.5 C 369.738,193.214 370.405,195.214 370.5,197.5C 368.926,195.898 368.259,193.898 368.5,191.5 Z"/></g>
<g><path style="opacity:1" fill="#141414" d="M 202.5,194.5 C 203.906,194.973 204.573,195.973 204.5,197.5C 203.094,197.027 202.427,196.027 202.5,194.5 Z"/></g>
<g><path style="opacity:1" fill="#1d1d1d" d="M 258.5,197.5 C 259.674,198.514 260.34,199.847 260.5,201.5C 258.896,200.713 258.229,199.38 258.5,197.5 Z"/></g>
<g><path style="opacity:1" fill="#212121" d="M 260.5,201.5 C 261.906,201.973 262.573,202.973 262.5,204.5C 261.094,204.027 260.427,203.027 260.5,201.5 Z"/></g>
<g><path style="opacity:1" fill="#1e1e1e" d="M 370.5,197.5 C 372.352,200.551 373.686,203.884 374.5,207.5C 372.085,204.66 370.752,201.327 370.5,197.5 Z"/></g>
<g><path style="opacity:1" fill="#171717" d="M 80.5,205.5 C 82.2503,206.659 83.2503,208.326 83.5,210.5C 81.7497,209.341 80.7497,207.674 80.5,205.5 Z"/></g>
<g><path style="opacity:1" fill="#1f1f1f" d="M 208.5,205.5 C 209.906,205.973 210.573,206.973 210.5,208.5C 209.094,208.027 208.427,207.027 208.5,205.5 Z"/></g>
<g><path style="opacity:1" fill="#535353" d="M 344.5,203.5 C 345.738,205.214 346.405,207.214 346.5,209.5C 344.72,208.01 344.054,206.01 344.5,203.5 Z"/></g>
<g><path style="opacity:1" fill="#2e2e2e" d="M 263.5,206.5 C 265.531,207.539 266.864,209.205 267.5,211.5C 265.457,210.421 264.124,208.754 263.5,206.5 Z"/></g>
<g><path style="opacity:1" fill="#222222" d="M 346.5,210.5 C 348.104,211.287 348.771,212.62 348.5,214.5C 347.326,213.486 346.66,212.153 346.5,210.5 Z"/></g>
<g><path style="opacity:1" fill="#1a1a1a" d="M 211.5,210.5 C 212.906,210.973 213.573,211.973 213.5,213.5C 212.094,213.027 211.427,212.027 211.5,210.5 Z"/></g>
<g><path style="opacity:1" fill="#121212" d="M 377.5,212.5 C 378.906,212.973 379.573,213.973 379.5,215.5C 378.094,215.027 377.427,214.027 377.5,212.5 Z"/></g>
<g><path style="opacity:1" fill="#2c2c2c" d="M 87.5,214.5 C 89.0269,214.427 90.0269,215.094 90.5,216.5C 88.9731,216.573 87.9731,215.906 87.5,214.5 Z"/></g>
<g><path style="opacity:1" fill="#1a1a1a" d="M 213.5,213.5 C 214.906,213.973 215.573,214.973 215.5,216.5C 214.094,216.027 213.427,215.027 213.5,213.5 Z"/></g>
<g><path style="opacity:1" fill="#090909" d="M 270.5,214.5 C 271.5,214.833 272.167,215.5 272.5,216.5C 271.167,216.5 270.5,215.833 270.5,214.5 Z"/></g>
<g><path style="opacity:1" fill="#242424" d="M 90.5,216.5 C 92.0269,216.427 93.0269,217.094 93.5,218.5C 91.9731,218.573 90.9731,217.906 90.5,216.5 Z"/></g>
<g><path style="opacity:1" fill="#1b1b1b" d="M 380.5,216.5 C 383.833,219.167 386.833,222.167 389.5,225.5C 385.5,223.5 382.5,220.5 380.5,216.5 Z"/></g>
<g><path style="opacity:1" fill="#2b2b2b" d="M 215.5,216.5 C 217.262,217.262 218.262,218.596 218.5,220.5C 216.738,219.738 215.738,218.404 215.5,216.5 Z"/></g>
<g><path style="opacity:1" fill="#4f4f4f" d="M 274.5,218.5 C 276.027,218.427 277.027,219.094 277.5,220.5C 275.973,220.573 274.973,219.906 274.5,218.5 Z"/></g>
<g><path style="opacity:1" fill="#222222" d="M 94.5,218.5 C 96.153,218.66 97.4863,219.326 98.5,220.5C 96.6203,220.771 95.287,220.104 94.5,218.5 Z"/></g>
<g><path style="opacity:1" fill="#181818" d="M 277.5,220.5 C 278.833,221.167 279.833,222.167 280.5,223.5C 278.5,223.5 277.5,222.5 277.5,220.5 Z"/></g>
<g><path style="opacity:1" fill="#494949" d="M 220.5,222.5 C 222.5,223.833 224.167,225.5 225.5,227.5C 222.833,226.833 221.167,225.167 220.5,222.5 Z"/></g>
<g><path style="opacity:1" fill="#4e4e4e" d="M 170.5,223.5 C 173.152,223.41 175.485,224.076 177.5,225.5C 174.772,225.829 172.438,225.163 170.5,223.5 Z"/></g>
<g><path style="opacity:1" fill="#303030" d="M 280.5,223.5 C 282.027,223.427 283.027,224.094 283.5,225.5C 281.973,225.573 280.973,224.906 280.5,223.5 Z"/></g>
<g><path style="opacity:1" fill="#1c1c1c" d="M 352.5,222.5 C 353.906,222.973 354.573,223.973 354.5,225.5C 353.094,225.027 352.427,224.027 352.5,222.5 Z"/></g>
<g><path style="opacity:1" fill="#282828" d="M 441.5,221.5 C 441.539,224.089 440.539,226.089 438.5,227.5C 438.992,225.181 439.992,223.181 441.5,221.5 Z"/></g>
<g><path style="opacity:1" fill="#252525" d="M 178.5,225.5 C 180.153,225.66 181.486,226.326 182.5,227.5C 180.62,227.771 179.287,227.104 178.5,225.5 Z"/></g>
<g><path style="opacity:1" fill="#171717" d="M 283.5,225.5 C 285.23,226.026 286.564,227.026 287.5,228.5C 285.368,228.446 284.035,227.446 283.5,225.5 Z"/></g>
<g><path style="opacity:1" fill="#333333" d="M 389.5,225.5 C 391.404,225.738 392.738,226.738 393.5,228.5C 391.596,228.262 390.262,227.262 389.5,225.5 Z"/></g>
<g><path style="opacity:1" fill="#161616" d="M 182.5,227.5 C 184.38,227.229 185.713,227.896 186.5,229.5C 184.847,229.34 183.514,228.674 182.5,227.5 Z"/></g>
<g><path style="opacity:1" fill="#1c1c1c" d="M 226.5,228.5 C 228.749,229.08 230.415,230.413 231.5,232.5C 229.251,231.92 227.585,230.587 226.5,228.5 Z"/></g>
<g><path style="opacity:1" fill="#141414" d="M 438.5,227.5 C 438.5,228.833 437.833,229.5 436.5,229.5C 436.833,228.5 437.5,227.833 438.5,227.5 Z"/></g>
<g><path style="opacity:1" fill="#1f1f1f" d="M 186.5,229.5 C 188.38,229.229 189.713,229.896 190.5,231.5C 188.847,231.34 187.514,230.674 186.5,229.5 Z"/></g>
<g><path style="opacity:1" fill="#212121" d="M 287.5,228.5 C 289.027,228.427 290.027,229.094 290.5,230.5C 288.973,230.573 287.973,229.906 287.5,228.5 Z"/></g>
<g><path style="opacity:1" fill="#2b2b2b" d="M 355.5,227.5 C 357.262,228.262 358.262,229.596 358.5,231.5C 356.738,230.738 355.738,229.404 355.5,227.5 Z"/></g>
<g><path style="opacity:1" fill="#242424" d="M 393.5,228.5 C 395.674,228.75 397.341,229.75 398.5,231.5C 396.326,231.25 394.659,230.25 393.5,228.5 Z"/></g>
<g><path style="opacity:1" fill="#2b2b2b" d="M 436.5,229.5 C 436.5,230.833 435.833,231.5 434.5,231.5C 434.833,230.5 435.5,229.833 436.5,229.5 Z"/></g>
<g><path style="opacity:1" fill="#1a1a1a" d="M 290.5,230.5 C 292.027,230.427 293.027,231.094 293.5,232.5C 291.973,232.573 290.973,231.906 290.5,230.5 Z"/></g>
<g><path style="opacity:1" fill="#161616" d="M 231.5,232.5 C 233.027,232.427 234.027,233.094 234.5,234.5C 232.973,234.573 231.973,233.906 231.5,232.5 Z"/></g>
<g><path style="opacity:1" fill="#555555" d="M 400.5,232.5 C 402.698,232.12 404.365,232.787 405.5,234.5C 403.447,234.598 401.78,233.931 400.5,232.5 Z"/></g>
<g><path style="opacity:1" fill="#3c3c3c" d="M 192.5,232.5 C 194.027,232.427 195.027,233.094 195.5,234.5C 193.973,234.573 192.973,233.906 192.5,232.5 Z"/></g>
<g><path style="opacity:1" fill="#262626" d="M 293.5,232.5 C 295.027,232.427 296.027,233.094 296.5,234.5C 294.973,234.573 293.973,233.906 293.5,232.5 Z"/></g>
<g><path style="opacity:1" fill="#222222" d="M 358.5,231.5 C 359.906,231.973 360.573,232.973 360.5,234.5C 359.094,234.027 358.427,233.027 358.5,231.5 Z"/></g>
<g><path style="opacity:1" fill="#0e0e0e" d="M 234.5,234.5 C 236.027,234.427 237.027,235.094 237.5,236.5C 235.973,236.573 234.973,235.906 234.5,234.5 Z"/></g>
<g><path style="opacity:1" fill="#484848" d="M 195.5,234.5 C 197.404,234.738 198.738,235.738 199.5,237.5C 197.596,237.262 196.262,236.262 195.5,234.5 Z"/></g>
<g><path style="opacity:1" fill="#1d1d1d" d="M 296.5,234.5 C 298.027,234.427 299.027,235.094 299.5,236.5C 297.973,236.573 296.973,235.906 296.5,234.5 Z"/></g>
<g><path style="opacity:1" fill="#141414" d="M 237.5,236.5 C 239.027,236.427 240.027,237.094 240.5,238.5C 238.973,238.573 237.973,237.906 237.5,236.5 Z"/></g>
<g><path style="opacity:1" fill="#3e3e3e" d="M 299.5,236.5 C 301.404,236.738 302.738,237.738 303.5,239.5C 301.596,239.262 300.262,238.262 299.5,236.5 Z"/></g>
<g><path style="opacity:1" fill="#323232" d="M 360.5,234.5 C 365.167,238.5 369.5,242.833 373.5,247.5C 368.167,244.167 363.833,239.833 360.5,234.5 Z"/></g>
<g><path style="opacity:1" fill="#272727" d="M 245.5,241.5 C 247.38,241.229 248.713,241.896 249.5,243.5C 247.847,243.34 246.514,242.674 245.5,241.5 Z"/></g>
<g><path style="opacity:1" fill="#202020" d="M 204.5,242.5 C 206.262,243.262 207.262,244.596 207.5,246.5C 205.738,245.738 204.738,244.404 204.5,242.5 Z"/></g>
<g><path style="opacity:1" fill="#1e1e1e" d="M 249.5,243.5 C 251.698,243.12 253.365,243.787 254.5,245.5C 252.447,245.598 250.78,244.931 249.5,243.5 Z"/></g>
<g><path style="opacity:1" fill="#343434" d="M 303.5,239.5 C 308.833,242.833 313.167,247.167 316.5,252.5C 311.833,248.5 307.5,244.167 303.5,239.5 Z"/></g>
<g><path style="opacity:1" fill="#373737" d="M 260.5,247.5 C 262.38,247.229 263.713,247.896 264.5,249.5C 262.847,249.34 261.514,248.674 260.5,247.5 Z"/></g>
<g><path style="opacity:1" fill="#939393" d="M 265.5,249.5 C 267.786,249.595 269.786,250.262 271.5,251.5C 268.884,252.914 266.884,252.248 265.5,249.5 Z"/></g>
<g><path style="opacity:1" fill="#323232" d="M 377.5,250.5 C 379.23,251.026 380.564,252.026 381.5,253.5C 379.368,253.446 378.035,252.446 377.5,250.5 Z"/></g>
<g><path style="opacity:1" fill="#181818" d="M 211.5,252.5 C 212.906,252.973 213.573,253.973 213.5,255.5C 212.094,255.027 211.427,254.027 211.5,252.5 Z"/></g>
<g><path style="opacity:1" fill="#292929" d="M 274.5,252.5 C 276.819,252.992 278.819,253.992 280.5,255.5C 277.911,255.539 275.911,254.539 274.5,252.5 Z"/></g>
<g><path style="opacity:1" fill="#1a1a1a" d="M 381.5,253.5 C 383.027,253.427 384.027,254.094 384.5,255.5C 382.973,255.573 381.973,254.906 381.5,253.5 Z"/></g>
<g><path style="opacity:1" fill="#434343" d="M 124.5,254.5 C 122.735,255.461 120.735,255.795 118.5,255.5C 120.218,254.776 122.052,254.109 124,253.5C 124.399,253.728 124.565,254.062 124.5,254.5 Z"/></g>
<g><path style="opacity:1" fill="#353535" d="M 145.5,255.5 C 143.265,255.795 141.265,255.461 139.5,254.5C 139.435,254.062 139.601,253.728 140,253.5C 141.948,254.109 143.782,254.776 145.5,255.5 Z"/></g>
<g><path style="opacity:1" fill="#171717" d="M 317.5,253.5 C 318.906,253.973 319.573,254.973 319.5,256.5C 318.094,256.027 317.427,255.027 317.5,253.5 Z"/></g>
<g><path style="opacity:1" fill="#696969" d="M 113.5,256.5 C 112.365,258.213 110.698,258.88 108.5,258.5C 109.93,257.463 111.597,256.796 113.5,256.5 Z"/></g>
<g><path style="opacity:1" fill="#1e1e1e" d="M 283.5,257.5 C 285.027,257.427 286.027,258.094 286.5,259.5C 284.973,259.573 283.973,258.906 283.5,257.5 Z"/></g>
<g><path style="opacity:1" fill="#2f2f2f" d="M 155.5,258.5 C 157.38,258.229 158.713,258.896 159.5,260.5C 157.847,260.34 156.514,259.674 155.5,258.5 Z"/></g>
<g><path style="opacity:1" fill="#5f5f5f" d="M 108.5,258.5 C 107.365,260.213 105.698,260.88 103.5,260.5C 104.78,259.069 106.447,258.402 108.5,258.5 Z"/></g>
<g><path style="opacity:1" fill="#1d1d1d" d="M 320.5,257.5 C 322.326,259.147 323.66,261.147 324.5,263.5C 322.178,262.198 320.845,260.198 320.5,257.5 Z"/></g>
<g><path style="opacity:1" fill="#232323" d="M 287.5,260.5 C 289.027,260.427 290.027,261.094 290.5,262.5C 288.973,262.573 287.973,261.906 287.5,260.5 Z"/></g>
<g><path style="opacity:1" fill="#1a1a1a" d="M 391.5,259.5 C 393.674,259.75 395.341,260.75 396.5,262.5C 394.326,262.25 392.659,261.25 391.5,259.5 Z"/></g>
<g><path style="opacity:1" fill="#373737" d="M 103.5,260.5 C 103.027,261.906 102.027,262.573 100.5,262.5C 100.973,261.094 101.973,260.427 103.5,260.5 Z"/></g>
<g><path style="opacity:1" fill="#262626" d="M 160.5,260.5 C 162.027,260.427 163.027,261.094 163.5,262.5C 161.973,262.573 160.973,261.906 160.5,260.5 Z"/></g>
<g><path style="opacity:1" fill="#2c2c2c" d="M 396.5,262.5 C 398.38,262.229 399.713,262.896 400.5,264.5C 398.847,264.34 397.514,263.674 396.5,262.5 Z"/></g>
<g><path style="opacity:1" fill="#1f1f1f" d="M 165.5,263.5 C 167.027,263.427 168.027,264.094 168.5,265.5C 166.973,265.573 165.973,264.906 165.5,263.5 Z"/></g>
<g><path style="opacity:1" fill="#313131" d="M 98.5,263.5 C 97.7377,265.262 96.4044,266.262 94.5,266.5C 95.2623,264.738 96.5956,263.738 98.5,263.5 Z"/></g>
<g><path style="opacity:1" fill="#111111" d="M 292.5,264.5 C 293.833,264.5 294.5,265.167 294.5,266.5C 293.5,266.167 292.833,265.5 292.5,264.5 Z"/></g>
<g><path style="opacity:1" fill="#2c2c2c" d="M 400.5,264.5 C 402.38,264.229 403.713,264.896 404.5,266.5C 402.847,266.34 401.514,265.674 400.5,264.5 Z"/></g>
<g><path style="opacity:1" fill="#131313" d="M 94.5,266.5 C 94.1667,267.5 93.5,268.167 92.5,268.5C 92.5,267.167 93.1667,266.5 94.5,266.5 Z"/></g>
<g><path style="opacity:1" fill="#222222" d="M 169.5,266.5 C 171.027,266.427 172.027,267.094 172.5,268.5C 170.973,268.573 169.973,267.906 169.5,266.5 Z"/></g>
<g><path style="opacity:1" fill="#252525" d="M 217.5,264.5 C 218.924,266.515 219.59,268.848 219.5,271.5C 218.076,269.485 217.41,267.152 217.5,264.5 Z"/></g>
<g><path style="opacity:1" fill="#141414" d="M 294.5,266.5 C 295.833,266.5 296.5,267.167 296.5,268.5C 295.5,268.167 294.833,267.5 294.5,266.5 Z"/></g>
<g><path style="opacity:1" fill="#252525" d="M 92.5,268.5 C 91.1667,270.5 89.5,272.167 87.5,273.5C 88.1667,270.833 89.8333,269.167 92.5,268.5 Z"/></g>
<g><path style="opacity:1" fill="#979797" d="M 172.5,268.5 C 174.167,269.5 175.5,270.833 176.5,272.5C 173.858,272.512 172.525,271.179 172.5,268.5 Z"/></g>
<g><path style="opacity:1" fill="#535353" d="M 412.5,270.5 C 414.23,271.026 415.564,272.026 416.5,273.5C 414.368,273.446 413.035,272.446 412.5,270.5 Z"/></g>
<g><path style="opacity:1" fill="#3b3b3b" d="M 296.5,268.5 C 298.587,269.585 299.92,271.251 300.5,273.5C 298.413,272.415 297.08,270.749 296.5,268.5 Z"/></g>
<g><path style="opacity:1" fill="#202020" d="M 416.5,273.5 C 418.027,273.427 419.027,274.094 419.5,275.5C 417.973,275.573 416.973,274.906 416.5,273.5 Z"/></g>
<g><path style="opacity:1" fill="#101010" d="M 87.5,273.5 C 87.1667,274.5 86.5,275.167 85.5,275.5C 85.5,274.167 86.1667,273.5 87.5,273.5 Z"/></g>
<g><path style="opacity:1" fill="#494949" d="M 178.5,274.5 C 180.262,275.262 181.262,276.596 181.5,278.5C 179.738,277.738 178.738,276.404 178.5,274.5 Z"/></g>
<g><path style="opacity:1" fill="#363636" d="M 300.5,273.5 C 301.906,273.973 302.573,274.973 302.5,276.5C 301.094,276.027 300.427,275.027 300.5,273.5 Z"/></g>
<g><path style="opacity:1" fill="#111111" d="M 419.5,275.5 C 420.833,275.5 421.5,276.167 421.5,277.5C 420.5,277.167 419.833,276.5 419.5,275.5 Z"/></g>
<g><path style="opacity:1" fill="#484848" d="M 329.5,273.5 C 331.074,275.102 331.741,277.102 331.5,279.5C 330.262,277.786 329.595,275.786 329.5,273.5 Z"/></g>
<g><path style="opacity:1" fill="#353535" d="M 421.5,277.5 C 425.5,279.5 428.5,282.5 430.5,286.5C 427.167,283.833 424.167,280.833 421.5,277.5 Z"/></g>
<g><path style="opacity:1" fill="#454545" d="M 84.5,277.5 C 84.573,279.027 83.9063,280.027 82.5,280.5C 82.427,278.973 83.0937,277.973 84.5,277.5 Z"/></g>
<g><path style="opacity:1" fill="#545454" d="M 181.5,278.5 C 183.262,279.262 184.262,280.596 184.5,282.5C 182.738,281.738 181.738,280.404 181.5,278.5 Z"/></g>
<g><path style="opacity:1" fill="#1f1f1f" d="M 303.5,278.5 C 304.906,278.973 305.573,279.973 305.5,281.5C 304.094,281.027 303.427,280.027 303.5,278.5 Z"/></g>
<g><path style="opacity:1" fill="#202020" d="M 331.5,279.5 C 333.04,281.838 333.706,284.505 333.5,287.5C 332.232,285.095 331.565,282.428 331.5,279.5 Z"/></g>
<g><path style="opacity:1" fill="#1f1f1f" d="M 82.5,280.5 C 82.573,282.027 81.9063,283.027 80.5,283.5C 80.427,281.973 81.0937,280.973 82.5,280.5 Z"/></g>
<g><path style="opacity:1" fill="#212121" d="M 184.5,282.5 C 185.906,282.973 186.573,283.973 186.5,285.5C 185.094,285.027 184.427,284.027 184.5,282.5 Z"/></g>
<g><path style="opacity:1" fill="#717171" d="M 305.5,282.5 C 306.931,283.78 307.598,285.447 307.5,287.5C 305.787,286.365 305.12,284.698 305.5,282.5 Z"/></g>
<g><path style="opacity:1" fill="#232323" d="M 186.5,286.5 C 187.906,286.973 188.573,287.973 188.5,289.5C 187.094,289.027 186.427,288.027 186.5,286.5 Z"/></g>
<g><path style="opacity:1" fill="#3f3f3f" d="M 430.5,286.5 C 432.587,287.585 433.92,289.251 434.5,291.5C 432.413,290.415 431.08,288.749 430.5,286.5 Z"/></g>
<g><path style="opacity:1" fill="#1a1a1a" d="M 188.5,290.5 C 190.104,291.287 190.771,292.62 190.5,294.5C 189.326,293.486 188.66,292.153 188.5,290.5 Z"/></g>
<g><path style="opacity:1" fill="#1c1c1c" d="M 434.5,291.5 C 435.906,291.973 436.573,292.973 436.5,294.5C 435.094,294.027 434.427,293.027 434.5,291.5 Z"/></g>
<g><path style="opacity:1" fill="#484848" d="M 77.5,291.5 C 77.2833,295.705 76.6167,299.705 75.5,303.5C 75.1977,299.21 75.8643,295.21 77.5,291.5 Z"/></g>
<g><path style="opacity:1" fill="#292929" d="M 436.5,295.5 C 438.104,296.287 438.771,297.62 438.5,299.5C 437.326,298.486 436.66,297.153 436.5,295.5 Z"/></g>
<g><path style="opacity:1" fill="#494949" d="M 190.5,294.5 C 192.483,297.799 193.483,301.466 193.5,305.5C 191.517,302.201 190.517,298.534 190.5,294.5 Z"/></g>
<g><path style="opacity:1" fill="#1b1b1b" d="M 219.5,271.5 C 220.309,273.292 220.809,275.292 221,277.5C 221.5,298.164 221.667,318.831 221.5,339.5C 220.745,316.991 220.078,294.325 219.5,271.5 Z"/></g>
<g><path style="opacity:1" fill="#161616" d="M 438.5,299.5 C 440.104,300.287 440.771,301.62 440.5,303.5C 439.326,302.486 438.66,301.153 438.5,299.5 Z"/></g>
<g><path style="opacity:1" fill="#292929" d="M 334.5,294.5 C 335.662,310.995 335.828,327.662 335,344.5C 334.79,346.058 334.29,347.391 333.5,348.5C 334.416,330.52 334.75,312.52 334.5,294.5 Z"/></g>
<g><path style="opacity:1" fill="#494949" d="M 440.5,303.5 C 442.416,307.163 443.416,311.163 443.5,315.5C 441.719,311.8 440.719,307.8 440.5,303.5 Z"/></g>
<g><path style="opacity:1" fill="#545454" d="M 146.5,309.5 C 148.898,309.259 150.898,309.926 152.5,311.5C 150.214,311.405 148.214,310.738 146.5,309.5 Z"/></g>
<g><path style="opacity:1" fill="#1f1f1f" d="M 132.5,309.5 C 130.485,310.924 128.152,311.59 125.5,311.5C 127.515,310.076 129.848,309.41 132.5,309.5 Z"/></g>
<g><path style="opacity:1" fill="#303030" d="M 153.5,311.5 C 155.153,311.66 156.486,312.326 157.5,313.5C 155.62,313.771 154.287,313.104 153.5,311.5 Z"/></g>
<g><path style="opacity:1" fill="#303030" d="M 157.5,313.5 C 159.027,313.427 160.027,314.094 160.5,315.5C 158.973,315.573 157.973,314.906 157.5,313.5 Z"/></g>
<g><path style="opacity:1" fill="#363636" d="M 160.5,315.5 C 161.609,315.557 162.609,315.89 163.5,316.5C 163.5,316.833 163.5,317.167 163.5,317.5C 161.973,317.573 160.973,316.906 160.5,315.5 Z"/></g>
<g><path style="opacity:1" fill="#969696" d="M 163.5,316.5 C 164.5,316.5 165.5,316.5 166.5,316.5C 167.043,319.038 168.043,321.372 169.5,323.5C 167.167,321.833 165.167,319.833 163.5,317.5C 163.5,317.167 163.5,316.833 163.5,316.5 Z"/></g>
<g><path style="opacity:1" fill="#414141" d="M 193.5,308.5 C 194.314,310.631 194.814,312.964 195,315.5C 195.5,325.161 195.666,334.828 195.5,344.5C 194.686,342.369 194.186,340.036 194,337.5C 193.5,327.839 193.334,318.172 193.5,308.5 Z"/></g>
<g><path style="opacity:1" fill="#181818" d="M 113.5,318.5 C 113.5,319.833 112.833,320.5 111.5,320.5C 111.833,319.5 112.5,318.833 113.5,318.5 Z"/></g>
<g><path style="opacity:1" fill="#272727" d="M 109.5,322.5 C 109.573,324.027 108.906,325.027 107.5,325.5C 107.427,323.973 108.094,322.973 109.5,322.5 Z"/></g>
<g><path style="opacity:1" fill="#1d1d1d" d="M 170.5,324.5 C 171.906,324.973 172.573,325.973 172.5,327.5C 171.094,327.027 170.427,326.027 170.5,324.5 Z"/></g>
<g><path style="opacity:1" fill="#7b7b7b" d="M 107.5,325.5 C 106.974,327.23 105.974,328.564 104.5,329.5C 104.5,328.167 104.5,326.833 104.5,325.5C 105.5,325.5 106.5,325.5 107.5,325.5 Z"/></g>
<g><path style="opacity:1" fill="#252525" d="M 172.5,327.5 C 173.906,327.973 174.573,328.973 174.5,330.5C 173.094,330.027 172.427,329.027 172.5,327.5 Z"/></g>
<g><path style="opacity:1" fill="#212121" d="M 102.5,333.5 C 102.598,335.553 101.931,337.22 100.5,338.5C 100.402,336.447 101.069,334.78 102.5,333.5 Z"/></g>
<g><path style="opacity:1" fill="#212121" d="M 309.5,335.5 C 309.678,339.122 309.011,342.456 307.5,345.5C 307.549,341.922 308.215,338.589 309.5,335.5 Z"/></g>
<g><path style="opacity:1" fill="#404040" d="M 100.5,338.5 C 100.405,340.786 99.7384,342.786 98.5,344.5C 98.2594,342.102 98.9261,340.102 100.5,338.5 Z"/></g>
<g><path style="opacity:1" fill="#1f1f1f" d="M 178.5,339.5 C 179.924,341.515 180.59,343.848 180.5,346.5C 179.076,344.485 178.41,342.152 178.5,339.5 Z"/></g>
<g><path style="opacity:1" fill="#404040" d="M 443.5,318.5 C 446.167,337.167 446.167,355.833 443.5,374.5C 443.5,355.833 443.5,337.167 443.5,318.5 Z"/></g>
<g><path style="opacity:1" fill="#282828" d="M 307.5,345.5 C 307.741,347.898 307.074,349.898 305.5,351.5C 305.595,349.214 306.262,347.214 307.5,345.5 Z"/></g>
<g><path style="opacity:1" fill="#101010" d="M 195.5,346.5 C 196.913,349.219 197.58,352.219 197.5,355.5C 196.087,352.781 195.42,349.781 195.5,346.5 Z"/></g>
<g><path style="opacity:1" fill="#383838" d="M 333.5,350.5 C 333.829,353.228 333.163,355.562 331.5,357.5C 331.721,354.933 332.388,352.599 333.5,350.5 Z"/></g>
<g><path style="opacity:1" fill="#212121" d="M 223.5,351.5 C 225.341,353.849 226.674,356.515 227.5,359.5C 225.127,357.421 223.794,354.754 223.5,351.5 Z"/></g>
<g><path style="opacity:1" fill="#434343" d="M 305.5,351.5 C 305.771,353.38 305.104,354.713 303.5,355.5C 303.66,353.847 304.326,352.514 305.5,351.5 Z"/></g>
<g><path style="opacity:1" fill="#161616" d="M 197.5,355.5 C 198.738,357.214 199.405,359.214 199.5,361.5C 197.926,359.898 197.259,357.898 197.5,355.5 Z"/></g>
<g><path style="opacity:1" fill="#171717" d="M 228.5,361.5 C 230.262,362.262 231.262,363.596 231.5,365.5C 229.738,364.738 228.738,363.404 228.5,361.5 Z"/></g>
<g><path style="opacity:1" fill="#535353" d="M 331.5,358.5 C 331.88,360.698 331.213,362.365 329.5,363.5C 329.402,361.447 330.069,359.78 331.5,358.5 Z"/></g>
<g><path style="opacity:1" fill="#2a2a2a" d="M 298.5,363.5 C 298.5,364.833 297.833,365.5 296.5,365.5C 296.833,364.5 297.5,363.833 298.5,363.5 Z"/></g>
<g><path style="opacity:1" fill="#565656" d="M 231.5,365.5 C 233.027,365.427 234.027,366.094 234.5,367.5C 232.973,367.573 231.973,366.906 231.5,365.5 Z"/></g>
<g><path style="opacity:1" fill="#3b3b3b" d="M 296.5,365.5 C 296.5,366.833 295.833,367.5 294.5,367.5C 294.833,366.5 295.5,365.833 296.5,365.5 Z"/></g>
<g><path style="opacity:1" fill="#545454" d="M 329.5,363.5 C 329.88,365.698 329.213,367.365 327.5,368.5C 327.402,366.447 328.069,364.78 329.5,363.5 Z"/></g>
<g><path style="opacity:1" fill="#383838" d="M 234.5,368.5 C 236.404,368.738 237.738,369.738 238.5,371.5C 236.596,371.262 235.262,370.262 234.5,368.5 Z"/></g>
<g><path style="opacity:1" fill="#313131" d="M 200.5,364.5 C 202.008,366.181 203.008,368.181 203.5,370.5C 201.025,369.313 200.025,367.313 200.5,364.5 Z"/></g>
<g><path style="opacity:1" fill="#1b1b1b" d="M 294.5,368.5 C 294.027,369.906 293.027,370.573 291.5,370.5C 291.973,369.094 292.973,368.427 294.5,368.5 Z"/></g>
<g><path style="opacity:1" fill="#353535" d="M 327.5,368.5 C 327.34,370.153 326.674,371.486 325.5,372.5C 325.229,370.62 325.896,369.287 327.5,368.5 Z"/></g>
<g><path style="opacity:1" fill="#4b4b4b" d="M 98.5,367.5 C 99.7384,369.214 100.405,371.214 100.5,373.5C 98.9261,371.898 98.2594,369.898 98.5,367.5 Z"/></g>
<g><path style="opacity:1" fill="#393939" d="M 238.5,371.5 C 240.027,371.427 241.027,372.094 241.5,373.5C 239.973,373.573 238.973,372.906 238.5,371.5 Z"/></g>
<g><path style="opacity:1" fill="#161616" d="M 204.5,372.5 C 205.906,372.973 206.573,373.973 206.5,375.5C 205.094,375.027 204.427,374.027 204.5,372.5 Z"/></g>
<g><path style="opacity:1" fill="#3c3c3c" d="M 325.5,372.5 C 325.573,374.027 324.906,375.027 323.5,375.5C 323.427,373.973 324.094,372.973 325.5,372.5 Z"/></g>
<g><path style="opacity:1" fill="#5d5d5d" d="M 245.5,375.5 C 247.698,375.12 249.365,375.787 250.5,377.5C 248.447,377.598 246.78,376.931 245.5,375.5 Z"/></g>
<g><path style="opacity:1" fill="#626262" d="M 100.5,373.5 C 101.674,374.514 102.34,375.847 102.5,377.5C 100.824,376.817 100.157,375.483 100.5,373.5 Z"/></g>
<g><path style="opacity:1" fill="#222222" d="M 206.5,375.5 C 207.906,375.973 208.573,376.973 208.5,378.5C 207.094,378.027 206.427,377.027 206.5,375.5 Z"/></g>
<g><path style="opacity:1" fill="#1c1c1c" d="M 283.5,375.5 C 280.916,377.472 277.916,378.472 274.5,378.5C 277.215,376.928 280.215,375.928 283.5,375.5 Z"/></g>
<g><path style="opacity:1" fill="#424242" d="M 323.5,375.5 C 323.573,377.027 322.906,378.027 321.5,378.5C 321.427,376.973 322.094,375.973 323.5,375.5 Z"/></g>
<g><path style="opacity:1" fill="#616161" d="M 321.5,378.5 C 321.573,380.027 320.906,381.027 319.5,381.5C 319.427,379.973 320.094,378.973 321.5,378.5 Z"/></g>
<g><path style="opacity:1" fill="#252525" d="M 102.5,378.5 C 103.906,378.973 104.573,379.973 104.5,381.5C 103.094,381.027 102.427,380.027 102.5,378.5 Z"/></g>
<g><path style="opacity:1" fill="#3a3a3a" d="M 208.5,378.5 C 210.587,379.585 211.92,381.251 212.5,383.5C 210.413,382.415 209.08,380.749 208.5,378.5 Z"/></g>
<g><path style="opacity:1" fill="#2a2a2a" d="M 443.5,375.5 C 443.72,380.1 443.054,384.433 441.5,388.5C 441.624,383.951 442.291,379.618 443.5,375.5 Z"/></g>
<g><path style="opacity:1" fill="#1f1f1f" d="M 174.5,381.5 C 174.573,383.027 173.906,384.027 172.5,384.5C 172.427,382.973 173.094,381.973 174.5,381.5 Z"/></g>
<g><path style="opacity:1" fill="#1a1a1a" d="M 212.5,383.5 C 213.833,383.5 214.5,384.167 214.5,385.5C 213.5,385.167 212.833,384.5 212.5,383.5 Z"/></g>
<g><path style="opacity:1" fill="#1b1b1b" d="M 106.5,385.5 C 107.833,385.5 108.5,386.167 108.5,387.5C 107.5,387.167 106.833,386.5 106.5,385.5 Z"/></g>
<g><path style="opacity:1" fill="#191919" d="M 214.5,385.5 C 215.833,385.5 216.5,386.167 216.5,387.5C 215.5,387.167 214.833,386.5 214.5,385.5 Z"/></g>
<g><path style="opacity:1" fill="#272727" d="M 172.5,384.5 C 172.573,386.027 171.906,387.027 170.5,387.5C 170.427,385.973 171.094,384.973 172.5,384.5 Z"/></g>
<g><path style="opacity:1" fill="#262626" d="M 77.5,384.5 C 78.6118,386.599 79.2785,388.933 79.5,391.5C 77.8372,389.562 77.1706,387.228 77.5,384.5 Z"/></g>
<g><path style="opacity:1" fill="#232323" d="M 216.5,387.5 C 217.833,387.5 218.5,388.167 218.5,389.5C 217.5,389.167 216.833,388.5 216.5,387.5 Z"/></g>
<g><path style="opacity:1" fill="#4d4d4d" d="M 108.5,387.5 C 110.5,388.833 112.167,390.5 113.5,392.5C 110.833,391.833 109.167,390.167 108.5,387.5 Z"/></g>
<g><path style="opacity:1" fill="#232323" d="M 441.5,388.5 C 441.472,391.916 440.472,394.916 438.5,397.5C 438.928,394.215 439.928,391.215 441.5,388.5 Z"/></g>
<g><path style="opacity:1" fill="#1b1b1b" d="M 221.5,391.5 C 223.027,391.427 224.027,392.094 224.5,393.5C 222.973,393.573 221.973,392.906 221.5,391.5 Z"/></g>
<g><path style="opacity:1" fill="#6a6a6a" d="M 170.5,387.5 C 169.5,390.5 167.5,392.5 164.5,393.5C 166.167,391.167 168.167,389.167 170.5,387.5 Z"/></g>
<g><path style="opacity:1" fill="#323232" d="M 310.5,390.5 C 308.049,393.277 305.049,395.277 301.5,396.5C 303.975,393.759 306.975,391.759 310.5,390.5 Z"/></g>
<g><path style="opacity:1" fill="#363636" d="M 164.5,393.5 C 163.738,395.262 162.404,396.262 160.5,396.5C 161.262,394.738 162.596,393.738 164.5,393.5 Z"/></g>
<g><path style="opacity:1" fill="#181818" d="M 227.5,395.5 C 229.674,395.75 231.341,396.75 232.5,398.5C 230.326,398.25 228.659,397.25 227.5,395.5 Z"/></g>
<g><path style="opacity:1" fill="#121212" d="M 299.5,397.5 C 298.713,399.104 297.38,399.771 295.5,399.5C 296.514,398.326 297.847,397.66 299.5,397.5 Z"/></g>
<g><path style="opacity:1" fill="#171717" d="M 295.5,399.5 C 293.967,401.245 291.967,402.245 289.5,402.5C 291.033,400.755 293.033,399.755 295.5,399.5 Z"/></g>
<g><path style="opacity:1" fill="#191919" d="M 81.5,398.5 C 82.6737,399.514 83.3404,400.847 83.5,402.5C 81.8958,401.713 81.2291,400.38 81.5,398.5 Z"/></g>
<g><path style="opacity:1" fill="#353535" d="M 127.5,400.5 C 130.067,400.721 132.401,401.388 134.5,402.5C 131.772,402.829 129.438,402.163 127.5,400.5 Z"/></g>
<g><path style="opacity:1" fill="#535353" d="M 154.5,399.5 C 151.679,401.712 148.345,402.712 144.5,402.5C 147.642,401.21 150.975,400.21 154.5,399.5 Z"/></g>
<g><path style="opacity:1" fill="#333333" d="M 236.5,400.5 C 238.553,400.402 240.22,401.069 241.5,402.5C 239.447,402.598 237.78,401.931 236.5,400.5 Z"/></g>
<g><path style="opacity:1" fill="#202020" d="M 83.5,402.5 C 84.6737,403.514 85.3404,404.847 85.5,406.5C 83.8958,405.713 83.2291,404.38 83.5,402.5 Z"/></g>
<g><path style="opacity:1" fill="#313131" d="M 242.5,402.5 C 245.067,402.721 247.401,403.388 249.5,404.5C 246.772,404.829 244.438,404.163 242.5,402.5 Z"/></g>
<g><path style="opacity:1" fill="#2d2d2d" d="M 288.5,402.5 C 285.196,404.417 281.529,405.584 277.5,406C 269.167,406.667 260.833,406.667 252.5,406C 251.263,405.768 250.263,405.268 249.5,404.5C 262.633,406.221 275.633,405.555 288.5,402.5 Z"/></g>
<g><path style="opacity:1" fill="#868686" d="M 435.5,405.5 C 435.201,407.455 434.201,408.789 432.5,409.5C 433.791,408.527 433.791,407.527 432.5,406.5C 433.325,405.614 434.325,405.281 435.5,405.5 Z"/></g>
<g><path style="opacity:1" fill="#1d1d1d" d="M 86.5,408.5 C 87.9063,408.973 88.573,409.973 88.5,411.5C 87.0937,411.027 86.427,410.027 86.5,408.5 Z"/></g>
<g><path style="opacity:1" fill="#232323" d="M 88.5,411.5 C 89.9063,411.973 90.573,412.973 90.5,414.5C 89.0937,414.027 88.427,413.027 88.5,411.5 Z"/></g>
<g><path style="opacity:1" fill="#646464" d="M 91.5,415.5 C 93.1436,415.81 94.1436,416.81 94.5,418.5C 92.8564,418.19 91.8564,417.19 91.5,415.5 Z"/></g>
<g><path style="opacity:1" fill="#767676" d="M 94.5,419.5 C 97.0632,419.731 98.7298,421.065 99.5,423.5C 97.2512,422.92 95.5846,421.587 94.5,419.5 Z"/></g>
<g><path style="opacity:1" fill="#8e8e8e" d="M 425.5,419.5 C 424.167,422.167 422.167,424.167 419.5,425.5C 419.5,424.5 419.5,423.5 419.5,422.5C 420.685,421.229 422.685,420.229 425.5,419.5 Z"/></g>
<g><path style="opacity:1" fill="#2e2e2e" d="M 99.5,423.5 C 100.5,423.833 101.167,424.5 101.5,425.5C 100.167,425.5 99.5,424.833 99.5,423.5 Z"/></g>
<g><path style="opacity:1" fill="#6c6c6c" d="M 101.5,425.5 C 103.404,425.738 104.738,426.738 105.5,428.5C 103.596,428.262 102.262,427.262 101.5,425.5 Z"/></g>
<g><path style="opacity:1" fill="#919191" d="M 412.5,430.5 C 411.035,431.737 409.368,432.737 407.5,433.5C 407.5,432.5 407.5,431.5 407.5,430.5C 409.167,430.5 410.833,430.5 412.5,430.5 Z"/></g>
<g><path style="opacity:1" fill="#2a2a2a" d="M 112.5,432.5 C 114.153,432.66 115.486,433.326 116.5,434.5C 114.62,434.771 113.287,434.104 112.5,432.5 Z"/></g>
<g><path style="opacity:1" fill="#262626" d="M 117.5,434.5 C 119.153,434.66 120.486,435.326 121.5,436.5C 119.62,436.771 118.287,436.104 117.5,434.5 Z"/></g>
<g><path style="opacity:1" fill="#1b1b1b" d="M 399.5,436.5 C 397.22,438.223 394.553,438.889 391.5,438.5C 393.905,437.232 396.572,436.565 399.5,436.5 Z"/></g>
</svg>
